<svg width="15" height="9" viewBox="0 0 15 9" fill="none" xmlns="http://www.w3.org/2000/svg">
<path d="M14.5 5C14.7761 5 15 4.77614 15 4.5C15 4.22386 14.7761 4 14.5 4V5ZM0.146447 4.14645C-0.0488155 4.34171 -0.0488155 4.65829 0.146447 4.85355L3.32843 8.03553C3.52369 8.2308 3.84027 8.2308 4.03553 8.03553C4.2308 7.84027 4.2308 7.52369 4.03553 7.32843L1.20711 4.5L4.03553 1.67157C4.2308 1.47631 4.2308 1.15973 4.03553 0.964466C3.84027 0.769204 3.52369 0.769204 3.32843 0.964466L0.146447 4.14645ZM14.5 4H0.5V5H14.5V4Z" fill="white"/>
</svg>
