<svg width="32" height="42" viewBox="0 0 32 42" fill="none" xmlns="http://www.w3.org/2000/svg">
<path d="M4.20898 10.6163V27.587C4.20898 29.5267 4.20898 30.4966 4.58648 31.2375C4.91852 31.8891 5.44835 32.419 6.10005 32.751C6.84091 33.1285 7.81075 33.1285 9.75045 33.1285H22.9114C24.8511 33.1285 25.8211 33.1285 26.5619 32.751C27.2135 32.419 27.7434 31.8891 28.0754 31.2375C28.4529 30.4966 28.4529 29.5267 28.4529 27.587V10.6163M4.20898 10.6163C4.20898 10.6163 4.20898 5.42114 16.3309 5.42114C28.4529 5.42114 28.4529 10.6163 28.4529 10.6163M4.20898 10.6163H28.4529M4.20898 22.7382H28.4529M24.9895 36.5919V33.1285M7.6724 36.5919V33.1285M9.40411 27.9334H9.42143M23.2578 27.9334H23.2751" stroke="#FD4242" stroke-width="3.46342" stroke-linecap="round" stroke-linejoin="round"/>
</svg>
