<svg width="34" height="34" viewBox="0 0 34 34" fill="none" xmlns="http://www.w3.org/2000/svg">
<path d="M4.23828 11.2988L8.08256 14.5023C8.33638 14.7139 8.65633 14.8297 8.98673 14.8297H24.9124C25.2429 14.8297 25.5628 14.7139 25.8166 14.5023L29.6609 11.2988M9.18157 19.773H9.19569M24.7176 19.773H24.7317M11.527 6.35547H22.3722C23.3859 6.35547 24.3219 6.89862 24.8247 7.77874L28.9166 14.9394C29.4043 15.7931 29.6609 16.7591 29.6609 17.7424V26.1286C29.6609 26.9087 29.0286 27.541 28.2485 27.541H26.8362C26.0561 27.541 25.4238 26.9087 25.4238 26.1286V24.7163H8.47539V26.1286C8.47539 26.9087 7.84304 27.541 7.06302 27.541H5.65065C4.87063 27.541 4.23828 26.9087 4.23828 26.1286V17.7424C4.23828 16.7591 4.49485 15.7931 4.98264 14.9394L9.07446 7.77874C9.57737 6.89862 10.5133 6.35547 11.527 6.35547ZM9.88775 19.773C9.88775 20.1629 9.57158 20.4792 9.18157 20.4792C8.79156 20.4792 8.47539 20.1629 8.47539 19.773C8.47539 19.383 8.79156 19.0668 9.18157 19.0668C9.57158 19.0668 9.88775 19.383 9.88775 19.773ZM25.4238 19.773C25.4238 20.1629 25.1076 20.4792 24.7176 20.4792C24.3277 20.4792 24.0114 20.1629 24.0114 19.773C24.0114 19.383 24.3277 19.0668 24.7176 19.0668C25.1076 19.0668 25.4238 19.383 25.4238 19.773Z" stroke="#FD4242" stroke-width="2.82474" stroke-linecap="round" stroke-linejoin="round"/>
</svg>
