<svg width="27" height="26" viewBox="0 0 27 26" fill="none" xmlns="http://www.w3.org/2000/svg">
<path d="M9.41666 12.9987L12.6667 16.2487L18.0833 9.7487M5.08333 18.1989V7.79891C5.08333 6.58546 5.08333 5.97829 5.31948 5.51481C5.5272 5.10712 5.85842 4.77591 6.26611 4.56819C6.72958 4.33203 7.33676 4.33203 8.55021 4.33203H18.9502C20.1637 4.33203 20.7696 4.33203 21.233 4.56819C21.6407 4.77591 21.973 5.10712 22.1807 5.51481C22.4167 5.97783 22.4167 6.58427 22.4167 7.79535V18.2026C22.4167 19.4137 22.4167 20.0192 22.1807 20.4823C21.973 20.8899 21.6407 21.2217 21.233 21.4294C20.77 21.6654 20.1644 21.6654 18.9534 21.6654H8.54665C7.33557 21.6654 6.72913 21.6654 6.26611 21.4294C5.85842 21.2217 5.5272 20.8899 5.31948 20.4823C5.08333 20.0188 5.08333 19.4124 5.08333 18.1989Z" stroke="white" stroke-width="2.16667" stroke-linecap="round" stroke-linejoin="round"/>
</svg>
