<svg width="296" height="323" viewBox="0 0 296 323" fill="none" xmlns="http://www.w3.org/2000/svg">
<g clip-path="url(#clip0_401_318)">
<path d="M57.4993 230.083C55.7591 230.083 54.2674 229.586 53.0244 228.592C51.7813 227.597 50.849 226.292 50.2275 224.676C47.8657 217.715 44.8823 211.189 41.2775 205.098C37.7969 199.007 32.8868 191.859 26.5473 183.655C20.2077 175.451 15.049 167.62 11.0712 160.162C7.21775 152.703 5.29102 143.691 5.29102 133.125C5.29102 118.581 10.3254 106.275 20.3941 96.2063C30.5872 86.0133 42.9556 80.9167 57.4993 80.9167C72.0431 80.9167 84.3494 86.0133 94.4181 96.2063C104.611 106.275 109.708 118.581 109.708 133.125C109.708 144.437 107.532 153.884 103.182 161.467C98.9552 168.925 94.0452 176.321 88.4514 183.655C81.7389 192.605 76.6424 200.064 73.1618 206.03C69.8056 211.873 67.0087 218.088 64.7712 224.676C64.1497 226.416 63.1553 227.784 61.7879 228.778C60.5448 229.648 59.1153 230.083 57.4993 230.083ZM57.4993 203.42C59.6125 199.193 61.9743 195.029 64.5848 190.927C67.3195 186.825 71.2973 181.356 76.5181 174.519C81.8632 167.558 86.2139 161.156 89.5702 155.314C93.0507 149.347 94.791 141.951 94.791 133.125C94.791 122.808 91.124 114.044 83.79 106.834C76.5803 99.5004 67.8167 95.8334 57.4993 95.8334C47.182 95.8334 38.3563 99.5004 31.0223 106.834C23.8125 114.044 20.2077 122.808 20.2077 133.125C20.2077 141.951 21.8858 149.347 25.2421 155.314C28.7226 161.156 33.1355 167.558 38.4806 174.519C43.7014 181.356 47.6171 186.825 50.2275 190.927C52.9622 195.029 55.3862 199.193 57.4993 203.42ZM57.4993 151.771C62.7202 151.771 67.133 149.968 70.7379 146.364C74.3427 142.759 76.1452 138.346 76.1452 133.125C76.1452 127.904 74.3427 123.491 70.7379 119.887C67.133 116.282 62.7202 114.479 57.4993 114.479C52.2785 114.479 47.8657 116.282 44.2608 119.887C40.6559 123.491 38.8535 127.904 38.8535 133.125C38.8535 138.346 40.6559 142.759 44.2608 146.364C47.8657 149.968 52.2785 151.771 57.4993 151.771Z" fill="#3D444F"/>
<path d="M281.75 211.75C281.75 203.912 275.338 197.5 267.5 197.5H153.5C145.662 197.5 139.25 203.912 139.25 211.75M281.75 211.75V297.25C281.75 305.088 275.338 311.5 267.5 311.5H153.5C145.662 311.5 139.25 305.088 139.25 297.25V211.75M281.75 211.75L210.5 261.625L139.25 211.75" stroke="#3D444F" stroke-width="13" stroke-linecap="round" stroke-linejoin="round"/>
<path d="M281.754 121.555V142.93C281.762 144.914 281.355 146.878 280.56 148.696C279.765 150.514 278.599 152.147 277.137 153.488C275.675 154.829 273.949 155.851 272.069 156.486C270.189 157.122 268.197 157.358 266.221 157.18C244.296 154.797 223.236 147.305 204.732 135.306C187.517 124.367 172.922 109.771 161.982 92.556C149.941 73.9683 142.447 52.8055 140.109 30.7822C139.931 28.8119 140.165 26.8261 140.796 24.9513C141.428 23.0764 142.443 21.3536 143.776 19.8925C145.11 18.4314 146.733 17.264 148.543 16.4647C150.353 15.6653 152.309 15.2516 154.287 15.2497H175.662C179.12 15.2157 182.472 16.4401 185.094 18.6949C187.716 20.9496 189.428 24.0808 189.912 27.5047C190.815 34.3452 192.488 41.0616 194.9 47.526C195.858 50.0762 196.066 52.8477 195.498 55.5122C194.929 58.1767 193.609 60.6225 191.694 62.5597L182.645 71.6085C192.788 89.4462 207.557 104.216 225.395 114.358L234.444 105.31C236.381 103.394 238.827 102.074 241.491 101.506C244.156 100.937 246.927 101.145 249.477 102.103C255.942 104.516 262.658 106.189 269.499 107.091C272.96 107.579 276.121 109.323 278.38 111.989C280.64 114.656 281.84 118.06 281.754 121.555Z" stroke="#3D444F" stroke-width="14.25" stroke-linecap="round" stroke-linejoin="round"/>
</g>
<defs>
<clipPath id="clip0_401_318">
<rect width="296" height="323" fill="white"/>
</clipPath>
</defs>
</svg>
