<svg width="28" height="28" viewBox="0 0 28 28" fill="none" xmlns="http://www.w3.org/2000/svg">
<rect width="28" height="28" rx="4" fill="#333A45"/>
<g clip-path="url(#clip0_92_300)">
<rect width="14" height="14" transform="translate(7 7)" fill="#333A45"/>
<path d="M20.3581 7.48362L20.3408 7.46787C20.0106 7.16617 19.5824 7 19.1353 7C18.634 7 18.1527 7.2122 17.8148 7.58213L11.425 14.5777C11.3668 14.6414 11.3226 14.7167 11.2953 14.7986L10.5439 17.051C10.457 17.3114 10.5006 17.5994 10.6605 17.8213C10.8217 18.045 11.0813 18.1786 11.3551 18.1786C11.4735 18.1786 11.5893 18.1542 11.6991 18.1062L13.8745 17.1545C13.9536 17.1199 14.0245 17.0691 14.0827 17.0053L20.4726 10.0098C21.1375 9.28193 21.0862 8.14876 20.3581 7.48362ZM11.9835 16.6349L12.4244 15.3132L12.4615 15.2725L13.2972 16.0357L13.26 16.0764L11.9835 16.6349ZM19.5615 9.17762L14.1294 15.1247L13.2938 14.3614L18.7259 8.41434C18.8321 8.29802 18.9775 8.23394 19.1353 8.23394C19.2737 8.23394 19.4063 8.28544 19.5089 8.37914L19.5261 8.39489C19.7517 8.60092 19.7675 8.95205 19.5615 9.17762Z" fill="white"/>
<path d="M19.6729 11.9897C19.3265 11.9897 19.0457 12.2611 19.0457 12.596V18.2453C19.0457 19.0956 18.3302 19.7873 17.4507 19.7873H9.84935C8.96984 19.7873 8.25435 19.0956 8.25435 18.2453V10.4546C8.25435 9.60438 8.96988 8.91263 9.84935 8.91263H15.3512C15.6976 8.91263 15.9784 8.64115 15.9784 8.30629C15.9784 7.97143 15.6976 7.69995 15.3512 7.69995H9.84935C8.27819 7.69995 7 8.93571 7 10.4546V18.2453C7 19.7642 8.27823 21 9.84935 21H17.4507C19.0218 21 20.3 19.7642 20.3 18.2453V12.596C20.3 12.2611 20.0192 11.9897 19.6729 11.9897Z" fill="white"/>
</g>
<defs>
<clipPath id="clip0_92_300">
<rect width="14" height="14" fill="white" transform="translate(7 7)"/>
</clipPath>
</defs>
</svg>
