<svg width="18" height="18" viewBox="0 0 18 18" fill="none" xmlns="http://www.w3.org/2000/svg">
<g clip-path="url(#clip0_92_340)">
<path d="M17.1747 0.621801L17.1525 0.601546C16.7279 0.213648 16.1774 0 15.6025 0C14.958 0 14.3392 0.272824 13.9047 0.748456L5.68928 9.74273C5.61439 9.8247 5.5576 9.92142 5.52248 10.0267L4.55647 12.9227C4.44478 13.2575 4.50083 13.6278 4.70639 13.9131C4.91359 14.2007 5.24739 14.3724 5.59938 14.3724C5.75163 14.3724 5.90049 14.3411 6.04164 14.2794L8.83863 13.0558C8.94033 13.0113 9.03155 12.946 9.10638 12.864L17.3219 3.86978C18.1768 2.93391 18.1109 1.47698 17.1747 0.621801ZM6.40733 12.3877L6.97418 10.6884L7.02199 10.636L8.09636 11.6173L8.04856 11.6697L6.40733 12.3877ZM16.1505 2.7998L9.16635 10.446L8.09197 9.46472L15.0762 1.81844C15.2127 1.66889 15.3997 1.5865 15.6026 1.5865C15.7805 1.5865 15.9509 1.65271 16.0828 1.77317L16.105 1.79343C16.395 2.05832 16.4154 2.50978 16.1505 2.7998Z" fill="white"/>
<path d="M16.2937 6.41526C15.8484 6.41526 15.4873 6.7643 15.4873 7.19484V14.4582C15.4873 15.5514 14.5674 16.4408 13.4366 16.4408H3.66345C2.53265 16.4408 1.61274 15.5514 1.61274 14.4582V4.44163C1.61274 3.34845 2.5327 2.45906 3.66345 2.45906H10.7373C11.1826 2.45906 11.5437 2.11001 11.5437 1.67948C11.5437 1.24895 11.1826 0.899902 10.7373 0.899902H3.66345C1.64338 0.899902 0 2.48873 0 4.44163V14.4582C0 16.4111 1.64344 17.9999 3.66345 17.9999H13.4366C15.4566 17.9999 17.1 16.4111 17.1 14.4582V7.19484C17.1001 6.7643 16.739 6.41526 16.2937 6.41526Z" fill="white"/>
</g>
<defs>
<clipPath id="clip0_92_340">
<rect width="18" height="18" fill="white"/>
</clipPath>
</defs>
</svg>
