<svg width="56" height="56" viewBox="0 0 56 56" fill="none" xmlns="http://www.w3.org/2000/svg">
<path d="M44.3337 7H11.667C8.36717 7 6.71725 7 5.69212 7.9618C4.66699 8.9236 4.66699 10.4716 4.66699 13.5675V15.1771C4.66699 17.5987 4.66699 18.8096 5.27273 19.8133C5.87846 20.8171 6.98509 21.44 9.19837 22.6859L15.9954 26.5123C17.4804 27.3481 18.2229 27.7662 18.7545 28.2277C19.8616 29.1888 20.5432 30.3182 20.852 31.7035C21.0003 32.3685 21.0003 33.1469 21.0003 34.7034V40.9323C21.0003 43.0547 21.0003 44.1156 21.5881 44.943C22.176 45.7702 23.22 46.1783 25.3081 46.9947C29.6915 48.7083 31.8832 49.5651 33.4419 48.5903C35.0003 47.6154 35.0003 45.3878 35.0003 40.9323V34.7034C35.0003 33.1469 35.0003 32.3685 35.1487 31.7035C35.4574 30.3182 36.139 29.1888 37.2462 28.2277C37.7777 27.7662 38.5202 27.3481 40.0053 26.5123L46.8023 22.6859C49.0155 21.44 50.1222 20.8171 50.7279 19.8133C51.3337 18.8096 51.3337 17.5987 51.3337 15.1771V13.5675C51.3337 10.4716 51.3337 8.9236 50.3086 7.9618C49.2834 7 47.6335 7 44.3337 7Z" stroke="white" stroke-width="3.5"/>
</svg>
