<svg width="247" height="55" viewBox="0 0 247 55" fill="none" xmlns="http://www.w3.org/2000/svg">
<path d="M8.57867 40.6724V43.3579H5.79992V49.9971H3.00253V43.3579H0.186493V40.6724H8.57867ZM21.73 50.2582C18.9886 50.2582 16.788 48.1135 16.788 45.3348C16.788 42.556 18.9886 40.4113 21.73 40.4113C24.4715 40.4113 26.6721 42.556 26.6721 45.3348C26.6721 48.1135 24.4715 50.2582 21.73 50.2582ZM21.73 47.5354C22.9422 47.5354 23.8747 46.6589 23.8747 45.3348C23.8747 44.0107 22.9422 43.1341 21.73 43.1341C20.5178 43.1341 19.5854 44.0107 19.5854 45.3348C19.5854 46.6589 20.5178 47.5354 21.73 47.5354ZM41.6632 40.4113C44.1063 40.4113 46.1204 42.556 46.1204 45.3348C46.1204 48.1135 44.1063 50.2582 41.6632 50.2582C40.4137 50.2582 39.4999 49.8292 38.8845 49.1206V53.7269H36.0871V40.6724H38.8845V41.5489C39.4999 40.8403 40.4137 40.4113 41.6632 40.4113ZM41.1037 47.61C42.3905 47.61 43.323 46.7334 43.323 45.3348C43.323 43.9361 42.3905 43.0595 41.1037 43.0595C39.8169 43.0595 38.8845 43.9361 38.8845 45.3348C38.8845 46.7334 39.8169 47.61 41.1037 47.61ZM62.0664 40.6724V43.3579H58.3365V49.9971H55.5391V40.6724H62.0664ZM75.2236 50.2582C72.4821 50.2582 70.2815 48.1135 70.2815 45.3348C70.2815 42.556 72.4821 40.4113 75.2236 40.4113C77.965 40.4113 80.1656 42.556 80.1656 45.3348C80.1656 48.1135 77.965 50.2582 75.2236 50.2582ZM75.2236 47.5354C76.4358 47.5354 77.3683 46.6589 77.3683 45.3348C77.3683 44.0107 76.4358 43.1341 75.2236 43.1341C74.0114 43.1341 73.0789 44.0107 73.0789 45.3348C73.0789 46.6589 74.0114 47.5354 75.2236 47.5354ZM96.5368 45.2229C97.3387 45.6518 97.7863 46.3791 97.7863 47.3302C97.7863 48.8781 96.686 49.9971 94.6159 49.9971H89.5806V40.6724H94.2429C96.313 40.6724 97.4133 41.7914 97.4133 43.3393C97.4133 44.1412 97.1149 44.7939 96.5368 45.2229ZM93.9445 42.9103H92.1915V44.2158H93.9445C94.4481 44.2158 94.7651 44.0293 94.7651 43.5817C94.7651 43.1155 94.4481 42.9103 93.9445 42.9103ZM94.2429 47.6846C94.7278 47.6846 95.0635 47.4608 95.0635 46.9945C95.0635 46.547 94.7278 46.3418 94.2429 46.3418H92.1915V47.6846H94.2429ZM111.375 43.4698C113.632 43.4698 115.03 44.7753 115.03 46.7334C115.03 48.6916 113.632 49.9971 111.375 49.9971H107.011V40.6724H109.809V43.4698H111.375ZM115.963 40.6724H118.76V49.9971H115.963V40.6724ZM111.394 47.5727C111.953 47.5727 112.308 47.2183 112.308 46.7334C112.308 46.2486 111.953 45.8942 111.394 45.8942H109.809V47.5727H111.394ZM130.234 39.5721V37.1477H135.829V39.5721H130.234ZM135.362 40.6724H137.414V49.9971H134.691V45.3348L130.7 49.9971H128.649V40.6724H131.371V45.3348L135.362 40.6724ZM168.187 47.3862H169.772V52.4961H167.049V49.9971H159.794V40.6724H162.592V47.3862H165.389V40.6724H168.187V47.3862ZM181.144 46.4537C181.499 47.4235 182.357 47.7592 183.382 47.7592C184.147 47.7592 184.8 47.4608 185.173 47.0505L187.411 48.3373C186.497 49.6054 185.117 50.2582 183.345 50.2582C180.156 50.2582 178.179 48.1135 178.179 45.3348C178.179 42.556 180.193 40.4113 183.14 40.4113C185.863 40.4113 187.877 42.5187 187.877 45.3348C187.877 45.7264 187.84 46.0994 187.765 46.4537H181.144ZM181.089 44.365H185.098C184.8 43.2833 183.961 42.8917 183.121 42.8917C182.058 42.8917 181.35 43.4139 181.089 44.365ZM203.264 40.6724H206.061V49.9971H203.264V46.6402H200.094V49.9971H197.296V40.6724H200.094V44.0293H203.264V40.6724ZM223.5 40.6724V43.3579H220.721V49.9971H217.924V43.3579H215.108V40.6724H223.5ZM238.116 40.4113C240.559 40.4113 242.573 42.556 242.573 45.3348C242.573 48.1135 240.559 50.2582 238.116 50.2582C236.866 50.2582 235.952 49.8292 235.337 49.1206V53.7269H232.54V40.6724H235.337V41.5489C235.952 40.8403 236.866 40.4113 238.116 40.4113ZM237.556 47.61C238.843 47.61 239.776 46.7334 239.776 45.3348C239.776 43.9361 238.843 43.0595 237.556 43.0595C236.27 43.0595 235.337 43.9361 235.337 45.3348C235.337 46.7334 236.27 47.61 237.556 47.61Z" fill="white"/>
<path d="M13.5448 29V17.5622L5.41792 29H1.80597V7.93032H6.6219V19.3681L14.7488 7.93032H18.3607V29H13.5448ZM33.2647 18.104C35.0406 19.0973 36.1241 20.7828 36.1241 23.0403C36.1241 26.9833 32.753 29.4214 28.3284 29.4214C23.994 29.4214 21.556 27.4047 20.3219 24.4249L24.4756 22.047C25.0174 23.6724 26.0709 24.9065 28.3284 24.9065C30.345 24.9065 31.3082 24.0637 31.3082 22.6791C31.3082 21.2945 30.3149 20.4517 28.2983 20.4517H25.6194V16.1776H27.6963C29.5925 16.1776 30.5557 15.395 30.5557 14.1007C30.5557 12.8064 29.8333 12.0239 28.1177 12.0239C26.2515 12.0239 25.3184 13.1375 24.7766 14.4318L20.653 12.054C21.9473 9.4654 24.2047 7.50893 28.1177 7.50893C32.3015 7.50893 35.3717 9.88679 35.3717 13.7395C35.3717 15.6358 34.5891 17.0806 33.2647 18.104ZM59.5889 7.93032V29H54.7729V16.7495L49.3249 25.6891H48.7831L43.3351 16.7495V29H38.5192V7.93032H43.3351L49.054 17.2913L54.7729 7.93032H59.5889ZM76.6045 29L75.551 25.6891H67.7251L66.6716 29H61.4042L68.5679 7.93032H74.7082L81.8719 29H76.6045ZM69.1699 21.1741H74.1062L71.6381 13.4385L69.1699 21.1741ZM87.4309 6.15445V2.24151H96.4608V6.15445H87.4309ZM95.4073 29V17.5622L87.2804 29H83.6685V7.93032H88.4844V19.3681L96.6113 7.93032H100.223V29H95.4073ZM102.328 29V24.4851C104.495 24.8162 105.819 24.154 105.819 20.6323V7.93032H120.388V29H115.572V12.5657H110.635V20.4517C110.635 27.9766 106.211 29.4214 102.328 29ZM134.05 29.4214C128 29.4214 123.094 24.6657 123.094 18.4652C123.094 12.2647 128 7.50893 134.05 7.50893C140.1 7.50893 145.007 12.2647 145.007 18.4652C145.007 24.6657 140.1 29.4214 134.05 29.4214ZM134.05 24.7259C137.482 24.7259 140.191 22.2276 140.191 18.4652C140.191 14.7027 137.482 12.2045 134.05 12.2045C130.619 12.2045 127.91 14.7027 127.91 18.4652C127.91 22.2276 130.619 24.7259 134.05 24.7259ZM160.781 18.0739C162.347 19.0672 163.37 20.6925 163.37 22.8296C163.37 26.5619 160.33 29 156.567 29H147.718V7.93032H155.965C159.638 7.93032 162.617 10.3082 162.617 13.9502C162.617 15.696 161.925 17.0806 160.781 18.0739ZM155.965 12.4453H152.534V16.1776H155.965C157.049 16.1776 157.802 15.395 157.802 14.3114C157.802 13.2278 157.079 12.4453 155.965 12.4453ZM156.567 24.4851C157.771 24.4851 158.554 23.6423 158.554 22.4684C158.554 21.2945 157.771 20.4517 156.567 20.4517H152.534V24.4851H156.567ZM175.819 29.4214C169.468 29.4214 164.863 24.6657 164.863 18.4652C164.863 12.2647 169.468 7.50893 175.819 7.50893C179.642 7.50893 183.013 9.4052 184.849 12.3851L180.696 14.793C179.762 13.1676 177.956 12.2045 175.819 12.2045C172.087 12.2045 169.679 14.7027 169.679 18.4652C169.679 22.2276 172.087 24.7259 175.819 24.7259C177.956 24.7259 179.793 23.7627 180.696 22.1373L184.849 24.5453C183.043 27.5251 179.672 29.4214 175.819 29.4214ZM204.143 29H198.664L191.922 19.2478V29H187.106V7.93032H191.922V17.0806L198.363 7.93032H203.842L196.738 18.1943L204.143 29ZM217.687 29V17.5622L209.56 29H205.948V7.93032H210.764V19.3681L218.891 7.93032H222.503V29H217.687ZM229.875 6.15445V2.24151H238.904V6.15445H229.875ZM237.851 29V17.5622L229.724 29H226.112V7.93032H230.928V19.3681L239.055 7.93032H242.667V29H237.851Z" fill="#FD4242"/>
</svg>
