<svg width="980" height="525" viewBox="0 0 980 525" fill="none" xmlns="http://www.w3.org/2000/svg">
<g clip-path="url(#clip0_103_1458)">
<rect width="980" height="525" fill="#0E131B"/>
<rect x="152" width="164" height="99" fill="#404957"/>
<rect x="152" y="132" width="166" height="46" fill="#404957"/>
<rect x="152" y="181" width="166" height="38" fill="#404957"/>
<rect x="152" y="222" width="81" height="37" fill="#404957"/>
<rect x="236" y="222" width="82" height="37" fill="#404957"/>
<rect x="152" y="262" width="166" height="24" fill="#404957"/>
<rect x="152" y="289" width="166" height="23" fill="#404957"/>
<rect x="152" y="315" width="166" height="24" fill="#404957"/>
<rect x="152" y="342" width="166" height="23" fill="#404957"/>
<rect x="152" y="368" width="60" height="41" fill="#404957"/>
<rect x="278" y="368" width="40" height="50" fill="#404957"/>
<rect x="428.343" y="380.523" width="20.3488" height="22.3837" fill="#404957"/>
<rect x="429.36" y="308.285" width="42.7326" height="52.907" fill="#404957"/>
<rect x="475.146" y="308.285" width="42.7326" height="52.907" fill="#404957"/>
<rect x="520.93" y="308.285" width="42.7326" height="52.907" fill="#404957"/>
<rect x="429.36" y="243.169" width="133.285" height="62.064" fill="#404957"/>
<rect x="429.36" y="164.826" width="133.285" height="75.2907" fill="#404957"/>
<rect x="429.36" y="126.163" width="87.5" height="35.6105" fill="#404957"/>
<rect x="429.36" y="87.5" width="87.5" height="35.6105" fill="#404957"/>
<rect x="520.413" y="88" width="41.7326" height="73.2733" fill="#5A6D8D" stroke="#2A3F64"/>
<rect x="565.698" y="87.5" width="36.6279" height="36.6279" fill="#404957"/>
<rect x="605.378" y="87.5" width="36.6279" height="36.6279" fill="#404957"/>
<rect x="565.698" y="127.18" width="76.3081" height="36.6279" fill="#404957"/>
<rect x="566" y="167" width="76.3081" height="36.6279" fill="#404957"/>
<rect x="565.698" y="206.541" width="76.3081" height="36.6279" fill="#404957"/>
<rect x="565.698" y="246.221" width="76.3081" height="36.6279" fill="#404957"/>
<rect x="565.698" y="285.901" width="76.3081" height="36.6279" fill="#404957"/>
<rect x="565.698" y="325.582" width="76.3081" height="35.6105" fill="#404957"/>
<rect x="644.041" y="300.146" width="22.3837" height="42.7326" fill="#404957"/>
<rect x="570" width="71" height="38" fill="#404957"/>
<rect x="496" width="71" height="38" fill="#404957"/>
<rect x="422" width="71" height="38" fill="#404957"/>
<rect x="477.18" y="380.523" width="20.3488" height="22.3837" fill="#404957"/>
<rect x="452.762" y="380.523" width="20.3488" height="22.3837" fill="#404957"/>
<rect x="501.599" y="380.523" width="20.3488" height="22.3837" fill="#404957"/>
<rect x="541.279" y="380.523" width="77.3256" height="24.4186" fill="#404957"/>
<rect x="541.279" y="418.169" width="32.5581" height="24.4186" fill="#404957"/>
<rect x="586.046" y="418.169" width="32.5581" height="24.4186" fill="#404957"/>
<rect x="677.616" y="89.5352" width="22.3837" height="42.7326" fill="#404957"/>
<rect x="677.616" y="43.75" width="22.3837" height="42.7326" fill="#404957"/>
<rect x="428.343" y="471.076" width="226.89" height="53.9244" fill="#404957"/>
<rect x="658.285" y="471.076" width="40.6977" height="53.9244" fill="#404957"/>
<rect x="702" y="386" width="59" height="139" fill="#404957"/>
<rect x="808" y="443" width="172" height="82" fill="#404957"/>
<path d="M763.97 382.576L702 382.576V-0.565601L988 -1V439.848H804.95V525H763.97V382.576Z" fill="#404957"/>
<rect x="476.163" y="418.169" width="40.6977" height="24.4186" fill="#404957"/>
<rect x="321.512" y="312.355" width="22.3837" height="28.4884" fill="#404957"/>
<rect x="321.512" y="278.779" width="22.3837" height="28.4884" fill="#404957"/>
<rect x="321.512" y="246.221" width="22.3837" height="28.4884" fill="#404957"/>
<rect x="321.512" y="213.663" width="22.3837" height="28.4884" fill="#404957"/>
<rect x="321.512" y="181.105" width="22.3837" height="28.4884" fill="#404957"/>
<rect x="212.645" y="423.256" width="19.3314" height="13.2267" fill="#404957"/>
<rect x="212.645" y="447.675" width="26.4535" height="35.6105" fill="#404957"/>
<rect y="418.169" width="207.558" height="107.849" fill="#404957"/>
</g>

<defs>
<clipPath id="clip0_103_1458">
<rect width="980" height="525" fill="white"/>
</clipPath>
<clipPath id="clip1_103_1458">
<rect width="150" height="414.238" fill="white" transform="translate(1 1)"/>
</clipPath>
</defs>
</svg>
