<svg width="20" height="20" viewBox="0 0 20 20" fill="none" xmlns="http://www.w3.org/2000/svg">
<path d="M9.75032 17.8759C9.56072 17.8759 9.39821 17.8217 9.26279 17.7134C9.12737 17.6051 9.0258 17.4629 8.95808 17.2868C8.70078 16.5284 8.37576 15.8175 7.98303 15.1539C7.60384 14.4903 7.06892 13.7116 6.37825 12.8178C5.68759 11.924 5.12558 11.0708 4.69222 10.2583C4.27241 9.44575 4.0625 8.46392 4.0625 7.31281C4.0625 5.72835 4.61097 4.38765 5.7079 3.29072C6.81838 2.18024 8.16585 1.625 9.75032 1.625C11.3348 1.625 12.6755 2.18024 13.7724 3.29072C14.8829 4.38765 15.4381 5.72835 15.4381 7.31281C15.4381 8.54517 15.2011 9.5744 14.7272 10.4005C14.2667 11.213 13.7318 12.0188 13.1224 12.8178C12.3911 13.7929 11.8358 14.6054 11.4567 15.2554C11.091 15.8919 10.7863 16.5691 10.5425 17.2868C10.4748 17.4764 10.3665 17.6254 10.2175 17.7337C10.0821 17.8285 9.92637 17.8759 9.75032 17.8759ZM9.75032 14.9711C9.98054 14.5106 10.2378 14.0569 10.5222 13.61C10.8202 13.1631 11.2535 12.5673 11.8223 11.8224C12.4046 11.0641 12.8786 10.3666 13.2443 9.73014C13.6234 9.0801 13.813 8.27433 13.813 7.31281C13.813 6.18879 13.4135 5.23405 12.6145 4.44859C11.8291 3.64959 10.8743 3.25009 9.75032 3.25009C8.6263 3.25009 7.66478 3.64959 6.86578 4.44859C6.08032 5.23405 5.68759 6.18879 5.68759 7.31281C5.68759 8.27433 5.87041 9.0801 6.23606 9.73014C6.61525 10.3666 7.096 11.0641 7.67833 11.8224C8.24711 12.5673 8.67369 13.1631 8.95808 13.61C9.25602 14.0569 9.5201 14.5106 9.75032 14.9711ZM9.75032 9.34418C10.3191 9.34418 10.7999 9.14781 11.1926 8.75508C11.5853 8.36235 11.7817 7.8816 11.7817 7.31281C11.7817 6.74403 11.5853 6.26328 11.1926 5.87055C10.7999 5.47782 10.3191 5.28145 9.75032 5.28145C9.18153 5.28145 8.70078 5.47782 8.30805 5.87055C7.91532 6.26328 7.71895 6.74403 7.71895 7.31281C7.71895 7.8816 7.91532 8.36235 8.30805 8.75508C8.70078 9.14781 9.18153 9.34418 9.75032 9.34418Z" fill="#CECECE"/>
</svg>
