<svg width="1036" height="594" viewBox="0 0 1036 594" fill="none" xmlns="http://www.w3.org/2000/svg">
<g clip-path="url(#clip0_447_500)">
<g clip-path="url(#clip1_447_500)">
<path d="M701.881 228.603C696.258 189.1 675.505 154.264 643.443 130.509C608.475 104.603 566.989 90.9082 523.47 90.9082C479.951 90.9082 438.464 104.603 403.497 130.51C371.437 154.264 350.683 189.1 345.059 228.603C339.436 268.106 349.644 307.35 373.802 339.105L461.587 454.501C464.58 458.435 469.239 460.744 474.182 460.744H572.759C577.702 460.744 582.361 458.435 585.354 454.501L673.14 339.105C697.296 307.35 707.504 268.106 701.881 228.603Z" fill="#1B2028"/>
<path d="M564.143 510.944C563.251 510.944 562.349 510.868 561.44 510.712C552.827 509.231 547.045 501.045 548.527 492.433L557.162 442.238C558.644 433.624 566.833 427.843 575.441 429.324C584.054 430.805 589.837 438.991 588.355 447.603L579.719 497.798C578.394 505.505 571.705 510.944 564.143 510.944Z" fill="#A2B3BF"/>
<path d="M523.47 511.785C514.73 511.785 507.645 504.7 507.645 495.959V487.3C507.645 478.559 514.73 471.474 523.47 471.474C532.21 471.474 539.296 478.559 539.296 487.3V495.959C539.296 504.699 532.21 511.785 523.47 511.785Z" fill="#0B51B4"/>
<path d="M482.799 510.944C475.237 510.944 468.548 505.505 467.221 497.799L458.587 447.604C457.105 438.99 462.887 430.807 471.501 429.325C480.117 427.845 488.298 433.626 489.78 442.239L498.414 492.434C499.896 501.048 494.114 509.231 485.5 510.713C484.594 510.868 483.69 510.944 482.799 510.944Z" fill="#C9D2D9"/>
<path d="M564.124 489.841H482.818C474.077 489.841 466.992 496.926 466.992 505.666V578.574C466.992 587.315 474.077 594.4 482.818 594.4H564.124C572.864 594.4 579.949 587.315 579.949 578.574V505.666C579.948 496.927 572.863 489.841 564.124 489.841Z" fill="#3D4251"/>
<path d="M523.47 511.785C514.73 511.785 507.645 504.7 507.645 495.959V487.3C507.645 478.559 514.73 471.474 523.47 471.474V511.785Z" fill="#1B68D6"/>
<path d="M523.47 489.841H482.818C474.077 489.841 466.992 496.926 466.992 505.666V578.574C466.992 587.315 474.077 594.4 482.818 594.4H523.47V489.841Z" fill="#63697D"/>
<path d="M469.074 156.14L485.437 94.4867C455.939 100.106 428.102 112.28 403.497 130.51C371.437 154.264 350.683 189.1 345.059 228.603C339.436 268.106 349.644 307.349 373.802 339.105L461.587 454.501C464.58 458.435 469.239 460.744 474.182 460.744H498.033L475.836 392.974C450.738 316.344 448.388 234.079 469.074 156.14Z" fill="#FD4242"/>
<path d="M701.881 228.603C696.258 189.1 675.505 154.264 643.443 130.509C618.778 112.235 590.865 100.047 561.288 94.4454L577.689 155.829C598.565 233.962 596.277 316.477 571.103 393.334L549.023 460.745H572.756C577.7 460.745 582.359 458.436 585.352 454.502L673.137 339.106C697.296 307.35 707.504 268.106 701.881 228.603Z" fill="#D61D1D"/>
<path d="M523.471 90.9082C523.471 90.9082 497.86 92.1207 485.437 94.4867L469.073 156.14C448.387 234.079 450.737 316.345 475.836 392.977L498.033 460.746H523.47L523.471 90.9082Z" fill="#323842"/>
</g>
<path d="M297.879 299.135V362.812H267.762V411H198.061V362.812H61.2418V299.135L157.187 109.825H231.19L135.245 299.135H198.061V234.598H267.762V299.135H297.879Z" fill="#ECEEF3"/>
<path d="M990.68 299.135V362.812H960.563V411H890.862V362.812H754.043V299.135L849.989 109.825H923.992L828.046 299.135H890.862V234.598H960.563V299.135H990.68Z" fill="#ECEEF3"/>
<path d="M80.8328 68.3544C82.4759 68.108 83.7226 66.8381 83.9826 65.2521C88.1689 39.7184 106.012 17.2966 132.27 8.50602L132.299 8.49638C133.455 8.10992 134.382 7.1976 134.713 6.02515C135.323 3.87069 134.014 1.81392 132.008 1.32789C123.649 -0.697756 114.638 -0.471543 105.88 2.46051C89.4427 7.96336 78.0326 21.6102 74.639 37.4028C74.4149 38.4455 73.8298 39.4001 72.9212 39.9596C71.4852 40.8436 69.7001 40.6597 68.482 39.6008C56.2471 28.9647 38.8566 24.8988 22.3683 30.4188C13.6531 33.3365 6.35247 38.5441 0.910373 45.1469C-0.0741745 46.3414 -0.303965 48.027 0.437093 49.3858C1.31422 50.9939 3.20267 51.7167 4.90368 51.1457C4.91862 51.1408 4.93357 51.1358 4.94882 51.1308C31.1657 42.3539 58.8788 49.4733 77.6111 67.2728C78.4735 68.0924 79.6558 68.5308 80.8328 68.3544Z" fill="#212A37"/>
<path d="M113.284 562.047C114.913 562.377 116.519 561.61 117.306 560.209C129.979 537.646 154.42 522.675 182.102 523.389L182.133 523.39C183.351 523.422 184.535 522.881 185.248 521.893C186.558 520.076 186.032 517.697 184.313 516.554C177.152 511.794 168.606 508.926 159.373 508.688C142.044 508.241 126.651 517.165 118.057 530.845C117.49 531.748 116.613 532.446 115.568 532.661C113.916 533.001 112.302 532.218 111.519 530.806C103.663 516.63 88.7123 506.865 71.3292 506.417C62.141 506.18 53.4983 508.578 46.1246 512.923C44.7906 513.709 43.9978 515.214 44.2291 516.744C44.503 518.555 46.0302 519.88 47.824 519.925C47.8398 519.925 47.8555 519.925 47.8715 519.926C75.5113 520.639 99.1164 536.801 110.627 559.93C111.157 560.995 112.118 561.811 113.284 562.047Z" fill="#212A37"/>
<path d="M786.509 517.626C787.996 518.366 789.746 518.041 790.87 516.89C808.954 498.374 836.44 490.235 862.994 498.084L863.023 498.093C864.192 498.439 865.475 498.223 866.42 497.453C868.156 496.037 868.264 493.603 866.9 492.054C861.215 485.604 853.704 480.624 844.847 478.006C828.224 473.092 811.045 477.731 799.2 488.722C798.418 489.447 797.391 489.894 796.326 489.832C794.642 489.733 793.285 488.559 792.895 486.993C788.978 471.268 777.066 457.969 760.391 453.04C751.577 450.434 742.608 450.516 734.36 452.805C732.868 453.219 731.713 454.468 731.54 456.006C731.335 457.826 732.467 459.5 734.188 460.008C734.204 460.012 734.219 460.017 734.234 460.021C760.747 467.859 779.362 489.576 784.491 514.894C784.727 516.059 785.443 517.096 786.509 517.626Z" fill="#212A37"/>
<path d="M707.088 111.932C708.739 112.119 710.272 111.215 710.934 109.75C721.591 86.1695 744.633 69.1268 772.273 67.4271L772.303 67.4252C773.52 67.351 774.651 66.7095 775.275 65.6628C776.422 63.7393 775.691 61.4142 773.879 60.4258C766.329 56.3072 757.567 54.195 748.348 54.762C731.045 55.8259 716.49 66.0566 709.122 80.4333C708.635 81.3825 707.823 82.1533 706.8 82.4587C705.184 82.9412 703.507 82.3018 702.605 80.964C693.542 67.5258 677.797 59.1005 660.441 60.1678C651.267 60.7319 642.866 63.8738 635.9 68.844C634.639 69.7432 633.981 71.3119 634.344 72.8161C634.775 74.5962 636.412 75.7829 638.203 75.6713C638.219 75.6704 638.235 75.6694 638.251 75.6686C665.847 73.9716 690.772 88.0162 704.256 110.054C704.877 111.069 705.905 111.798 707.088 111.932Z" fill="#212A37"/>
</g>
<defs>
<clipPath id="clip0_447_500">
<rect width="1036" height="594" fill="white"/>
</clipPath>
<clipPath id="clip1_447_500">
<rect width="503.491" height="503.491" fill="white" transform="translate(271.725 90.9082)"/>
</clipPath>
</defs>
</svg>
