<svg width="20" height="20" viewBox="0 0 20 20" fill="none" xmlns="http://www.w3.org/2000/svg">
<path d="M17.8768 13.7483V16.1859C17.8777 16.4122 17.8314 16.6362 17.7407 16.8435C17.65 17.0509 17.5171 17.237 17.3503 17.39C17.1836 17.543 16.9867 17.6594 16.7723 17.7319C16.558 17.8044 16.3308 17.8313 16.1054 17.811C13.6051 17.5393 11.2034 16.6849 9.09318 15.3165C7.12993 14.0689 5.46544 12.4044 4.21791 10.4412C2.84469 8.32143 1.9901 5.908 1.72339 3.39643C1.70309 3.17173 1.72979 2.94527 1.8018 2.73146C1.87382 2.51765 1.98956 2.32118 2.14166 2.15455C2.29377 1.98792 2.4789 1.85479 2.68528 1.76364C2.89165 1.67248 3.11475 1.62529 3.34036 1.62508H5.77799C6.17233 1.6212 6.55462 1.76084 6.85361 2.01797C7.1526 2.2751 7.34789 2.63219 7.40308 3.02266C7.50597 3.80275 7.69678 4.56871 7.97186 5.30591C8.08119 5.59674 8.10485 5.91281 8.04004 6.21667C7.97524 6.52054 7.82468 6.79946 7.60622 7.02038L6.57429 8.05231C7.73099 10.0866 9.41531 11.7709 11.4496 12.9276L12.4815 11.8957C12.7024 11.6772 12.9813 11.5266 13.2852 11.4618C13.5891 11.397 13.9051 11.4207 14.196 11.53C14.9332 11.8051 15.6991 11.9959 16.4792 12.0988C16.8739 12.1545 17.2344 12.3533 17.4921 12.6574C17.7498 12.9615 17.8867 13.3498 17.8768 13.7483Z" stroke="#CECECE" stroke-width="1.62509" stroke-linecap="round" stroke-linejoin="round"/>
</svg>
