<svg width="232" height="156" viewBox="0 0 232 156" fill="none" xmlns="http://www.w3.org/2000/svg">
<path d="M61.4844 73.0938C61.3984 73.0938 61.1953 73.082 60.875 73.0586C60.5625 73.0352 60.168 72.8164 59.6914 72.4023C59.5039 72.2305 59.2969 72.0742 59.0703 71.9336C58.9062 71.8242 58.7422 71.707 58.5781 71.582C58.4219 71.457 58.3086 71.2969 58.2383 71.1016C57.8008 70.4297 57.4102 69.6602 57.0664 68.793C56.7617 68.2539 56.6094 67.6992 56.6094 67.1289C56.6094 66.7539 56.6016 66.3516 56.5859 65.9219C56.6484 65.6562 56.7188 65.0508 56.7969 64.1055C56.7969 63.2305 56.8906 62.4297 57.0781 61.7031C57.2812 60.375 57.8203 59.168 58.6953 58.082C59.3281 57.2617 60.1094 56.6367 61.0391 56.207C61.2812 56.1211 61.5195 56.0781 61.7539 56.0781C62.0977 56.0781 62.5352 56.1758 63.0664 56.3711C63.3945 56.4961 63.6992 56.6445 63.9805 56.8164C64.1758 56.9258 64.375 57.0312 64.5781 57.1328C65.5391 57.6406 66.3164 58.3477 66.9102 59.2539C67.0039 59.3945 67.0586 59.5625 67.0742 59.7578L67.1211 59.9922C66.6133 60.4375 66.1484 60.9336 65.7266 61.4805C65.4062 61.8711 65.0508 62.1836 64.6602 62.418L64.3438 61.8438C64.1953 61.4297 63.918 60.9844 63.5117 60.5078C63.2227 60.1016 62.9531 59.8984 62.7031 59.8984H61.8008C61.7227 59.8984 61.4102 60.0547 60.8633 60.3672C60.2383 61.0234 59.9258 61.8086 59.9258 62.7227C59.9258 63.0664 59.8945 63.375 59.832 63.6484C59.7695 63.9219 59.7344 64.1992 59.7266 64.4805C59.7422 65.2617 59.8516 66.0234 60.0547 66.7656C60.2734 67.4688 60.5703 67.8711 60.9453 67.9727C61.0469 67.9961 61.1562 68.0078 61.2734 68.0078C62.1641 68.0078 62.8672 67.6797 63.3828 67.0234C63.4766 66.875 63.5742 66.7344 63.6758 66.6016C63.7617 66.5078 63.8594 66.3711 63.9688 66.1914L66.6875 68.6055C66.875 68.7461 66.9688 68.918 66.9688 69.1211C66.9688 69.2383 66.9375 69.3633 66.875 69.4961C65.9688 71.2383 64.6016 72.3711 62.7734 72.8945C62.3594 73.0273 61.9297 73.0938 61.4844 73.0938ZM70.9414 61.4805C71.3477 61.4727 71.7539 61.4336 72.1602 61.3633C72.9805 61.2305 73.3945 60.6836 73.4023 59.7227C73.4023 59.4258 73.3281 59.1562 73.1797 58.9141C73.0391 58.6641 72.8398 58.5195 72.582 58.4805C72.332 58.4336 72.0742 58.4102 71.8086 58.4102C71.5508 58.4102 71.2891 58.4297 71.0234 58.4688C70.9375 58.4922 70.8555 58.5625 70.7773 58.6797C70.707 58.7891 70.6641 58.9023 70.6484 59.0195C70.6406 59.168 70.6367 59.3164 70.6367 59.4648L70.6836 60.4141H70.6719C70.6719 60.4922 70.668 60.5664 70.6602 60.6367C70.6523 60.707 70.6484 60.7773 70.6484 60.8477C70.6484 60.9805 70.6602 61.1094 70.6836 61.2344C70.6914 61.2891 70.7227 61.3438 70.7773 61.3984C70.8398 61.4531 70.8945 61.4805 70.9414 61.4805ZM71.0234 70.3516C71.3359 70.3125 71.6484 70.2812 71.9609 70.2578C72.4609 70.2266 72.9531 70.1602 73.4375 70.0586C73.9297 69.957 74.3906 69.7422 74.8203 69.4141C75.3672 69 75.6406 68.5039 75.6406 67.9258C75.6406 67.7852 75.6211 67.6367 75.582 67.4805C75.1523 66.2227 74.2266 65.5586 72.8047 65.4883L72.3477 65.5352C72.0039 65.543 71.6562 65.5742 71.3047 65.6289C70.9062 65.668 70.707 65.8789 70.707 66.2617V66.2969C70.7383 67.0547 70.7578 67.8086 70.7656 68.5586C70.7812 69.5898 70.8086 70.1367 70.8477 70.1992C70.9102 70.3008 70.9688 70.3516 71.0234 70.3516ZM70.25 73.082H69.8164C69.4414 73.0586 69.0703 72.9688 68.7031 72.8125L68.457 72.7305C68.3555 72.6758 68.3047 72.5508 68.3047 72.3555V70.3516C68.3047 67.4375 68.3359 65.2539 68.3984 63.8008C68.4375 62.7852 68.457 61.7695 68.457 60.7539C68.457 59.5977 68.4336 58.2812 68.3867 56.8047L68.3984 56.0898C70.6016 56.0898 72.3086 56.1055 73.5195 56.1367C73.957 56.1758 74.3711 56.3008 74.7617 56.5117C75.1602 56.7148 75.4219 56.9922 75.5469 57.3438C75.7109 57.8281 75.7969 58.4062 75.8047 59.0781L75.793 59.5L75.8047 59.7461C75.8281 59.9102 75.8398 60.0703 75.8398 60.2266C75.8398 61.2109 75.4258 62.0117 74.5977 62.6289L76.2148 63.2266C76.6289 63.4062 76.9688 63.6602 77.2344 63.9883C77.5 64.3164 77.7383 64.6641 77.9492 65.0312L78.043 65.1836C78.2383 65.5352 78.3438 65.9062 78.3594 66.2969L78.3711 66.6367C78.3711 66.9258 78.3555 67.2109 78.3242 67.4922C78.3086 67.6328 78.2969 67.7695 78.2891 67.9023C78.2812 68.0352 78.2695 68.1641 78.2539 68.2891C78.2227 68.4766 78.207 68.6641 78.207 68.8516C78.1289 70.6172 77.3516 71.9375 75.875 72.8125C75.6562 72.9531 75.3125 73.0234 74.8438 73.0234L74.0352 73C73.793 73 73.5547 73.0039 73.3203 73.0117C72.2969 73.0586 71.2734 73.082 70.25 73.082ZM86.3984 69.6484C86.7734 69.5781 87.1758 69.3125 87.6055 68.8516C88.0352 68.3906 88.4766 67.9219 88.9297 67.4453C89.1094 67.2109 89.2305 66.9336 89.293 66.6133C89.3711 66.332 89.4727 66.0508 89.5977 65.7695C89.8164 65.2852 89.9258 64.8672 89.9258 64.5156C89.9258 64.2031 89.75 63.6406 89.3984 62.8281C89.0547 62.0078 88.457 61.1836 87.6055 60.3555C87.2695 60.0039 86.8984 59.8281 86.4922 59.8281C86.0781 59.8281 85.7109 59.9414 85.3906 60.168C84.3984 60.8789 83.7266 61.8164 83.375 62.9805L83.0586 63.8945C83.043 64.1602 83.0273 64.3906 83.0117 64.5859C83.0273 66.4922 83.7734 68.0469 85.25 69.25C85.3984 69.3516 85.5703 69.4258 85.7656 69.4727L85.8945 69.5195C86.0508 69.5664 86.2188 69.6094 86.3984 69.6484ZM86.5742 73.2227C86.1289 73.2227 85.7109 73.1445 85.3203 72.9883L84.9219 72.8828H84.9102C84.7148 72.8438 84.5352 72.7656 84.3711 72.6484C84.207 72.5312 84.043 72.4102 83.8789 72.2852C83.1602 71.832 82.4805 71.3164 81.8398 70.7383C81.6211 70.3789 81.3477 70.0508 81.0195 69.7539C80.8633 69.6055 80.6133 69.2305 80.2695 68.6289C79.9258 68.0273 79.7188 67.1797 79.6484 66.0859C79.5859 65.6094 79.5547 65.1406 79.5547 64.6797C79.5547 62.4375 80.3125 60.4102 81.8281 58.5977C82.2266 58.1914 82.6758 57.832 83.1758 57.5195C83.3711 57.3945 83.5586 57.2656 83.7383 57.1328C84.0195 56.9141 84.3164 56.7305 84.6289 56.582L84.8047 56.5117C85.5859 56.1445 86.2188 55.9609 86.7031 55.9609C86.9922 55.9609 87.293 56.0117 87.6055 56.1133C87.8086 56.1836 88.0117 56.2461 88.2148 56.3008C88.6914 56.4258 89.1406 56.5938 89.5625 56.8047C89.9922 57.0156 90.3438 57.3555 90.6172 57.8242C91.0469 58.5977 91.4414 59.3867 91.8008 60.1914C92.7539 62.3711 93.2617 63.8828 93.3242 64.7266C93.3242 65.1016 93.2773 65.4766 93.1836 65.8516L93.1133 66.2148C93.0117 66.7773 92.9258 67.2031 92.8555 67.4922C92.7852 67.7812 92.7344 67.9414 92.7031 67.9727C92.6797 67.9961 92.5273 68.2734 92.2461 68.8047C91.9727 69.3359 91.668 69.8203 91.332 70.2578C90.8086 70.8125 90.2227 71.3125 89.5742 71.7578L88.8008 72.3555C88.7227 72.418 88.6406 72.4766 88.5547 72.5312C88.4297 72.6172 88.3047 72.7148 88.1797 72.8242C88.0625 72.9336 87.9297 73.0078 87.7812 73.0469C87.6406 73.0938 87.4961 73.125 87.3477 73.1406C87.2617 73.1484 87.1719 73.1641 87.0781 73.1875C86.9062 73.2109 86.7383 73.2227 86.5742 73.2227ZM100.098 70.0469C100.598 70.0469 100.918 69.8945 101.059 69.5898C101.199 69.2773 101.32 69.0352 101.422 68.8633C101.609 68.2852 101.703 67.7578 101.703 67.2812C101.703 66.8281 101.543 66.4492 101.223 66.1445C100.91 65.8398 100.535 65.6875 100.098 65.6875C100.027 65.6484 99.8984 65.6289 99.7109 65.6289C99.5312 65.6289 99.293 65.6484 98.9961 65.6875C98.7305 65.6875 98.5586 65.707 98.4805 65.7461C98.2539 65.7461 98.0859 65.8047 97.9766 65.9219C97.7969 66.1016 97.707 67.2695 97.707 69.4258C97.707 69.668 97.6992 69.8555 97.6836 69.9883L99.7812 70C99.8906 70.0312 99.9961 70.0469 100.098 70.0469ZM94.6484 61.6445C94.6406 60.8008 94.6367 59.8594 94.6367 58.8203L94.625 56.6172C94.6328 56.4766 94.668 56.3477 94.7305 56.2305V55.9258C94.8086 55.9023 94.8789 55.875 94.9414 55.8438C95.0586 55.7891 95.168 55.7617 95.2695 55.7617C96.4883 55.7695 97.3438 55.793 97.8359 55.832L98.1875 55.8438C98.5781 55.8438 99.1055 55.832 99.7695 55.8086C101.027 55.8086 102.125 55.793 103.062 55.7617C103.477 55.8008 103.793 55.875 104.012 55.9844C104.137 56.0625 104.203 56.1445 104.211 56.2305C104.227 56.3086 104.234 56.3789 104.234 56.4414C104.234 56.4961 104.23 56.5625 104.223 56.6406C104.215 56.7109 104.211 56.7891 104.211 56.875C104.227 57.5312 104.234 58.1055 104.234 58.5977V59.2539C104.234 59.5352 104.09 59.6758 103.801 59.6758H103.719C102.266 59.6992 101.316 59.7109 100.871 59.7109C100.543 59.7109 99.9648 59.7266 99.1367 59.7578L98.8555 59.7461H97.8828V59.8398C97.8828 60.3711 97.8633 60.8516 97.8242 61.2812L97.7656 62.2422L101.375 62.3359C101.828 62.3594 102.098 62.4062 102.184 62.4766L102.605 62.8633C103.004 63.1836 103.348 63.543 103.637 63.9414L103.648 63.9648C103.938 64.3789 104.207 64.8164 104.457 65.2773C104.715 65.7305 104.844 66.2227 104.844 66.7539L104.832 67.3867V67.5391C104.832 68.4531 104.723 69.3008 104.504 70.082C104.301 70.7773 103.875 71.5117 103.227 72.2852C103.023 72.4414 102.82 72.6016 102.617 72.7656L101.738 72.9531C101.34 73 100.945 73.0234 100.555 73.0234H100.379C98.2852 73.0312 96.4648 73.043 94.918 73.0586C94.8711 73.0586 94.8164 73.0391 94.7539 73C94.6914 72.9531 94.6367 72.9062 94.5898 72.8594C94.543 72.8047 94.5195 72.7539 94.5195 72.707L94.5078 71.582C94.5078 70.2539 94.5234 68.9141 94.5547 67.5625L94.6484 61.6445ZM112.859 69.6484C113.234 69.5781 113.637 69.3125 114.066 68.8516C114.496 68.3906 114.938 67.9219 115.391 67.4453C115.57 67.2109 115.691 66.9336 115.754 66.6133C115.832 66.332 115.934 66.0508 116.059 65.7695C116.277 65.2852 116.387 64.8672 116.387 64.5156C116.387 64.2031 116.211 63.6406 115.859 62.8281C115.516 62.0078 114.918 61.1836 114.066 60.3555C113.73 60.0039 113.359 59.8281 112.953 59.8281C112.539 59.8281 112.172 59.9414 111.852 60.168C110.859 60.8789 110.188 61.8164 109.836 62.9805L109.52 63.8945C109.504 64.1602 109.488 64.3906 109.473 64.5859C109.488 66.4922 110.234 68.0469 111.711 69.25C111.859 69.3516 112.031 69.4258 112.227 69.4727L112.355 69.5195C112.512 69.5664 112.68 69.6094 112.859 69.6484ZM113.035 73.2227C112.59 73.2227 112.172 73.1445 111.781 72.9883L111.383 72.8828H111.371C111.176 72.8438 110.996 72.7656 110.832 72.6484C110.668 72.5312 110.504 72.4102 110.34 72.2852C109.621 71.832 108.941 71.3164 108.301 70.7383C108.082 70.3789 107.809 70.0508 107.48 69.7539C107.324 69.6055 107.074 69.2305 106.73 68.6289C106.387 68.0273 106.18 67.1797 106.109 66.0859C106.047 65.6094 106.016 65.1406 106.016 64.6797C106.016 62.4375 106.773 60.4102 108.289 58.5977C108.688 58.1914 109.137 57.832 109.637 57.5195C109.832 57.3945 110.02 57.2656 110.199 57.1328C110.48 56.9141 110.777 56.7305 111.09 56.582L111.266 56.5117C112.047 56.1445 112.68 55.9609 113.164 55.9609C113.453 55.9609 113.754 56.0117 114.066 56.1133C114.27 56.1836 114.473 56.2461 114.676 56.3008C115.152 56.4258 115.602 56.5938 116.023 56.8047C116.453 57.0156 116.805 57.3555 117.078 57.8242C117.508 58.5977 117.902 59.3867 118.262 60.1914C119.215 62.3711 119.723 63.8828 119.785 64.7266C119.785 65.1016 119.738 65.4766 119.645 65.8516L119.574 66.2148C119.473 66.7773 119.387 67.2031 119.316 67.4922C119.246 67.7812 119.195 67.9414 119.164 67.9727C119.141 67.9961 118.988 68.2734 118.707 68.8047C118.434 69.3359 118.129 69.8203 117.793 70.2578C117.27 70.8125 116.684 71.3125 116.035 71.7578L115.262 72.3555C115.184 72.418 115.102 72.4766 115.016 72.5312C114.891 72.6172 114.766 72.7148 114.641 72.8242C114.523 72.9336 114.391 73.0078 114.242 73.0469C114.102 73.0938 113.957 73.125 113.809 73.1406C113.723 73.1484 113.633 73.1641 113.539 73.1875C113.367 73.2109 113.199 73.2227 113.035 73.2227ZM131.996 69.6016C132.574 69.6172 133.152 69.6562 133.73 69.7188L133.684 71.4883C133.684 73.4648 133.699 74.832 133.73 75.5898C133.762 75.6211 133.777 75.707 133.777 75.8477C133.777 75.918 133.762 75.9961 133.73 76.082C133.707 76.168 133.578 76.2266 133.344 76.2578C132.852 76.3281 132.383 76.3633 131.938 76.3633C131.305 76.3633 130.715 76.3047 130.168 76.1875C130.113 75.7891 130.086 75.3906 130.086 74.9922L130.121 73.5977C130.121 73.4336 130.086 73.3047 130.016 73.2109C129.945 73.1172 129.789 73.0703 129.547 73.0703C128.984 73.0703 128.148 73.0625 127.039 73.0469C126.844 73.0547 126.453 73.0586 125.867 73.0586L124.906 73.0469C124.234 73.0469 123.863 73.0742 123.793 73.1289C123.676 73.2383 123.59 74.1055 123.535 75.7305C123.559 75.8242 123.57 75.9023 123.57 75.9648C123.57 76.0508 123.547 76.1094 123.5 76.1406C123.453 76.1797 123.293 76.1992 123.02 76.1992C121.59 76.1992 120.746 76.1953 120.488 76.1875C120.238 76.1797 120.031 76.043 119.867 75.7773C119.836 75.3086 119.812 74.8398 119.797 74.3711L119.809 71.3359C119.84 71.0703 119.855 70.875 119.855 70.75C119.855 70.6484 119.848 70.5508 119.832 70.457C119.824 70.3633 119.82 70.2734 119.82 70.1875C119.82 69.7656 120.062 69.5547 120.547 69.5547C120.922 69.5547 121.262 69.5664 121.566 69.5898H121.637C121.879 68.7773 122.172 67.7969 122.516 66.6484C122.789 66.0547 123.102 65.1016 123.453 63.7891C123.695 63.0703 124.598 60.6875 126.16 56.6406C126.23 56.5 126.348 56.375 126.512 56.2656C126.574 56.2188 126.633 56.1953 126.688 56.1953H126.711C126.773 56.1953 126.84 56.2227 126.91 56.2773C127.066 56.3945 127.184 56.5273 127.262 56.6758C128.262 59.207 129.004 61.1172 129.488 62.4062C129.973 63.5312 130.324 64.5625 130.543 65.5C130.785 66.2188 131.039 66.9219 131.305 67.6094C131.555 68.2969 131.785 68.9609 131.996 69.6016ZM125.656 69.5547H127.18C127.461 69.5625 127.75 69.5664 128.047 69.5664C127.859 68.5117 127.676 67.4727 127.496 66.4492C127.27 65.168 127.074 64.3633 126.91 64.0352L126.242 66.8242C126.086 67.6133 125.918 68.4023 125.738 69.1914C125.707 69.3086 125.68 69.4297 125.656 69.5547ZM134.926 73.1289C134.559 73.1289 134.375 72.9648 134.375 72.6367V72.5547C134.547 70.7188 134.633 69.4023 134.633 68.6055C134.633 68.3477 134.621 68.0898 134.598 67.832C134.582 67.5039 134.574 67.1797 134.574 66.8594L134.68 62.8164C134.672 62.418 134.656 62.0195 134.633 61.6211C134.609 61.2227 134.598 60.8203 134.598 60.4141C134.605 59.8828 134.621 59.375 134.645 58.8906C134.676 58.4062 134.699 57.9023 134.715 57.3789C134.707 57.1133 134.676 56.8516 134.621 56.5938C134.59 56.4375 134.566 56.2812 134.551 56.125C134.551 56.0625 134.57 55.9453 134.609 55.7734C134.648 55.7812 134.684 55.793 134.715 55.8086L134.926 55.7969C135.004 55.7969 135.059 55.8047 135.09 55.8203C135.199 55.875 135.309 55.9062 135.418 55.9141C136.613 55.8906 137.473 55.8555 137.996 55.8086C138.301 55.8086 138.453 55.9766 138.453 56.3125V56.3945C138.422 57.2617 138.406 58.1289 138.406 58.9961C138.422 60.082 138.469 61.1992 138.547 62.3477L141.195 62.3711C141.211 61.6523 141.219 60.3711 141.219 58.5273C141.219 58.1602 141.207 57.793 141.184 57.4258C141.16 56.9648 141.148 56.6562 141.148 56.5C141.148 56.2188 141.293 56.0781 141.582 56.0781L141.863 56.0898C142.715 56.1914 143.375 56.2422 143.844 56.2422C144.086 56.2422 144.336 56.2344 144.594 56.2188C144.758 56.2031 144.926 56.1953 145.098 56.1953C145.082 56.3438 145.062 56.4844 145.039 56.6172C144.992 56.8906 144.969 57.1523 144.969 57.4023C144.984 58.0273 145.012 58.6562 145.051 59.2891C145.09 60.1406 145.121 60.9961 145.145 61.8555C145.145 62.4492 145.121 63.043 145.074 63.6367C145.02 64.6211 144.992 65.9883 144.992 67.7383C144.992 68.668 144.98 69.3164 144.957 69.6836C144.941 69.8867 144.934 70.0898 144.934 70.293C144.934 70.6602 144.957 71.0195 145.004 71.3711C145.035 71.5117 145.051 71.6523 145.051 71.793C145.051 72.207 145.027 72.6016 144.98 72.9766H141.91C141.777 73 141.664 73.0117 141.57 73.0117C141.406 73.0117 141.289 72.9766 141.219 72.9062C141.148 72.8281 141.113 72.6602 141.113 72.4023C141.121 72.2695 141.133 71.6523 141.148 70.5508L141.125 69.1328C141.109 68.7109 141.102 68.2891 141.102 67.8672C141.102 67.1953 141.105 66.7852 141.113 66.6367L138.254 66.6133C138.238 67.7773 138.23 68.9492 138.23 70.1289C138.23 71.1211 138.25 71.7539 138.289 72.0273C138.32 72.2617 138.344 72.4922 138.359 72.7188C138.359 72.8047 138.301 72.8867 138.184 72.9648C138.098 73.0273 137.246 73.0742 135.629 73.1055L134.926 73.1289ZM151.426 69.918C151.973 69.918 152.332 69.5273 152.504 68.7461C152.535 68.168 152.551 67.6406 152.551 67.1641C152.551 66.7109 152.395 66.3516 152.082 66.0859C151.801 65.8516 151.395 65.7344 150.863 65.7344L150.617 65.7461C150.164 65.7461 149.938 65.9609 149.938 66.3906L149.949 67.75C149.949 67.875 149.93 68.1367 149.891 68.5352L149.82 69.8711L151.426 69.918ZM152.234 73.0703C151.836 73.0391 151.184 73.0234 150.277 73.0234C149.363 73.0234 148.211 73.0352 146.82 73.0586C146.773 73.0586 146.719 73.0391 146.656 73C146.594 72.9531 146.539 72.9062 146.492 72.8594C146.445 72.8047 146.422 72.7539 146.422 72.707L146.41 71.4648C146.355 70.5195 146.328 69.5859 146.328 68.6641L146.34 67.5625C146.434 66.5391 146.48 65.375 146.48 64.0703C146.48 63.3672 146.473 62.6641 146.457 61.9609C146.449 61.4688 146.445 60.9727 146.445 60.4727C146.445 60.3164 146.469 59.4648 146.516 57.918V56.043C146.594 56.0195 146.664 55.9922 146.727 55.9609C146.898 55.8828 147.695 55.8438 149.117 55.8438C149.812 55.8438 150.168 55.8789 150.184 55.9492C150.207 56.0195 150.219 56.0938 150.219 56.1719C150.203 56.8828 150.195 57.6094 150.195 58.3516C150.195 58.6016 150.184 58.8633 150.16 59.1367C150.145 59.4102 150.137 60.4062 150.137 62.125L152.574 62.3359C152.715 62.3594 152.828 62.4062 152.914 62.4766L153.453 62.7461C153.852 63.0664 154.199 63.4336 154.496 63.8477C155.137 64.7617 155.457 65.7305 155.457 66.7539L155.445 67.3867C155.445 68.4023 155.336 69.3008 155.117 70.082C154.914 70.7773 154.449 71.5508 153.723 72.4023L153.113 72.8828L152.234 73.0703ZM159.195 73.0117C158.578 73.0117 158.012 72.9922 157.496 72.9531C157.355 72.9844 157.039 73 156.547 73C156.484 73 156.453 72.9375 156.453 72.8125C156.453 72.7188 156.473 72.5781 156.512 72.3906L156.523 71.6172L156.559 68.0312C156.527 66.5547 156.512 65.3594 156.512 64.4453C156.512 63.8672 156.516 63.4023 156.523 63.0508C156.492 62.2773 156.477 61.5078 156.477 60.7422C156.531 59.5625 156.559 58.3828 156.559 57.2031L156.5 56.0078L159.664 56.0312C159.953 56.0312 160.129 56.0352 160.191 56.043C160.262 56.0508 160.297 56.1719 160.297 56.4062L160.262 57.918C160.262 63.6211 160.277 66.6836 160.309 67.1055C160.293 67.3008 160.238 69.1484 160.145 72.6484C160.16 72.7266 160.168 72.7891 160.168 72.8359C160.168 72.9453 160.078 73 159.898 73L159.195 73.0117ZM171.547 73.0586L169.848 72.9883L169.262 73C168.621 73 168.293 72.9453 168.277 72.8359C168.27 72.4375 168.266 72.0352 168.266 71.6289C168.266 70.7383 168.238 69.8477 168.184 68.957C168.129 68.1914 168.102 67.082 168.102 65.6289L168.09 64.6445C168.035 64.7383 167.984 64.8125 167.938 64.8672C167.773 65.0781 167.23 66.5938 166.309 69.4141C165.605 71.5859 165.195 72.7266 165.078 72.8359C165 72.9219 164.926 72.9688 164.855 72.9766C162.941 72.9766 161.898 72.9336 161.727 72.8477L161.668 70.6094C161.613 69.9141 161.586 69.0781 161.586 68.1016C161.586 67.4531 161.598 66.7422 161.621 65.9688L161.609 65.6641C161.609 65.4609 161.621 65.2656 161.645 65.0781C161.668 64.8828 161.68 64.6953 161.68 64.5156L161.668 63.4023C161.652 63.1055 161.645 62.8125 161.645 62.5234C161.645 61.7734 161.664 61.3398 161.703 61.2227C161.656 60.4414 161.633 59.6602 161.633 58.8789C161.633 58.2148 161.594 57.5156 161.516 56.7812C161.5 56.6953 161.492 56.6094 161.492 56.5234C161.492 56.3125 161.539 56.168 161.633 56.0898C161.773 55.9883 162.176 55.9375 162.84 55.9375C162.996 55.9766 163.242 55.9961 163.578 55.9961C163.883 55.9961 164.262 55.9805 164.715 55.9492L164.832 55.9609C164.918 55.9922 164.965 56.1133 164.973 56.3242C164.988 56.5273 165.004 56.7344 165.02 56.9453C165.098 58.1797 165.137 59.7852 165.137 61.7617C165.137 62.5508 165.145 63.3438 165.16 64.1406V64.7266C165.168 64.8906 165.199 64.9727 165.254 64.9727C165.324 64.9727 165.441 64.8047 165.605 64.4688C165.746 63.9141 165.984 63.3242 166.32 62.6992C166.68 62.0898 167.07 61.1992 167.492 60.0273C167.703 59.7383 168.266 58.5664 169.18 56.5117C169.32 56.1602 169.559 55.9844 169.895 55.9844L170.375 56.0078C170.484 56.0078 170.59 56.0039 170.691 55.9961C170.793 55.9883 171.176 55.9844 171.84 55.9844C171.902 55.9844 171.938 56.0117 171.945 56.0664L171.934 63.8359C171.871 65.0234 171.84 65.7656 171.84 66.0625C171.84 66.375 171.852 66.6367 171.875 66.8477C171.898 67.0586 171.91 67.2891 171.91 67.5391C171.91 67.9297 171.891 68.4922 171.852 69.2266C171.852 70.6641 171.91 71.707 172.027 72.3555C172.004 72.4805 171.992 72.6016 171.992 72.7188C171.992 72.8359 171.844 72.9492 171.547 73.0586ZM167.234 55.1992C166.891 55.1992 166.52 55.0977 166.121 54.8945C165.785 54.6758 165.418 54.3594 165.02 53.9453C164.91 53.8281 164.855 53.707 164.855 53.582C164.855 53.4023 164.914 53.3125 165.031 53.3125C165.109 53.3203 165.207 53.3242 165.324 53.3242C165.441 53.3242 165.613 53.3203 165.84 53.3125C166.074 53.2969 166.211 53.2891 166.25 53.2891C166.32 53.2891 166.367 53.3398 166.391 53.4414C166.516 53.7852 166.785 53.957 167.199 53.957C167.535 53.957 167.766 53.7812 167.891 53.4297C167.93 53.3359 168.016 53.2891 168.148 53.2891C168.461 53.3047 168.945 53.3398 169.602 53.3945C169.492 53.5664 169.422 53.6914 169.391 53.7695C169.031 54.4805 168.473 54.9336 167.715 55.1289C167.551 55.1758 167.391 55.1992 167.234 55.1992Z" fill="white"/>
<path d="M71.8984 101.129C71.3594 101.129 71.0234 101.082 70.8906 100.988C70.7656 100.895 70.6953 100.797 70.6797 100.695C70.6875 100.125 70.6992 99.4844 70.7148 98.7734C70.7305 98.0625 70.7383 97.3594 70.7383 96.6641C70.7383 95.6016 70.707 94.6406 70.6445 93.7812C70.6055 93.0938 70.5859 92.168 70.5859 91.0039C70.5859 89.8477 70.6055 88.4531 70.6445 86.8203L70.6328 84.6172C70.6406 84.3984 70.7227 84.207 70.8789 84.043C71.043 83.8711 71.2344 83.7812 71.4531 83.7734L71.793 83.7852L71.9688 83.7617C73.1406 83.793 74.3867 83.8086 75.707 83.8086C77.0117 83.8086 78.1719 83.793 79.1875 83.7617L79.3633 83.7852L79.7031 83.7734C80.0781 83.7812 80.3438 83.8711 80.5 84.043C80.6641 84.207 80.75 84.3984 80.7578 84.6172L80.7461 86.8203C80.7852 88.4531 80.8047 89.8477 80.8047 91.0039C80.8047 92.168 80.7852 93.0938 80.7461 93.7812C80.6836 94.6406 80.6523 95.6016 80.6523 96.6641C80.6523 97.3594 80.6602 98.0625 80.6758 98.7734C80.6914 99.4844 80.7031 100.125 80.7109 100.695C80.6719 100.945 80.4688 101.07 80.1016 101.07C79.9375 101.07 79.7344 101.051 79.4922 101.012L79.1289 101C78.957 100.984 78.7539 100.977 78.5195 100.977C78.1289 100.977 77.6641 101 77.125 101.047L77.0781 87.8516L76.5977 87.875L75.6367 87.8516L74.6758 87.875L74.1953 87.8516L74.2656 101.047C73.3984 101.047 72.7305 101.07 72.2617 101.117L71.8984 101.129ZM87.7305 95.7734C87.832 95.7422 87.9219 95.6992 88 95.6445L88.1055 95.5859C88.0195 95.1562 87.9453 94.7695 87.8828 94.4258C87.7188 93.8398 87.5078 92.8633 87.25 91.4961C87.2344 91.4492 87.1992 91.4023 87.1445 91.3555C87.0898 91.3008 87.0391 91.2734 86.9922 91.2734C86.7812 91.2734 86.6406 91.5508 86.5703 92.1055C86.3281 93.8789 86.1719 94.957 86.1016 95.3398V95.4922C86.1016 95.6172 86.1562 95.6797 86.2656 95.6797L87.7305 95.7734ZM92.2891 101.059L92.125 101.047C90.5547 101.031 89.6484 101.016 89.4062 101C89.2188 100.984 89.0781 100.891 88.9844 100.719C88.7344 99.7812 88.5039 98.7461 88.293 97.6133C88.2773 97.5586 88.1523 97.5312 87.918 97.5312C87.7383 97.5312 87.4922 97.5469 87.1797 97.5781C86.5703 97.5781 86.2031 97.5586 86.0781 97.5195L85.4336 101L81.3906 101.059C81.6406 100.418 81.7969 99.9805 81.8594 99.7461C82.9219 95.4414 83.5352 92.9766 83.6992 92.3516C83.9805 91.3359 84.2969 90.3281 84.6484 89.3281L86.1484 84.7578C86.2734 84.3438 86.4141 84.125 86.5703 84.1016C86.7266 84.0781 86.9648 84.0625 87.2852 84.0547C87.4102 84.5391 87.5156 84.9102 87.6016 85.168C87.6875 85.418 87.7695 85.6602 87.8477 85.8945C88.6445 88.332 89.6289 91.1875 90.8008 94.4609C91.0977 95.1094 91.5508 96.4219 92.1602 98.3984C92.4727 99.4297 92.6719 100.031 92.7578 100.203C92.8516 100.344 92.8984 100.484 92.8984 100.625C92.875 100.844 92.7852 100.973 92.6289 101.012C92.5195 101.043 92.4062 101.059 92.2891 101.059ZM96.1211 89.4805C96.5273 89.4727 96.9336 89.4336 97.3398 89.3633C98.1602 89.2305 98.5742 88.6836 98.582 87.7227C98.582 87.4258 98.5078 87.1562 98.3594 86.9141C98.2188 86.6641 98.0195 86.5195 97.7617 86.4805C97.5117 86.4336 97.2539 86.4102 96.9883 86.4102C96.7305 86.4102 96.4688 86.4297 96.2031 86.4688C96.1172 86.4922 96.0352 86.5625 95.957 86.6797C95.8867 86.7891 95.8438 86.9023 95.8281 87.0195C95.8203 87.168 95.8164 87.3164 95.8164 87.4648L95.8633 88.4141H95.8516C95.8516 88.4922 95.8477 88.5664 95.8398 88.6367C95.832 88.707 95.8281 88.7773 95.8281 88.8477C95.8281 88.9805 95.8398 89.1094 95.8633 89.2344C95.8711 89.2891 95.9023 89.3438 95.957 89.3984C96.0195 89.4531 96.0742 89.4805 96.1211 89.4805ZM96.2031 98.3516C96.5156 98.3125 96.8281 98.2812 97.1406 98.2578C97.6406 98.2266 98.1328 98.1602 98.6172 98.0586C99.1094 97.957 99.5703 97.7422 100 97.4141C100.547 97 100.82 96.5039 100.82 95.9258C100.82 95.7852 100.801 95.6367 100.762 95.4805C100.332 94.2227 99.4062 93.5586 97.9844 93.4883L97.5273 93.5352C97.1836 93.543 96.8359 93.5742 96.4844 93.6289C96.0859 93.668 95.8867 93.8789 95.8867 94.2617V94.2969C95.918 95.0547 95.9375 95.8086 95.9453 96.5586C95.9609 97.5898 95.9883 98.1367 96.0273 98.1992C96.0898 98.3008 96.1484 98.3516 96.2031 98.3516ZM95.4297 101.082H94.9961C94.6211 101.059 94.25 100.969 93.8828 100.812L93.6367 100.73C93.5352 100.676 93.4844 100.551 93.4844 100.355V98.3516C93.4844 95.4375 93.5156 93.2539 93.5781 91.8008C93.6172 90.7852 93.6367 89.7695 93.6367 88.7539C93.6367 87.5977 93.6133 86.2812 93.5664 84.8047L93.5781 84.0898C95.7812 84.0898 97.4883 84.1055 98.6992 84.1367C99.1367 84.1758 99.5508 84.3008 99.9414 84.5117C100.34 84.7148 100.602 84.9922 100.727 85.3438C100.891 85.8281 100.977 86.4062 100.984 87.0781L100.973 87.5L100.984 87.7461C101.008 87.9102 101.02 88.0703 101.02 88.2266C101.02 89.2109 100.605 90.0117 99.7773 90.6289L101.395 91.2266C101.809 91.4062 102.148 91.6602 102.414 91.9883C102.68 92.3164 102.918 92.6641 103.129 93.0312L103.223 93.1836C103.418 93.5352 103.523 93.9062 103.539 94.2969L103.551 94.6367C103.551 94.9258 103.535 95.2109 103.504 95.4922C103.488 95.6328 103.477 95.7695 103.469 95.9023C103.461 96.0352 103.449 96.1641 103.434 96.2891C103.402 96.4766 103.387 96.6641 103.387 96.8516C103.309 98.6172 102.531 99.9375 101.055 100.812C100.836 100.953 100.492 101.023 100.023 101.023L99.2148 101C98.9727 101 98.7344 101.004 98.5 101.012C97.4766 101.059 96.4531 101.082 95.4297 101.082ZM114.789 101.059L113.09 100.988L112.504 101C111.863 101 111.535 100.945 111.52 100.836C111.512 100.438 111.508 100.035 111.508 99.6289C111.508 98.7383 111.48 97.8477 111.426 96.957C111.371 96.1914 111.344 95.082 111.344 93.6289L111.332 92.6445C111.277 92.7383 111.227 92.8125 111.18 92.8672C111.016 93.0781 110.473 94.5938 109.551 97.4141C108.848 99.5859 108.438 100.727 108.32 100.836C108.242 100.922 108.168 100.969 108.098 100.977C106.184 100.977 105.141 100.934 104.969 100.848L104.91 98.6094C104.855 97.9141 104.828 97.0781 104.828 96.1016C104.828 95.4531 104.84 94.7422 104.863 93.9688L104.852 93.6641C104.852 93.4609 104.863 93.2656 104.887 93.0781C104.91 92.8828 104.922 92.6953 104.922 92.5156L104.91 91.4023C104.895 91.1055 104.887 90.8125 104.887 90.5234C104.887 89.7734 104.906 89.3398 104.945 89.2227C104.898 88.4414 104.875 87.6602 104.875 86.8789C104.875 86.2148 104.836 85.5156 104.758 84.7812C104.742 84.6953 104.734 84.6094 104.734 84.5234C104.734 84.3125 104.781 84.168 104.875 84.0898C105.016 83.9883 105.418 83.9375 106.082 83.9375C106.238 83.9766 106.484 83.9961 106.82 83.9961C107.125 83.9961 107.504 83.9805 107.957 83.9492L108.074 83.9609C108.16 83.9922 108.207 84.1133 108.215 84.3242C108.23 84.5273 108.246 84.7344 108.262 84.9453C108.34 86.1797 108.379 87.7852 108.379 89.7617C108.379 90.5508 108.387 91.3438 108.402 92.1406V92.7266C108.41 92.8906 108.441 92.9727 108.496 92.9727C108.566 92.9727 108.684 92.8047 108.848 92.4688C108.988 91.9141 109.227 91.3242 109.562 90.6992C109.922 90.0898 110.312 89.1992 110.734 88.0273C110.945 87.7383 111.508 86.5664 112.422 84.5117C112.562 84.1602 112.801 83.9844 113.137 83.9844L113.617 84.0078C113.727 84.0078 113.832 84.0039 113.934 83.9961C114.035 83.9883 114.418 83.9844 115.082 83.9844C115.145 83.9844 115.18 84.0117 115.188 84.0664L115.176 91.8359C115.113 93.0234 115.082 93.7656 115.082 94.0625C115.082 94.375 115.094 94.6367 115.117 94.8477C115.141 95.0586 115.152 95.2891 115.152 95.5391C115.152 95.9297 115.133 96.4922 115.094 97.2266C115.094 98.6641 115.152 99.707 115.27 100.355C115.246 100.48 115.234 100.602 115.234 100.719C115.234 100.836 115.086 100.949 114.789 101.059ZM121.961 84.1953H121.984C122.031 84.1953 122.09 84.2188 122.16 84.2656C122.324 84.3828 122.441 84.5117 122.512 84.6523C124.074 88.8242 124.977 91.2812 125.219 92.0234C125.57 93.375 125.883 94.3555 126.156 94.9648C127.312 98.918 127.891 100.941 127.891 101.035C127.891 101.23 127.738 101.332 127.434 101.34C126.145 101.332 124.977 101.316 123.93 101.293C123.891 101.293 123.766 100.668 123.555 99.418C123.438 98.8086 123.309 98.1992 123.168 97.5898C122.988 96.7773 122.82 95.9648 122.664 95.1523L121.879 92.0352C121.715 92.5352 121.5 93.4453 121.234 94.7656C120.969 96.0859 120.719 97.4297 120.484 98.7969C120.375 99.7109 120.281 100.406 120.203 100.883C120.203 101.07 120.133 101.219 119.992 101.328L116.207 101.281C115.98 101.281 115.867 101.176 115.867 100.965L115.879 100.824C116.246 99.3164 116.781 97.6953 117.484 95.9609C117.75 95.25 117.965 94.5234 118.129 93.7812C118.34 92.8203 118.691 91.7578 119.184 90.5938C119.668 89.2656 120.41 87.2969 121.41 84.6875C121.488 84.5391 121.605 84.4023 121.762 84.2773C121.832 84.2227 121.898 84.1953 121.961 84.1953ZM133.609 93.7227L133.469 93.7344C133.305 93.7578 133.141 93.7695 132.977 93.7695C132.844 93.7695 132.707 93.8008 132.566 93.8633C132.34 93.8633 132.168 93.9219 132.051 94.0391C131.941 94.1562 131.887 94.3125 131.887 94.5078L131.898 94.8125C131.898 94.9375 131.879 95.1992 131.84 95.5977C131.754 96.7461 131.691 97.5039 131.652 97.8711C132.285 97.957 132.945 98 133.633 98C133.742 98.0312 133.848 98.0469 133.949 98.0469C134.215 98.0469 134.434 97.9219 134.605 97.6719C134.645 97.625 134.688 97.582 134.734 97.543C134.789 97.4961 134.836 97.4453 134.875 97.3906C134.961 97.2109 135.055 97.0352 135.156 96.8633C135.422 96.2852 135.555 95.7578 135.555 95.2812C135.555 94.8281 135.395 94.4688 135.074 94.2031C134.762 93.9375 134.387 93.8047 133.949 93.8047C133.84 93.75 133.727 93.7227 133.609 93.7227ZM129.121 83.7617C131.184 83.7773 132.227 83.832 132.25 83.9258C132.273 84.0117 132.285 84.0938 132.285 84.1719C132.27 84.8828 132.262 85.6094 132.262 86.3516C132.262 86.6016 132.27 86.8633 132.285 87.1367C132.309 87.4102 132.32 87.6836 132.32 87.957C132.32 88.4102 132.301 88.8516 132.262 89.2812L132.203 90.125L135.812 90.3359C135.953 90.3594 136.066 90.4062 136.152 90.4766L136.574 90.8633C136.973 91.1836 137.316 91.543 137.605 91.9414L137.617 91.9648C137.906 92.3789 138.156 92.8164 138.367 93.2773C138.586 93.7305 138.695 94.2227 138.695 94.7539L138.684 95.3867V95.5391C138.684 96.4531 138.574 97.3008 138.355 98.082C138.152 98.7773 137.414 99.5898 136.141 100.52C135.938 100.676 135.734 100.836 135.531 101L134.652 101.188C134.254 101.234 133.859 101.258 133.469 101.258H133.293C131.824 101.188 130.355 101.082 128.887 100.941C128.84 100.941 128.785 100.922 128.723 100.883C128.66 100.836 128.605 100.789 128.559 100.742C128.512 100.688 128.488 100.637 128.488 100.59L128.477 99.4648C128.477 98.1367 128.492 96.8359 128.523 95.5625C128.617 94.5391 128.664 93.375 128.664 92.0703C128.664 91.3672 128.656 90.6641 128.641 89.9609C128.633 89.4688 128.629 88.9727 128.629 88.4727C128.629 88.3164 128.613 87.4648 128.582 85.918V83.9258C128.66 83.9023 128.73 83.875 128.793 83.8438C128.91 83.7891 129.02 83.7617 129.121 83.7617ZM146.711 97.6484C147.086 97.5781 147.488 97.3125 147.918 96.8516C148.348 96.3906 148.789 95.9219 149.242 95.4453C149.422 95.2109 149.543 94.9336 149.605 94.6133C149.684 94.332 149.785 94.0508 149.91 93.7695C150.129 93.2852 150.238 92.8672 150.238 92.5156C150.238 92.2031 150.062 91.6406 149.711 90.8281C149.367 90.0078 148.77 89.1836 147.918 88.3555C147.582 88.0039 147.211 87.8281 146.805 87.8281C146.391 87.8281 146.023 87.9414 145.703 88.168C144.711 88.8789 144.039 89.8164 143.688 90.9805L143.371 91.8945C143.355 92.1602 143.34 92.3906 143.324 92.5859C143.34 94.4922 144.086 96.0469 145.562 97.25C145.711 97.3516 145.883 97.4258 146.078 97.4727L146.207 97.5195C146.363 97.5664 146.531 97.6094 146.711 97.6484ZM146.887 101.223C146.441 101.223 146.023 101.145 145.633 100.988L145.234 100.883H145.223C145.027 100.844 144.848 100.766 144.684 100.648C144.52 100.531 144.355 100.41 144.191 100.285C143.473 99.832 142.793 99.3164 142.152 98.7383C141.934 98.3789 141.66 98.0508 141.332 97.7539C141.176 97.6055 140.926 97.2305 140.582 96.6289C140.238 96.0273 140.031 95.1797 139.961 94.0859C139.898 93.6094 139.867 93.1406 139.867 92.6797C139.867 90.4375 140.625 88.4102 142.141 86.5977C142.539 86.1914 142.988 85.832 143.488 85.5195C143.684 85.3945 143.871 85.2656 144.051 85.1328C144.332 84.9141 144.629 84.7305 144.941 84.582L145.117 84.5117C145.898 84.1445 146.531 83.9609 147.016 83.9609C147.305 83.9609 147.605 84.0117 147.918 84.1133C148.121 84.1836 148.324 84.2461 148.527 84.3008C149.004 84.4258 149.453 84.5938 149.875 84.8047C150.305 85.0156 150.656 85.3555 150.93 85.8242C151.359 86.5977 151.754 87.3867 152.113 88.1914C153.066 90.3711 153.574 91.8828 153.637 92.7266C153.637 93.1016 153.59 93.4766 153.496 93.8516L153.426 94.2148C153.324 94.7773 153.238 95.2031 153.168 95.4922C153.098 95.7812 153.047 95.9414 153.016 95.9727C152.992 95.9961 152.84 96.2734 152.559 96.8047C152.285 97.3359 151.98 97.8203 151.645 98.2578C151.121 98.8125 150.535 99.3125 149.887 99.7578L149.113 100.355C149.035 100.418 148.953 100.477 148.867 100.531C148.742 100.617 148.617 100.715 148.492 100.824C148.375 100.934 148.242 101.008 148.094 101.047C147.953 101.094 147.809 101.125 147.66 101.141C147.574 101.148 147.484 101.164 147.391 101.188C147.219 101.211 147.051 101.223 146.887 101.223ZM155.371 101.129C155.004 101.129 154.82 100.965 154.82 100.637V100.555C154.992 98.7188 155.078 97.4023 155.078 96.6055C155.078 96.3477 155.066 96.0898 155.043 95.832C155.027 95.5039 155.02 95.1797 155.02 94.8594L155.125 90.8164C155.117 90.418 155.102 90.0195 155.078 89.6211C155.055 89.2227 155.043 88.8203 155.043 88.4141C155.051 87.8828 155.066 87.375 155.09 86.8906C155.121 86.4062 155.145 85.9023 155.16 85.3789C155.152 85.1133 155.121 84.8516 155.066 84.5938C155.035 84.4375 155.012 84.2812 154.996 84.125C154.996 84.0625 155.016 83.9453 155.055 83.7734C155.094 83.7812 155.129 83.793 155.16 83.8086L155.371 83.7969C155.449 83.7969 155.504 83.8047 155.535 83.8203C155.645 83.875 155.754 83.9062 155.863 83.9141C157.059 83.8906 157.918 83.8555 158.441 83.8086C158.746 83.8086 158.898 83.9766 158.898 84.3125V84.3945C158.867 85.2617 158.852 86.1289 158.852 86.9961C158.867 88.082 158.914 89.1992 158.992 90.3477L161.641 90.3711C161.656 89.6523 161.664 88.3711 161.664 86.5273C161.664 86.1602 161.652 85.793 161.629 85.4258C161.605 84.9648 161.594 84.6562 161.594 84.5C161.594 84.2188 161.738 84.0781 162.027 84.0781L162.309 84.0898C163.16 84.1914 163.82 84.2422 164.289 84.2422C164.531 84.2422 164.781 84.2344 165.039 84.2188C165.203 84.2031 165.371 84.1953 165.543 84.1953C165.527 84.3438 165.508 84.4844 165.484 84.6172C165.438 84.8906 165.414 85.1523 165.414 85.4023C165.43 86.0273 165.457 86.6562 165.496 87.2891C165.535 88.1406 165.566 88.9961 165.59 89.8555C165.59 90.4492 165.566 91.043 165.52 91.6367C165.465 92.6211 165.438 93.9883 165.438 95.7383C165.438 96.668 165.426 97.3164 165.402 97.6836C165.387 97.8867 165.379 98.0898 165.379 98.293C165.379 98.6602 165.402 99.0195 165.449 99.3711C165.48 99.5117 165.496 99.6523 165.496 99.793C165.496 100.207 165.473 100.602 165.426 100.977H162.355C162.223 101 162.109 101.012 162.016 101.012C161.852 101.012 161.734 100.977 161.664 100.906C161.594 100.828 161.559 100.66 161.559 100.402C161.566 100.27 161.578 99.6523 161.594 98.5508L161.57 97.1328C161.555 96.7109 161.547 96.2891 161.547 95.8672C161.547 95.1953 161.551 94.7852 161.559 94.6367L158.699 94.6133C158.684 95.7773 158.676 96.9492 158.676 98.1289C158.676 99.1211 158.695 99.7539 158.734 100.027C158.766 100.262 158.789 100.492 158.805 100.719C158.805 100.805 158.746 100.887 158.629 100.965C158.543 101.027 157.691 101.074 156.074 101.105L155.371 101.129Z" fill="white"/>
</svg>
