<svg width="32" height="32" viewBox="0 0 32 32" fill="none" xmlns="http://www.w3.org/2000/svg">
<path d="M6.72656 14.5649H25.2639M12.0229 23.8336L8.05066 27.8059M19.9675 23.8336L23.9398 27.8059M15.9952 14.5649V5.29626M10.6988 19.8613H10.7121M21.2916 19.8613H21.3049M10.9637 23.8336H21.0268C22.5099 23.8336 23.2515 23.8336 23.818 23.5449C24.3162 23.2911 24.7214 22.8859 24.9752 22.3877C25.2639 21.8212 25.2639 21.0796 25.2639 19.5965V8.20927C25.2639 6.72615 25.2639 5.98458 24.9752 5.41811C24.7214 4.91981 24.3162 4.51469 23.818 4.26081C23.2515 3.97217 22.5099 3.97217 21.0268 3.97217H10.9637C9.48055 3.97217 8.73898 3.97217 8.1725 4.26081C7.6742 4.51469 7.26908 4.91981 7.0152 5.41811C6.72656 5.98458 6.72656 6.72614 6.72656 8.20927V19.5965C6.72656 21.0796 6.72656 21.8212 7.0152 22.3877C7.26908 22.8859 7.6742 23.2911 8.1725 23.5449C8.73898 23.8336 9.48053 23.8336 10.9637 23.8336Z" stroke="#FD4242" stroke-width="2.64819" stroke-linecap="round" stroke-linejoin="round"/>
</svg>
