<svg width="21" height="21" viewBox="0 0 21 21" fill="none" xmlns="http://www.w3.org/2000/svg">
<path d="M2.53711 5.35775H4.20378M4.20378 5.35775H17.5371M4.20378 5.35775V17.0244C4.20378 17.4664 4.37937 17.8904 4.69193 18.2029C5.00449 18.5155 5.42842 18.6911 5.87044 18.6911H14.2038C14.6458 18.6911 15.0697 18.5155 15.3823 18.2029C15.6948 17.8904 15.8704 17.4664 15.8704 17.0244V5.35775M6.70378 5.35775V3.69108C6.70378 3.24905 6.87937 2.82513 7.19193 2.51257C7.50449 2.20001 7.92842 2.02441 8.37044 2.02441H11.7038C12.1458 2.02441 12.5697 2.20001 12.8823 2.51257C13.1948 2.82513 13.3704 3.24905 13.3704 3.69108V5.35775M8.37044 9.52441V14.5244M11.7038 9.52441V14.5244" stroke="white" stroke-width="1.64103" stroke-linecap="round" stroke-linejoin="round"/>
</svg>
