<svg width="27" height="26" viewBox="0 0 27 26" fill="none" xmlns="http://www.w3.org/2000/svg">
<path d="M4.78337 7.79891V18.1989C4.78337 19.4124 4.78337 20.0188 5.01953 20.4823C5.22725 20.8899 5.55846 21.2217 5.96615 21.4294C6.42917 21.6654 7.03561 21.6654 8.24669 21.6654H18.6534C19.8645 21.6654 20.47 21.6654 20.9331 21.4294C21.3407 21.2217 21.6731 20.8899 21.8808 20.4823C22.1167 20.0192 22.1167 19.4137 22.1167 18.2026V7.79535C22.1167 6.58427 22.1167 5.97783 21.8808 5.51481C21.6731 5.10712 21.3407 4.77591 20.9331 4.56819C20.4696 4.33203 19.8637 4.33203 18.6503 4.33203H8.25025C7.0368 4.33203 6.42963 4.33203 5.96615 4.56819C5.55846 4.77591 5.22725 5.10712 5.01953 5.51481C4.78337 5.97829 4.78337 6.58546 4.78337 7.79891Z" stroke="white" stroke-width="2.16667" stroke-linecap="round" stroke-linejoin="round"/>
</svg>
