<svg width="551" height="556" viewBox="0 0 551 556" fill="none" xmlns="http://www.w3.org/2000/svg">
<g filter="url(#filter0_d_2_216)">
<rect x="21.2305" y="17.6366" width="507.918" height="513.253" rx="26" fill="white"/>
</g>
<path d="M510.204 108.07H433.928V101.916H510.204V108.07ZM434.979 106.986H509.12V103H435.011L434.979 106.986Z" fill="#263238"/>
<path d="M472.288 118.199H433.928V112.045H472.288V118.199ZM435.054 117.115H471.204V113.129H435.011L435.054 117.115Z" fill="#263238"/>
<path d="M485.883 128.317H433.884V122.174H485.883V128.317ZM434.967 127.233H484.799V123.258H434.967V127.233Z" fill="#263238"/>
<path d="M466.394 138.446H433.895V132.303H466.394V138.446ZM434.978 137.362H465.311V133.387H434.978V137.362Z" fill="#263238"/>
<path d="M492.632 148.629H433.928V142.486H492.632V148.629ZM435.011 147.545H491.549V143.57H435.011V147.545Z" fill="#263238"/>
<path d="M475.007 158.704H433.928V152.55H475.007V158.704ZM435.011 157.62H473.924V153.634H435.011V157.62Z" fill="#263238"/>
<path d="M479.871 168.832H433.928V162.712H479.871V168.832ZM435 167.749H478.788V163.795H435.011L435 167.749Z" fill="#263238"/>
<path d="M472.98 92.2966H435.129V93.3799H472.98V92.2966Z" fill="#263238"/>
<path d="M472.98 85.9267H435.129V87.01H472.98V85.9267Z" fill="#263238"/>
<path d="M58.3104 157.49C54.7249 157.492 51.2194 156.431 48.2373 154.44C45.2552 152.45 42.9305 149.619 41.5575 146.307C40.1844 142.995 39.8245 139.35 40.5235 135.833C41.2225 132.317 42.9488 129.086 45.4841 126.551C48.0194 124.016 51.2498 122.289 54.7665 121.59C58.2831 120.891 61.9281 121.251 65.2403 122.624C68.5524 123.997 71.3828 126.322 73.3735 129.304C75.3641 132.286 76.4255 135.792 76.4234 139.377C76.4148 144.178 74.5037 148.781 71.1087 152.176C67.7137 155.571 63.1116 157.482 58.3104 157.49ZM58.3104 122.337C54.9397 122.335 51.644 123.332 48.8403 125.203C46.0366 127.074 43.8508 129.735 42.5593 132.849C41.2679 135.962 40.9289 139.389 41.5852 142.695C42.2415 146.001 43.8636 149.039 46.2463 151.423C48.629 153.807 51.6653 155.431 54.9712 156.09C58.277 156.748 61.7038 156.411 64.8182 155.122C67.9325 153.832 70.5945 151.648 72.4675 148.846C74.3404 146.043 75.34 142.748 75.34 139.377C75.3343 134.861 73.5386 130.532 70.3465 127.338C67.1544 124.144 62.8262 122.345 58.3104 122.337Z" fill="#263238"/>
<path d="M58.3107 144.144C56.9716 144.144 55.6626 143.747 54.5491 143.003C53.4357 142.259 52.5679 141.201 52.0554 139.964C51.543 138.727 51.4089 137.366 51.6701 136.052C51.9314 134.739 52.5762 133.532 53.5231 132.586C54.47 131.639 55.6765 130.994 56.9898 130.733C58.3032 130.471 59.6646 130.605 60.9018 131.118C62.1389 131.63 63.1964 132.498 63.9404 133.612C64.6843 134.725 65.0814 136.034 65.0814 137.373C65.0786 139.168 64.3643 140.888 63.0952 142.158C61.826 143.427 60.1056 144.141 58.3107 144.144ZM58.3107 131.686C57.1859 131.686 56.0863 132.019 55.151 132.644C54.2157 133.269 53.4867 134.157 53.0563 135.197C52.6258 136.236 52.5132 137.379 52.7326 138.483C52.9521 139.586 53.4938 140.599 54.2891 141.395C55.0845 142.19 56.0979 142.732 57.2012 142.951C58.3044 143.171 59.448 143.058 60.4872 142.628C61.5264 142.197 62.4147 141.468 63.0396 140.533C63.6646 139.598 63.9981 138.498 63.9981 137.373C63.9981 135.865 63.3989 134.418 62.3323 133.352C61.2657 132.285 59.8191 131.686 58.3107 131.686Z" fill="#263238"/>
<path d="M58.3104 157.49C54.3728 157.498 50.5425 156.207 47.4123 153.818L47.1523 153.623V153.298C47.5885 150.668 48.944 148.278 50.9775 146.554C53.011 144.83 55.5903 143.884 58.2563 143.884C60.9222 143.884 63.5016 144.83 65.5351 146.554C67.5685 148.278 68.924 150.668 69.3602 153.298V153.623L69.1002 153.818C65.9985 156.182 62.2106 157.472 58.3104 157.49ZM48.3332 153.157C51.2313 155.269 54.7246 156.406 58.3104 156.406C61.8962 156.406 65.3896 155.269 68.2877 153.157C67.8291 150.848 66.5839 148.77 64.7646 147.277C62.9452 145.783 60.6643 144.967 58.3104 144.967C55.9566 144.967 53.6756 145.783 51.8563 147.277C50.0369 148.77 48.7918 150.848 48.3332 153.157Z" fill="#263238"/>
<path d="M58.3104 201.613C54.7249 201.616 51.2194 200.554 48.2373 198.564C45.2552 196.573 42.9305 193.743 41.5575 190.43C40.1844 187.118 39.8245 183.473 40.5235 179.957C41.2225 176.44 42.9488 173.21 45.4841 170.674C48.0194 168.139 51.2498 166.413 54.7665 165.714C58.2831 165.015 61.9281 165.374 65.2403 166.748C68.5524 168.121 71.3828 170.445 73.3735 173.427C75.3641 176.41 76.4255 179.915 76.4234 183.501C76.4148 188.302 74.5037 192.904 71.1087 196.299C67.7137 199.694 63.1116 201.605 58.3104 201.613ZM58.3104 166.46C54.9397 166.458 51.644 167.455 48.8403 169.327C46.0366 171.198 43.8508 173.858 42.5593 176.972C41.2679 180.085 40.9289 183.512 41.5852 186.818C42.2415 190.125 43.8636 193.162 46.2463 195.546C48.629 197.93 51.6653 199.554 54.9712 200.213C58.277 200.871 61.7038 200.534 64.8182 199.245C67.9325 197.955 70.5945 195.771 72.4675 192.969C74.3404 190.166 75.34 186.871 75.34 183.501C75.3343 178.985 73.5386 174.655 70.3465 171.461C67.1544 168.267 62.8262 166.469 58.3104 166.46Z" fill="#263238"/>
<path d="M58.3107 188.267C56.9716 188.267 55.6626 187.87 54.5491 187.126C53.4357 186.382 52.5679 185.325 52.0554 184.087C51.543 182.85 51.4089 181.489 51.6701 180.175C51.9314 178.862 52.5762 177.656 53.5231 176.709C54.47 175.762 55.6765 175.117 56.9898 174.856C58.3032 174.595 59.6646 174.729 60.9018 175.241C62.1389 175.754 63.1964 176.621 63.9404 177.735C64.6843 178.848 65.0814 180.157 65.0814 181.496C65.0786 183.291 64.3643 185.012 63.0952 186.281C61.826 187.55 60.1056 188.264 58.3107 188.267ZM58.3107 175.809C57.1859 175.809 56.0863 176.143 55.151 176.768C54.2157 177.392 53.4867 178.281 53.0563 179.32C52.6258 180.359 52.5132 181.503 52.7326 182.606C52.9521 183.709 53.4938 184.723 54.2891 185.518C55.0845 186.313 56.0979 186.855 57.2012 187.074C58.3044 187.294 59.448 187.181 60.4872 186.751C61.5264 186.32 62.4147 185.591 63.0396 184.656C63.6646 183.721 63.9981 182.621 63.9981 181.496C63.9981 179.988 63.3989 178.541 62.3323 177.475C61.2657 176.408 59.8191 175.809 58.3107 175.809Z" fill="#263238"/>
<path d="M58.3104 201.613C54.3748 201.619 50.5461 200.333 47.4123 197.952L47.1523 197.746V197.421C47.5885 194.791 48.944 192.401 50.9775 190.677C53.011 188.953 55.5903 188.007 58.2563 188.007C60.9222 188.007 63.5016 188.953 65.5351 190.677C67.5685 192.401 68.924 194.791 69.3602 197.421V197.746L69.1002 197.952C65.9945 200.308 62.2085 201.592 58.3104 201.613ZM48.3332 197.28C51.2313 199.392 54.7246 200.529 58.3104 200.529C61.8962 200.529 65.3896 199.392 68.2877 197.28C67.8291 194.972 66.5839 192.893 64.7646 191.4C62.9452 189.906 60.6643 189.09 58.3104 189.09C55.9566 189.09 53.6756 189.906 51.8563 191.4C50.0369 192.893 48.7918 194.972 48.3332 197.28Z" fill="#263238"/>
<path d="M58.3104 245.737C54.7249 245.739 51.2194 244.677 48.2373 242.687C45.2552 240.696 42.9305 237.866 41.5575 234.554C40.1844 231.241 39.8245 227.596 40.5235 224.08C41.2225 220.563 42.9488 217.333 45.4841 214.797C48.0194 212.262 51.2498 210.536 54.7665 209.837C58.2831 209.138 61.9281 209.498 65.2403 210.871C68.5524 212.244 71.3828 214.569 73.3735 217.551C75.3641 220.533 76.4255 224.038 76.4234 227.624C76.4148 232.425 74.5037 237.027 71.1087 240.422C67.7137 243.817 63.1116 245.728 58.3104 245.737ZM58.3104 210.583C54.9397 210.581 51.644 211.579 48.8403 213.45C46.0366 215.321 43.8508 217.982 42.5593 221.095C41.2679 224.209 40.9289 227.635 41.5852 230.942C42.2415 234.248 43.8636 237.285 46.2463 239.669C48.629 242.054 51.6653 243.678 54.9712 244.336C58.277 244.994 61.7038 244.658 64.8182 243.368C67.9325 242.079 70.5945 239.895 72.4675 237.092C74.3404 234.29 75.34 230.995 75.34 227.624C75.3343 223.108 73.5386 218.779 70.3465 215.584C67.1544 212.39 62.8262 210.592 58.3104 210.583Z" fill="#263238"/>
<path d="M58.3107 232.39C56.9716 232.39 55.6626 231.993 54.5491 231.249C53.4357 230.505 52.5679 229.448 52.0554 228.211C51.543 226.973 51.4089 225.612 51.6701 224.299C51.9314 222.985 52.5762 221.779 53.5231 220.832C54.47 219.885 55.6765 219.24 56.9898 218.979C58.3032 218.718 59.6646 218.852 60.9018 219.364C62.1389 219.877 63.1964 220.745 63.9404 221.858C64.6843 222.971 65.0814 224.281 65.0814 225.62C65.0814 227.415 64.3681 229.137 63.0983 230.407C61.8286 231.677 60.1064 232.39 58.3107 232.39ZM58.3107 219.932C57.1859 219.932 56.0863 220.266 55.151 220.891C54.2157 221.516 53.4867 222.404 53.0563 223.443C52.6258 224.482 52.5132 225.626 52.7326 226.729C52.9521 227.832 53.4938 228.846 54.2891 229.641C55.0845 230.437 56.0979 230.978 57.2012 231.198C58.3044 231.417 59.448 231.305 60.4872 230.874C61.5264 230.444 62.4147 229.715 63.0396 228.779C63.6646 227.844 63.9981 226.744 63.9981 225.62C63.9953 224.112 63.3951 222.667 62.3292 221.601C61.2632 220.535 59.8182 219.935 58.3107 219.932Z" fill="#263238"/>
<path d="M58.3104 245.737C54.3748 245.742 50.5461 244.456 47.4123 242.075L47.1523 241.88V241.555C47.5885 238.925 48.944 236.535 50.9775 234.811C53.011 233.087 55.5903 232.141 58.2563 232.141C60.9222 232.141 63.5016 233.087 65.5351 234.811C67.5685 236.535 68.924 238.925 69.3602 241.555V241.88L69.1002 242.075C65.9952 244.432 62.2087 245.717 58.3104 245.737ZM48.3332 241.403C51.2313 243.515 54.7246 244.653 58.3104 244.653C61.8962 244.653 65.3896 243.515 68.2877 241.403C67.8291 239.095 66.5839 237.017 64.7646 235.523C62.9452 234.03 60.6643 233.213 58.3104 233.213C55.9566 233.213 53.6756 234.03 51.8563 235.523C50.0369 237.017 48.7918 239.095 48.3332 241.403Z" fill="#263238"/>
<path d="M58.3102 289.86C54.7278 289.86 51.2259 288.798 48.2472 286.807C45.2685 284.817 42.947 281.988 41.576 278.679C40.2051 275.369 39.8464 271.727 40.5453 268.213C41.2442 264.7 42.9693 261.472 45.5024 258.939C48.0356 256.406 51.263 254.681 54.7766 253.982C58.2901 253.283 61.932 253.642 65.2418 255.013C68.5515 256.384 71.3803 258.705 73.3706 261.684C75.3609 264.663 76.4232 268.165 76.4232 271.747C76.4146 276.548 74.5035 281.15 71.1085 284.545C67.7136 287.94 63.1114 289.851 58.3102 289.86ZM58.3102 254.717C54.9421 254.717 51.6496 255.716 48.8491 257.587C46.0486 259.459 43.8658 262.118 42.5769 265.23C41.288 268.342 40.9507 271.766 41.6078 275.069C42.2649 278.373 43.8868 281.407 46.2685 283.789C48.6501 286.17 51.6845 287.792 54.9879 288.449C58.2913 289.106 61.7154 288.769 64.8272 287.48C67.9389 286.191 70.5986 284.009 72.4699 281.208C74.3411 278.408 75.3399 275.115 75.3399 271.747C75.3341 267.232 73.5381 262.904 70.3457 259.712C67.1532 256.519 62.825 254.723 58.3102 254.717Z" fill="#263238"/>
<path d="M58.3107 276.514C56.9716 276.514 55.6626 276.117 54.5491 275.373C53.4357 274.629 52.5679 273.571 52.0554 272.334C51.543 271.097 51.4089 269.735 51.6701 268.422C51.9314 267.109 52.5762 265.902 53.5231 264.955C54.47 264.008 55.6765 263.364 56.9898 263.102C58.3032 262.841 59.6646 262.975 60.9018 263.488C62.1389 264 63.1964 264.868 63.9404 265.981C64.6843 267.095 65.0814 268.404 65.0814 269.743C65.0814 271.539 64.3681 273.261 63.0983 274.531C61.8286 275.8 60.1064 276.514 58.3107 276.514ZM58.3107 264.056C57.1859 264.056 56.0863 264.389 55.151 265.014C54.2157 265.639 53.4867 266.527 53.0563 267.566C52.6258 268.606 52.5132 269.749 52.7326 270.852C52.9521 271.956 53.4938 272.969 54.2891 273.765C55.0845 274.56 56.0979 275.102 57.2012 275.321C58.3044 275.54 59.448 275.428 60.4872 274.997C61.5264 274.567 62.4147 273.838 63.0396 272.903C63.6646 271.967 63.9981 270.868 63.9981 269.743C63.9953 268.235 63.3951 266.79 62.3292 265.724C61.2632 264.659 59.8182 264.058 58.3107 264.056Z" fill="#263238"/>
<path d="M58.3104 289.86C54.3761 289.869 50.5475 288.586 47.4123 286.209L47.1523 286.014V285.689C47.5885 283.059 48.944 280.669 50.9775 278.945C53.011 277.221 55.5903 276.275 58.2563 276.275C60.9222 276.275 63.5016 277.221 65.5351 278.945C67.5685 280.669 68.924 283.059 69.3602 285.689V286.014L69.1002 286.209C65.9939 288.562 62.2075 289.844 58.3104 289.86ZM48.3332 285.527C51.2313 287.638 54.7246 288.776 58.3104 288.776C61.8962 288.776 65.3896 287.638 68.2877 285.527C67.8291 283.218 66.5839 281.14 64.7646 279.646C62.9452 278.153 60.6643 277.337 58.3104 277.337C55.9566 277.337 53.6756 278.153 51.8563 279.646C50.0369 281.14 48.7918 283.218 48.3332 285.527Z" fill="#263238"/>
<path d="M358.182 398.332H272.146V399.415H358.182V398.332Z" fill="#263238"/>
<path d="M267.422 395.201H261.659V400.964H267.422V395.201Z" fill="#263238"/>
<path d="M358.182 410.92H272.146V412.003H358.182V410.92Z" fill="#263238"/>
<path d="M267.422 407.778H261.659V413.541H267.422V407.778Z" fill="#263238"/>
<path d="M358.182 423.497H272.146V424.58H358.182V423.497Z" fill="#263238"/>
<path d="M267.422 420.355H261.659V426.119H267.422V420.355Z" fill="#263238"/>
<path d="M358.182 436.074H272.146V437.158H358.182V436.074Z" fill="#263238"/>
<path d="M267.422 432.944H261.659V438.707H267.422V432.944Z" fill="#263238"/>
<path d="M407.007 460.449H194.678V328.339H407.007V460.449ZM195.761 459.366H405.923V329.422H195.761V459.366Z" fill="#263238"/>
<path d="M407.007 339.952H194.678V328.339H407.007V339.952ZM195.761 338.869H405.923V329.422H195.761V338.869Z" fill="#263238"/>
<path d="M251.109 340.147H250.025V458.791H251.109V340.147Z" fill="#263238"/>
<path d="M278.839 385.928C275.126 385.928 271.496 384.827 268.409 382.764C265.322 380.701 262.915 377.769 261.495 374.338C260.074 370.908 259.702 367.133 260.426 363.492C261.151 359.85 262.939 356.505 265.564 353.879C268.19 351.253 271.535 349.465 275.177 348.741C278.818 348.017 282.593 348.388 286.024 349.809C289.454 351.23 292.386 353.637 294.449 356.724C296.512 359.811 297.613 363.441 297.613 367.154C297.61 372.132 295.631 376.906 292.111 380.426C288.591 383.946 283.817 385.925 278.839 385.928ZM278.839 349.464C275.34 349.464 271.92 350.501 269.011 352.445C266.102 354.389 263.834 357.152 262.495 360.384C261.156 363.617 260.806 367.174 261.489 370.605C262.171 374.037 263.856 377.189 266.33 379.663C268.804 382.137 271.956 383.822 275.388 384.505C278.82 385.187 282.377 384.837 285.609 383.498C288.842 382.159 291.604 379.892 293.548 376.982C295.492 374.073 296.53 370.653 296.53 367.154C296.527 362.463 294.662 357.965 291.345 354.648C288.028 351.331 283.53 349.467 278.839 349.464Z" fill="#263238"/>
<path d="M278.84 372.083C277.454 372.083 276.099 371.672 274.946 370.902C273.793 370.132 272.895 369.037 272.365 367.756C271.834 366.476 271.695 365.066 271.966 363.707C272.236 362.347 272.904 361.098 273.884 360.118C274.864 359.138 276.113 358.47 277.473 358.2C278.832 357.929 280.242 358.068 281.522 358.599C282.803 359.129 283.898 360.028 284.668 361.18C285.438 362.333 285.849 363.688 285.849 365.074C285.846 366.932 285.107 368.713 283.793 370.027C282.479 371.341 280.698 372.08 278.84 372.083ZM278.84 359.148C277.668 359.148 276.522 359.496 275.548 360.147C274.573 360.798 273.814 361.724 273.365 362.806C272.917 363.889 272.8 365.081 273.028 366.23C273.257 367.38 273.821 368.436 274.65 369.264C275.479 370.093 276.535 370.657 277.684 370.886C278.834 371.115 280.025 370.997 281.108 370.549C282.191 370.1 283.116 369.341 283.767 368.366C284.418 367.392 284.766 366.246 284.766 365.074C284.763 363.503 284.138 361.998 283.027 360.887C281.916 359.777 280.411 359.151 278.84 359.148Z" fill="#263238"/>
<path d="M278.841 385.928C274.759 385.939 270.787 384.603 267.542 382.125L267.271 381.93L267.326 381.605C267.784 378.886 269.192 376.417 271.298 374.636C273.404 372.856 276.072 371.879 278.83 371.879C281.588 371.879 284.257 372.856 286.363 374.636C288.469 376.417 289.876 378.886 290.335 381.605L290.389 381.93L290.119 382.125C286.88 384.598 282.916 385.934 278.841 385.928ZM268.474 381.465C271.486 383.661 275.118 384.845 278.847 384.845C282.575 384.845 286.207 383.661 289.219 381.465C288.745 379.062 287.451 376.899 285.56 375.345C283.668 373.79 281.295 372.94 278.847 372.94C276.398 372.94 274.025 373.79 272.134 375.345C270.242 376.899 268.948 379.062 268.474 381.465Z" fill="#263238"/>
<path d="M223.332 375.127C221.489 375.129 219.686 374.585 218.152 373.562C216.618 372.539 215.423 371.084 214.716 369.381C214.01 367.678 213.824 365.804 214.183 363.996C214.543 362.188 215.43 360.527 216.734 359.223C218.037 357.919 219.698 357.032 221.506 356.673C223.315 356.314 225.189 356.499 226.892 357.206C228.594 357.912 230.049 359.108 231.072 360.642C232.095 362.175 232.64 363.978 232.638 365.822C232.635 368.289 231.654 370.654 229.909 372.399C228.165 374.143 225.799 375.124 223.332 375.127ZM223.332 357.588C221.703 357.586 220.111 358.067 218.755 358.971C217.4 359.874 216.343 361.159 215.718 362.663C215.093 364.168 214.929 365.823 215.245 367.421C215.562 369.019 216.345 370.487 217.496 371.64C218.647 372.792 220.114 373.577 221.711 373.896C223.309 374.214 224.964 374.052 226.47 373.429C227.975 372.806 229.261 371.751 230.166 370.397C231.071 369.043 231.555 367.45 231.555 365.822C231.552 363.641 230.685 361.55 229.144 360.007C227.603 358.464 225.513 357.594 223.332 357.588Z" fill="#263238"/>
<path d="M223.331 368.476C222.609 368.476 221.904 368.262 221.303 367.86C220.703 367.459 220.235 366.889 219.959 366.222C219.682 365.555 219.61 364.821 219.751 364.113C219.892 363.405 220.239 362.754 220.75 362.243C221.261 361.733 221.911 361.385 222.619 361.244C223.327 361.103 224.061 361.176 224.729 361.452C225.396 361.728 225.966 362.196 226.367 362.797C226.768 363.397 226.982 364.103 226.982 364.825C226.979 365.792 226.594 366.719 225.91 367.403C225.226 368.087 224.299 368.473 223.331 368.476ZM223.331 362.258C222.824 362.258 222.327 362.408 221.905 362.69C221.483 362.972 221.154 363.373 220.959 363.842C220.765 364.312 220.714 364.828 220.813 365.326C220.912 365.824 221.157 366.281 221.516 366.64C221.875 366.999 222.333 367.244 222.831 367.343C223.329 367.442 223.845 367.391 224.314 367.197C224.783 367.003 225.184 366.674 225.466 366.251C225.748 365.829 225.899 365.333 225.899 364.825C225.899 364.144 225.628 363.491 225.147 363.01C224.665 362.528 224.012 362.258 223.331 362.258Z" fill="#263238"/>
<path d="M223.332 375.127C221.31 375.132 219.342 374.474 217.731 373.253L217.46 373.047V372.722C217.691 371.348 218.401 370.099 219.465 369.199C220.529 368.298 221.878 367.804 223.272 367.804C224.666 367.804 226.015 368.298 227.079 369.199C228.143 370.099 228.853 371.348 229.084 372.722V373.047L228.824 373.253C227.24 374.448 225.315 375.105 223.332 375.127ZM218.652 372.581C220.031 373.518 221.659 374.019 223.326 374.019C224.993 374.019 226.622 373.518 228.001 372.581C227.746 371.533 227.147 370.601 226.3 369.934C225.452 369.267 224.405 368.905 223.326 368.905C222.248 368.905 221.2 369.267 220.353 369.934C219.505 370.601 218.906 371.533 218.652 372.581Z" fill="#263238"/>
<path d="M223.332 411.873C221.489 411.875 219.687 411.331 218.153 410.308C216.62 409.286 215.424 407.832 214.717 406.129C214.01 404.427 213.824 402.554 214.183 400.746C214.541 398.938 215.427 397.277 216.73 395.973C218.032 394.669 219.692 393.78 221.5 393.42C223.307 393.06 225.181 393.243 226.884 393.948C228.587 394.653 230.043 395.847 231.067 397.38C232.091 398.912 232.638 400.714 232.638 402.557C232.635 405.025 231.654 407.391 229.91 409.137C228.166 410.884 225.8 411.867 223.332 411.873ZM223.332 394.323C221.703 394.321 220.111 394.802 218.755 395.706C217.4 396.609 216.343 397.894 215.718 399.398C215.093 400.903 214.929 402.558 215.245 404.156C215.562 405.754 216.345 407.222 217.496 408.375C218.647 409.527 220.114 410.312 221.711 410.631C223.309 410.949 224.964 410.787 226.47 410.164C227.975 409.541 229.261 408.486 230.166 407.132C231.071 405.778 231.555 404.185 231.555 402.557C231.555 400.374 230.689 398.28 229.148 396.735C227.606 395.189 225.515 394.318 223.332 394.313V394.323Z" fill="#263238"/>
<path d="M223.331 405.2C222.609 405.2 221.904 404.986 221.303 404.585C220.703 404.184 220.235 403.613 219.959 402.946C219.682 402.279 219.61 401.545 219.751 400.837C219.892 400.129 220.239 399.478 220.75 398.968C221.261 398.457 221.911 398.109 222.619 397.969C223.327 397.828 224.061 397.9 224.729 398.176C225.396 398.453 225.966 398.921 226.367 399.521C226.768 400.121 226.982 400.827 226.982 401.549C226.982 402.029 226.888 402.503 226.704 402.946C226.521 403.389 226.252 403.792 225.913 404.131C225.574 404.47 225.171 404.739 224.729 404.922C224.286 405.106 223.811 405.2 223.331 405.2ZM223.331 398.982C222.824 398.982 222.327 399.132 221.905 399.414C221.483 399.697 221.154 400.098 220.959 400.567C220.765 401.036 220.714 401.552 220.813 402.05C220.912 402.548 221.157 403.006 221.516 403.365C221.875 403.724 222.333 403.968 222.831 404.067C223.329 404.166 223.845 404.116 224.314 403.921C224.783 403.727 225.184 403.398 225.466 402.976C225.748 402.553 225.899 402.057 225.899 401.549C225.899 400.868 225.628 400.215 225.147 399.734C224.665 399.252 224.012 398.982 223.331 398.982Z" fill="#263238"/>
<path d="M223.332 411.873C221.309 411.874 219.341 411.212 217.731 409.988L217.46 409.782V409.468C217.691 408.093 218.401 406.845 219.465 405.945C220.529 405.044 221.878 404.55 223.272 404.55C224.666 404.55 226.015 405.044 227.079 405.945C228.143 406.845 228.853 408.093 229.084 409.468V409.782L228.824 409.988C227.241 411.186 225.316 411.847 223.332 411.873ZM218.652 409.317C220.029 410.256 221.658 410.758 223.326 410.758C224.994 410.758 226.623 410.256 228.001 409.317C227.746 408.268 227.147 407.336 226.3 406.669C225.452 406.002 224.405 405.64 223.326 405.64C222.248 405.64 221.2 406.002 220.353 406.669C219.505 407.336 218.906 408.268 218.652 409.317Z" fill="#263238"/>
<path d="M223.332 448.587C221.489 448.589 219.687 448.044 218.153 447.022C216.62 445.999 215.424 444.545 214.717 442.843C214.01 441.141 213.824 439.267 214.183 437.459C214.541 435.651 215.427 433.99 216.73 432.686C218.032 431.382 219.692 430.494 221.5 430.133C223.307 429.773 225.181 429.957 226.884 430.662C228.587 431.367 230.043 432.561 231.067 434.093C232.091 435.625 232.638 437.427 232.638 439.27C232.635 441.738 231.654 444.105 229.91 445.851C228.166 447.597 225.8 448.581 223.332 448.587ZM223.332 431.037C221.703 431.035 220.111 431.516 218.755 432.419C217.4 433.323 216.343 434.608 215.718 436.112C215.093 437.616 214.929 439.272 215.245 440.87C215.562 442.467 216.345 443.935 217.496 445.088C218.647 446.24 220.114 447.026 221.711 447.344C223.309 447.663 224.964 447.5 226.47 446.878C227.975 446.255 229.261 445.199 230.166 443.845C231.071 442.491 231.555 440.899 231.555 439.27C231.552 437.089 230.685 434.998 229.144 433.455C227.603 431.912 225.513 431.043 223.332 431.037Z" fill="#263238"/>
<path d="M223.331 441.924C222.609 441.924 221.904 441.71 221.303 441.309C220.703 440.908 220.235 440.338 219.959 439.671C219.682 439.003 219.61 438.269 219.751 437.561C219.892 436.853 220.239 436.203 220.75 435.692C221.261 435.181 221.911 434.834 222.619 434.693C223.327 434.552 224.061 434.624 224.729 434.901C225.396 435.177 225.966 435.645 226.367 436.245C226.768 436.846 226.982 437.551 226.982 438.273C226.982 439.242 226.598 440.17 225.913 440.855C225.228 441.54 224.3 441.924 223.331 441.924ZM223.331 435.706C222.824 435.706 222.327 435.857 221.905 436.139C221.483 436.421 221.154 436.822 220.959 437.291C220.765 437.76 220.714 438.276 220.813 438.774C220.912 439.272 221.157 439.73 221.516 440.089C221.875 440.448 222.333 440.692 222.831 440.792C223.329 440.891 223.845 440.84 224.314 440.645C224.783 440.451 225.184 440.122 225.466 439.7C225.748 439.278 225.899 438.781 225.899 438.273C225.899 437.592 225.628 436.939 225.147 436.458C224.665 435.976 224.012 435.706 223.331 435.706Z" fill="#263238"/>
<path d="M223.332 448.587C221.308 448.592 219.339 447.93 217.731 446.702L217.46 446.496V446.182C217.691 444.807 218.401 443.558 219.465 442.658C220.529 441.758 221.878 441.264 223.272 441.264C224.666 441.264 226.015 441.758 227.079 442.658C228.143 443.558 228.853 444.807 229.084 446.182V446.496L228.824 446.702C227.244 447.904 225.317 448.566 223.332 448.587ZM218.652 446.03C220.029 446.969 221.658 447.472 223.326 447.472C224.994 447.472 226.623 446.969 228.001 446.03C227.746 444.982 227.147 444.049 226.3 443.383C225.452 442.716 224.405 442.353 223.326 442.353C222.248 442.353 221.2 442.716 220.353 443.383C219.505 444.049 218.906 444.982 218.652 446.03Z" fill="#263238"/>
<path d="M353.047 356.224H306.887V357.307H353.047V356.224Z" fill="#263238"/>
<path d="M353.047 366.84H306.887V367.923H353.047V366.84Z" fill="#263238"/>
<path d="M353.047 377.456H306.887V378.54H353.047V377.456Z" fill="#263238"/>
<path d="M410.539 292.557H264.292V77.4661H410.539V292.557ZM265.375 291.474H409.456V78.5494H265.375V291.474Z" fill="#263238"/>
<path d="M333.71 191.701C359.388 191.701 380.205 170.884 380.205 145.205C380.205 119.527 359.388 98.7098 333.71 98.7098C308.031 98.7098 287.214 119.527 287.214 145.205C287.214 170.884 308.031 191.701 333.71 191.701Z" fill="white"/>
<path d="M333.71 192.243C324.407 192.243 315.313 189.484 307.578 184.316C299.842 179.147 293.814 171.801 290.253 163.206C286.693 154.611 285.762 145.153 287.577 136.029C289.392 126.905 293.871 118.523 300.45 111.945C307.028 105.367 315.409 100.887 324.534 99.072C333.658 97.257 343.116 98.1885 351.711 101.749C360.306 105.309 367.652 111.338 372.82 119.073C377.989 126.808 380.748 135.902 380.748 145.205C380.733 157.676 375.773 169.632 366.955 178.45C358.137 187.268 346.181 192.229 333.71 192.243ZM333.71 99.2623C324.621 99.2623 315.736 101.958 308.178 107.008C300.621 112.058 294.731 119.235 291.253 127.633C287.775 136.031 286.866 145.271 288.64 154.186C290.414 163.1 294.792 171.288 301.22 177.715C307.648 184.141 315.837 188.517 324.752 190.289C333.667 192.061 342.907 191.149 351.304 187.669C359.7 184.189 366.877 178.298 371.925 170.739C376.973 163.181 379.666 154.295 379.664 145.205C379.65 133.023 374.803 121.344 366.188 112.731C357.573 104.118 345.893 99.2738 333.71 99.2623Z" fill="#263238"/>
<path d="M383.521 206.153H285.558V207.236H383.521V206.153Z" fill="#263238"/>
<path d="M383.521 216.119H285.558V217.202H383.521V216.119Z" fill="#263238"/>
<path d="M383.521 232.889H297.484V233.972H383.521V232.889Z" fill="#263238"/>
<path d="M292.771 229.747H287.008V235.51H292.771V229.747Z" fill="#263238"/>
<path d="M383.521 245.466H297.484V246.549H383.521V245.466Z" fill="#263238"/>
<path d="M292.771 242.335H287.008V248.098H292.771V242.335Z" fill="#263238"/>
<path d="M383.521 258.043H297.484V259.126H383.521V258.043Z" fill="#263238"/>
<path d="M292.771 254.912H287.008V260.676H292.771V254.912Z" fill="#263238"/>
<path d="M383.521 270.62H297.484V271.704H383.521V270.62Z" fill="#263238"/>
<path d="M292.771 267.49H287.008V273.253H292.771V267.49Z" fill="#263238"/>
<path d="M243.308 292.557H97.0615V77.4661H243.308V292.557ZM98.1448 291.474H242.225V78.5494H98.1448V291.474Z" fill="#263238"/>
<path d="M216.312 206.153H118.349V207.236H216.312V206.153Z" fill="#263238"/>
<path d="M216.312 216.119H118.349V217.202H216.312V216.119Z" fill="#263238"/>
<path d="M216.324 232.889H130.287V233.972H216.324V232.889Z" fill="#263238"/>
<path d="M125.563 229.747H119.8V235.51H125.563V229.747Z" fill="#263238"/>
<path d="M216.324 245.466H130.287V246.549H216.324V245.466Z" fill="#263238"/>
<path d="M125.563 242.335H119.8V248.098H125.563V242.335Z" fill="#263238"/>
<path d="M216.324 258.043H130.287V259.126H216.324V258.043Z" fill="#263238"/>
<path d="M125.563 254.912H119.8V260.676H125.563V254.912Z" fill="#263238"/>
<path d="M216.324 270.62H130.287V271.704H216.324V270.62Z" fill="#263238"/>
<path d="M125.563 267.49H119.8V273.253H125.563V267.49Z" fill="#263238"/>
<path d="M166.512 191.701C192.191 191.701 213.008 170.884 213.008 145.205C213.008 119.527 192.191 98.7098 166.512 98.7098C140.833 98.7098 120.017 119.527 120.017 145.205C120.017 170.884 140.833 191.701 166.512 191.701Z" fill="white"/>
<path d="M166.513 192.243C157.209 192.245 148.114 189.488 140.378 184.321C132.641 179.154 126.61 171.808 123.048 163.213C119.487 154.619 118.554 145.161 120.367 136.036C122.181 126.911 126.66 118.528 133.238 111.949C139.816 105.369 148.197 100.889 157.322 99.0727C166.446 97.2569 175.905 98.1878 184.5 101.748C193.096 105.307 200.443 111.336 205.612 119.072C210.781 126.807 213.54 135.902 213.54 145.205C213.525 157.674 208.566 169.628 199.751 178.446C190.935 187.264 178.982 192.226 166.513 192.243ZM166.513 99.2623C157.423 99.2601 148.537 101.954 140.978 107.002C133.42 112.051 127.528 119.228 124.048 127.625C120.569 136.023 119.658 145.264 121.431 154.179C123.203 163.094 127.58 171.283 134.008 177.711C140.435 184.138 148.624 188.515 157.54 190.288C166.455 192.061 175.696 191.15 184.093 187.67C192.491 184.191 199.667 178.299 204.716 170.74C209.765 163.181 212.458 154.295 212.456 145.205C212.442 133.025 207.597 121.347 198.984 112.735C190.371 104.122 178.694 99.2766 166.513 99.2623Z" fill="#263238"/>
<path d="M166.512 192.243C159.597 192.252 152.765 190.732 146.506 187.791C140.247 184.851 134.716 180.563 130.308 175.235C130.215 175.123 130.168 174.979 130.178 174.834C130.185 174.762 130.207 174.692 130.243 174.629C130.278 174.565 130.326 174.51 130.384 174.466L141.965 165.193C142.056 165.117 142.171 165.075 142.29 165.073L184.062 163.535C184.173 163.53 184.283 163.561 184.376 163.622L202.002 175.116C202.066 175.159 202.12 175.215 202.161 175.28C202.202 175.345 202.229 175.418 202.24 175.495C202.252 175.572 202.246 175.651 202.223 175.726C202.201 175.801 202.162 175.87 202.11 175.928C197.698 181.047 192.234 185.153 186.091 187.969C179.948 190.784 173.27 192.242 166.512 192.243ZM131.489 174.964C135.749 179.98 141.038 184.022 146.996 186.816C152.954 189.61 159.444 191.091 166.024 191.159C172.605 191.226 179.123 189.879 185.138 187.209C191.152 184.538 196.523 180.606 200.886 175.679L183.932 164.629L142.506 166.146L131.489 174.964Z" fill="#263238"/>
<path d="M194.505 115.274L193.562 114.732L236.505 40.406H247.241V41.4893H237.133L194.505 115.274Z" fill="#263238"/>
<path d="M283.454 40.9585H257.119V42.0418H283.454V40.9585Z" fill="#263238"/>
<path d="M283.454 47.545H257.119V48.6283H283.454V47.545Z" fill="#263238"/>
<path d="M283.454 54.1207H257.119V55.204H283.454V54.1207Z" fill="#263238"/>
<path d="M190.377 231.079C191.02 233.144 191.32 235.299 191.265 237.46C191.081 240.656 191.439 245.26 192.349 245.975C193.259 246.69 195.718 248.456 195.003 249.875C194.481 250.818 193.678 251.575 192.706 252.042C192.152 254.8 191.257 257.478 190.041 260.015C188.264 263.384 187.029 265.691 184.906 265.865C183.771 266.005 182.62 265.886 181.537 265.518L179.208 267.793L161.658 264.077L162.189 256.277C162.189 256.277 156.87 247.232 156.87 238.013C156.87 228.794 166.262 223.485 171.766 223.128C177.269 222.77 187.539 225.056 190.377 231.079Z" fill="white"/>
<path d="M179.382 268.367L161.085 264.543L161.637 256.44C160.933 255.183 156.329 246.777 156.329 238.024C156.329 228.415 166.198 222.955 171.734 222.597C176.88 222.272 187.788 224.352 190.865 230.884V230.949C191.534 233.075 191.845 235.297 191.786 237.525C191.569 241.263 192.089 245.108 192.642 245.585L192.88 245.769C194.072 246.701 196.292 248.445 195.447 250.102C194.912 251.061 194.111 251.843 193.14 252.356C192.581 255.078 191.686 257.72 190.475 260.221C188.666 263.665 187.355 266.146 184.907 266.352C183.816 266.465 182.714 266.373 181.657 266.081L179.382 268.367ZM162.233 263.622L179.035 267.186L181.386 264.825L181.722 264.976C182.725 265.296 183.784 265.403 184.831 265.29C186.608 265.139 187.723 263.178 189.543 259.722C190.73 257.233 191.604 254.605 192.143 251.901V251.619L192.403 251.5C193.257 251.097 193.967 250.443 194.44 249.626C194.895 248.727 192.923 247.177 192.176 246.592L191.938 246.397C190.67 245.39 190.529 239.822 190.67 237.439C190.721 235.355 190.432 233.276 189.814 231.285C187.193 225.782 177.475 223.28 171.745 223.648C166.577 223.984 157.358 229.065 157.358 237.991C157.358 246.917 162.547 255.887 162.601 255.974L162.688 256.126L162.233 263.622Z" fill="#263238"/>
<path d="M194.96 226.627C195.081 228.396 194.579 230.152 193.541 231.589C191.775 234.254 186.987 235.142 186.987 235.142C186.987 235.142 186.813 239.042 185.741 240.634C184.772 241.818 183.565 242.785 182.198 243.473C182.198 243.473 178.656 243.819 179.718 247.719C180.779 251.619 181.668 252.15 179.891 255.302C178.114 258.455 167.66 262.745 164.118 260.264C160.576 257.783 157.911 256.548 155.787 249.095C153.664 241.642 151.53 231.199 157.564 224.103C163.598 217.007 177.237 218.784 177.237 218.784C177.237 218.784 173.694 215.415 178.656 215.599C181.786 215.81 184.739 217.127 186.987 219.315C186.987 219.315 187.518 215.772 190.172 216.661C192.826 217.549 194.624 224.699 194.96 226.627Z" fill="#263238"/>
<path d="M167.129 261.618C165.968 261.677 164.816 261.382 163.825 260.773L162.915 260.145C159.774 257.978 157.282 256.288 155.332 249.312C153.014 241.198 151.129 230.971 157.217 223.821C162.309 217.831 172.383 217.939 176.045 218.188C175.824 217.916 175.672 217.595 175.602 217.252C175.532 216.908 175.546 216.553 175.644 216.216C175.98 215.415 176.987 215.057 178.742 215.133C181.697 215.314 184.512 216.455 186.759 218.383C186.997 217.579 187.501 216.88 188.189 216.401C188.514 216.211 188.877 216.096 189.252 216.066C189.627 216.036 190.005 216.091 190.355 216.227C193.746 217.311 195.49 226.475 195.501 226.562C195.637 228.463 195.104 230.352 193.995 231.903C192.414 234.275 188.741 235.304 187.496 235.597C187.42 236.68 187.127 239.551 186.196 240.948C185.178 242.215 183.895 243.243 182.436 243.96L182.252 244.014C181.53 244.131 180.879 244.518 180.432 245.097C180.216 245.48 180.086 245.905 180.052 246.343C180.018 246.781 180.082 247.222 180.237 247.632C180.454 248.423 180.66 249.073 180.844 249.626C181.559 251.89 181.927 252.876 180.367 255.66C179.219 257.729 174.756 260.231 170.412 261.228C169.335 261.477 168.234 261.608 167.129 261.618ZM173.553 219.206C169.155 219.206 161.875 219.965 157.997 224.525C152.245 231.285 154.086 241.165 156.329 249.019C158.214 255.616 160.445 257.144 163.533 259.256L164.453 259.885C165.537 260.654 167.584 260.74 170.195 260.145C174.138 259.235 178.461 256.895 179.447 255.107C180.736 252.767 180.53 252.107 179.837 249.929C179.652 249.355 179.436 248.694 179.219 247.892C179.015 247.329 178.94 246.727 179 246.13C179.06 245.534 179.253 244.959 179.566 244.447C180.17 243.646 181.064 243.113 182.057 242.963C183.311 242.329 184.418 241.44 185.307 240.353C186.109 239.15 186.391 236.182 186.456 235.131V234.709L186.878 234.622C186.878 234.622 191.46 233.744 193.085 231.372C194.034 230.039 194.504 228.424 194.418 226.79C193.93 224.103 192.143 218.004 189.998 217.289C189.786 217.202 189.557 217.164 189.329 217.177C189.1 217.191 188.877 217.255 188.676 217.365C188.035 217.92 187.619 218.691 187.506 219.531L187.344 220.615L186.586 219.824C184.429 217.744 181.611 216.486 178.623 216.271C176.857 216.206 176.597 216.617 176.565 216.704C176.402 217.083 177.074 218.026 177.594 218.524L178.797 219.607L177.161 219.401C175.963 219.266 174.759 219.201 173.553 219.206Z" fill="#263238"/>
<path d="M183.64 246.127C183.64 246.127 180.628 240.461 178.321 242.584C176.013 244.708 178.321 256.05 182.221 253.927" fill="white"/>
<path d="M181.256 254.793C180.765 254.758 180.29 254.603 179.873 254.342C179.456 254.082 179.109 253.723 178.861 253.298C176.879 250.536 176.034 244.014 177.951 242.238C178.196 241.999 178.493 241.822 178.818 241.721C179.144 241.619 179.489 241.596 179.826 241.653C181.992 242.021 183.91 245.531 184.159 245.932L183.205 246.441C182.696 245.487 181.039 242.953 179.685 242.714C179.511 242.687 179.334 242.703 179.168 242.759C179.002 242.816 178.852 242.912 178.731 243.039C177.345 244.307 177.984 250.157 179.815 252.659C180.898 254.143 181.743 253.666 182.036 253.504L182.555 254.457C182.161 254.685 181.711 254.801 181.256 254.793Z" fill="#263238"/>
<path d="M196.575 242.953H182.221V244.036H196.575V242.953Z" fill="#263238"/>
<path d="M195.436 248.174L194.786 247.307C195.415 246.841 195.893 246.2 196.159 245.464C196.425 244.728 196.467 243.93 196.281 243.169C196.122 242.474 195.776 241.836 195.279 241.324C194.782 240.812 194.155 240.446 193.465 240.266C192.602 240.038 191.687 240.102 190.865 240.45L190.442 239.443C191.473 239.019 192.613 238.939 193.692 239.215C194.61 239.464 195.44 239.966 196.086 240.664C196.732 241.362 197.168 242.228 197.346 243.163C197.523 244.097 197.434 245.062 197.089 245.949C196.743 246.835 196.156 247.606 195.393 248.174H195.436Z" fill="#263238"/>
<path d="M183.217 272.949C183.217 272.949 183.217 268.995 178.017 266.027C172.817 263.059 162.417 259.094 157.705 259.527C152.992 259.961 150.284 266.71 150.284 266.71C150.284 266.71 168.852 268.443 173.305 269.429C176.703 270.319 180.019 271.497 183.217 272.949Z" fill="white"/>
<path d="M183.759 273.794L182.99 273.448C179.843 272.029 176.581 270.88 173.24 270.014C168.907 269.05 150.49 267.316 150.284 267.305L149.559 267.24L149.84 266.558C149.949 266.276 152.733 259.571 157.705 259.051C162.677 258.531 172.98 262.495 178.288 265.55C183.596 268.605 183.77 272.776 183.77 272.949L183.759 273.794ZM151.097 266.298C154.683 266.634 169.448 268.075 173.424 268.963C176.542 269.739 179.59 270.775 182.535 272.061C182.21 270.804 181.17 268.454 177.746 266.493C172.644 263.579 162.309 259.636 157.77 260.123C154.293 260.491 151.909 264.64 151.097 266.298Z" fill="#263238"/>
<path d="M105.467 298.7C105.467 298.7 99.5303 305.633 91.6005 315.545C83.6706 325.458 77.2466 335.597 77.2466 335.597C77.2466 335.597 69.8151 342.032 68.8293 344.751C67.8435 347.47 65.3627 355.4 64.3661 357.632C63.3694 359.863 67.8326 356.884 68.5801 355.151C69.0109 354.131 69.5066 353.139 70.0643 352.183L76.4991 349.215C76.4991 349.215 74.5167 354.165 76.4991 354.902C78.4816 355.639 78.7308 352.183 80.9515 349.485C83.1723 346.788 85.1656 344.773 85.4148 341.556C85.5581 339.33 85.5581 337.097 85.4148 334.872L117.102 314.289L105.467 298.7Z" fill="white"/>
<path d="M64.5182 358.964C64.3875 358.971 64.2573 358.946 64.1384 358.891C64.0196 358.836 63.9158 358.754 63.8357 358.65C63.7333 358.46 63.6797 358.248 63.6797 358.033C63.6797 357.817 63.7333 357.605 63.8357 357.415C64.4532 356.039 65.6557 352.41 66.7065 349.225C67.3348 347.33 67.909 345.585 68.2881 344.567C69.2739 341.848 76.0338 335.901 76.7921 335.24C77.3771 334.33 83.6278 324.591 91.146 315.199C98.9891 305.449 104.969 298.418 105.023 298.353L105.467 297.833L117.85 314.44L85.9786 335.132C86.1111 337.278 86.1111 339.431 85.9786 341.577C85.7402 344.589 84.0936 346.571 82.1762 348.868L81.3962 349.8C80.671 350.748 80.0568 351.777 79.5654 352.865C78.7746 354.501 78.0162 356.05 76.3154 355.411C76.0959 355.326 75.8955 355.198 75.7262 355.034C75.5569 354.87 75.4221 354.674 75.3296 354.458C74.8205 353.309 75.2213 351.468 75.5896 350.233L70.4547 352.605C69.9514 353.501 69.4958 354.424 69.0898 355.368C68.0879 357.051 66.522 358.326 64.6699 358.964H64.5182ZM105.435 299.577C103.962 301.376 98.6425 307.615 92.0451 315.881C84.2344 325.631 77.7887 335.781 77.7237 335.89L77.6154 336.009C75.5788 337.764 70.1297 342.812 69.3606 344.935C68.9923 345.954 68.4181 347.676 67.7898 349.561C66.7065 352.724 65.5582 356.299 64.919 357.773C66.2153 357.133 67.3154 356.157 68.1039 354.945C68.5455 353.9 69.052 352.883 69.6206 351.901L69.7072 351.76L77.5287 348.153L77.0196 349.41C76.6621 350.32 75.8388 352.898 76.3371 354.014C76.3696 354.101 76.4201 354.182 76.4854 354.249C76.5507 354.316 76.6294 354.369 76.7163 354.404C77.3879 354.653 77.7129 354.198 78.6012 352.389C79.1244 351.232 79.7826 350.141 80.562 349.139L81.342 348.196C83.2161 345.954 84.6894 344.177 84.8953 341.523C85.0315 339.322 85.0315 337.115 84.8953 334.915V334.59L85.1661 334.417L116.365 314.18L105.435 299.577Z" fill="#263238"/>
<path d="M70.5085 352.486L69.6094 351.879L72.6535 347.297H72.8593C74.1976 346.899 75.4764 346.323 76.6617 345.585C77.7122 344.941 78.6341 344.107 79.3808 343.126L80.2692 343.755C79.4298 344.838 78.4068 345.766 77.2467 346.495C76.0281 347.262 74.713 347.863 73.336 348.283L70.5085 352.486Z" fill="#263238"/>
<path d="M213.072 288.993L221.1 272.126C221.599 269.6 222.243 267.104 223.028 264.651C223.58 263.687 226.906 258.433 228.152 258.292C229.398 258.151 230.644 258.704 230.784 259.809C230.857 260.484 230.709 261.164 230.362 261.748C231.602 262.384 232.688 263.283 233.547 264.38C234.478 265.65 235.051 267.147 235.204 268.714C235.486 269.797 236.45 269.959 235.345 272.31C234.24 274.661 232.442 275.354 231.467 276.037C230.401 276.705 229.294 277.306 228.152 277.835C228.152 277.835 228.011 293.749 226.072 299.978C224.133 306.207 222.757 308.276 222.757 308.276C222.757 308.276 219.431 296.934 217.503 294.713C215.575 292.492 213.072 288.993 213.072 288.993Z" fill="white"/>
<path d="M222.561 309.489L222.236 308.406C221.316 305.286 218.618 296.793 217.091 295.049C215.162 292.882 212.66 289.372 212.628 289.34L212.443 289.08L220.579 271.974C221.076 269.407 221.738 266.874 222.561 264.391C222.561 264.337 226.342 257.956 228.086 257.761C229.83 257.566 231.152 258.433 231.336 259.755C231.409 260.358 231.327 260.969 231.098 261.531C232.218 262.18 233.203 263.037 234.001 264.055C234.861 265.165 235.417 266.479 235.615 267.869C235.615 268.107 235.702 268.335 235.756 268.551C235.815 268.77 235.906 268.978 236.027 269.169C236.45 269.949 236.71 270.685 235.854 272.505C235.125 274.024 233.924 275.267 232.43 276.048C232.203 276.189 231.986 276.319 231.802 276.449C230.811 277.081 229.779 277.649 228.715 278.149C228.715 280.543 228.422 294.301 226.613 300.108C224.674 306.326 223.287 308.46 223.222 308.547L222.561 309.489ZM213.7 288.907C214.317 289.752 216.311 292.46 217.903 294.323C219.496 296.186 221.966 303.78 222.897 306.825C223.954 304.541 224.845 302.184 225.562 299.772C227.447 293.695 227.61 277.954 227.61 277.792V277.456L227.924 277.304C229.041 276.789 230.127 276.207 231.174 275.56C231.38 275.419 231.607 275.268 231.867 275.116C233.176 274.436 234.232 273.354 234.879 272.029C235.561 270.566 235.355 270.198 235.074 269.678C234.91 269.404 234.786 269.109 234.705 268.8C234.64 268.562 234.597 268.324 234.543 268.064C234.384 266.838 233.898 265.678 233.135 264.705C232.328 263.68 231.312 262.838 230.155 262.235L229.581 261.975L229.939 261.445C230.209 260.972 230.323 260.426 230.264 259.885C230.166 259.094 229.181 258.726 228.227 258.801C227.274 258.877 224.674 262.885 223.526 264.89C222.742 267.284 222.116 269.726 221.652 272.202V272.321L213.7 288.907Z" fill="#263238"/>
<path d="M116.365 335.099C116.365 335.099 105.803 362.333 103.994 368.682C102.185 375.03 97.9055 387.91 96.0855 404.268C95.475 410.922 95.5077 417.619 96.183 424.266C93.3222 429.952 90.7903 435.797 88.5998 441.773C84.6782 452.335 71.3535 504.724 71.3535 504.724C71.3535 504.724 73.7693 508.353 79.2075 507.443L84.6241 506.533C85.9383 506.697 87.2723 506.594 88.5457 506.23C90.7123 505.634 95.4897 505.937 95.793 503.825C96.0963 501.712 94.5797 501.106 92.7706 498.993C90.9614 496.881 88.2423 490.229 88.2423 490.229C88.2423 490.229 103.387 463.764 108.825 454.122C114.263 444.481 121.825 426.379 122.139 423.66C122.453 420.941 137.544 381.01 137.544 381.01H140.87L164.702 420.897C164.702 420.897 163.792 436.898 166.512 446.258C169.231 455.617 175.546 490.955 175.546 490.955L174.94 497.303C175.475 498.566 175.881 499.88 176.153 501.225V504.54C176.153 504.54 177.052 506.706 183.097 506.706C185.805 506.706 194.873 505.796 196.378 505.493C197.884 505.19 209.378 504.886 209.66 503.38C209.941 501.875 210.266 500.661 208.457 500.055C206.648 499.448 193.659 493.414 193.659 493.414V487.997C192.375 487.048 191.338 485.803 190.637 484.368C190.041 482.559 191.243 433.951 190.637 425.501C190.03 417.051 190.94 417.051 188.524 409.501C186.109 401.95 176.543 348.965 176.543 348.965L171.657 340.548L120.341 329.986L116.365 335.099Z" fill="#263238"/>
<path d="M77.5173 508.115C76.2555 508.162 75.0005 507.908 73.8567 507.373C72.713 506.838 71.7135 506.037 70.9416 505.038L70.8008 504.832L70.8658 504.605C70.9958 504.074 84.2338 452.064 88.1229 441.599C90.3047 435.658 92.8072 429.839 95.6194 424.169C94.9665 417.534 94.9411 410.853 95.5436 404.214C96.9007 393.067 99.2795 382.069 102.65 371.357C102.953 370.274 103.235 369.375 103.473 368.541C105.272 362.247 115.747 335.196 115.856 334.958L115.932 334.828L120.091 329.412L120.427 329.477L171.982 340.093L177.063 348.89C177.16 349.42 186.661 401.853 189.044 409.284C190.305 412.647 190.94 416.212 190.918 419.803C190.918 421.211 191.005 422.966 191.178 425.404C191.492 429.737 191.33 444.394 191.178 458.521C191.048 470.643 190.907 483.177 191.178 484.152C191.847 485.476 192.815 486.626 194.006 487.51L194.222 487.672V493.024C196.216 493.956 207.038 498.971 208.641 499.524C210.808 500.261 210.526 501.896 210.245 503.337V503.467C210.006 504.637 207.569 505.157 199.411 505.753C198.09 505.85 196.941 505.926 196.584 506.002C194.981 506.327 185.881 507.226 183.194 507.226C176.976 507.226 175.86 505.06 175.752 504.778V504.572V501.246C175.493 499.967 175.101 498.718 174.582 497.52L174.528 497.401L175.134 490.998C174.809 489.2 168.732 455.476 166.11 446.453C163.489 437.429 164.171 422.901 164.269 421.081L140.533 381.541H137.901C133.568 392.883 122.919 421.547 122.735 423.692C122.431 426.455 114.816 444.643 109.356 454.361C104.253 463.428 90.452 487.618 88.9571 490.251C89.4554 491.453 91.752 496.816 93.2903 498.614C93.767 499.166 94.222 499.621 94.6228 500.011C95.7819 501.16 96.6919 502.059 96.4319 503.879C96.1719 505.699 93.4745 506.045 91.0912 506.37C90.3206 506.432 89.5562 506.555 88.8054 506.739C87.4812 507.108 86.0982 507.219 84.7322 507.064L79.3806 507.952C78.7654 508.06 78.1419 508.114 77.5173 508.115ZM71.9816 504.594C72.8558 505.592 73.9847 506.334 75.2479 506.74C76.511 507.147 77.8608 507.202 79.1531 506.901L84.6672 505.98H84.7647C85.9997 506.126 87.2513 506.027 88.4479 505.688C89.26 505.495 90.0857 505.364 90.9179 505.298C92.8028 505.07 95.1536 504.8 95.3053 503.716C95.4894 502.449 94.8936 501.853 93.8103 500.791C93.3878 500.369 92.9111 499.903 92.4128 499.318C90.5712 497.151 87.9063 490.652 87.7979 490.413L87.6896 490.175L87.8304 489.947C87.9821 489.677 102.997 463.374 108.348 453.83C113.7 444.286 121.348 426.27 121.597 423.573C121.846 420.876 136.395 382.407 137.013 380.804L137.154 380.457H141.151L165.222 420.756V420.919C165.222 421.071 164.345 436.93 167.01 446.095C169.675 455.26 176.012 490.511 176.077 490.836V490.955L175.481 497.238C176.039 498.522 176.442 499.868 176.684 501.246V504.42C176.922 504.745 178.233 506.143 183.086 506.143C185.816 506.143 194.894 505.211 196.259 504.94C196.692 504.854 197.754 504.778 199.227 504.67C201.773 504.485 208.522 503.987 209.14 503.185V503.12C209.454 501.539 209.497 500.954 208.262 500.553C206.442 499.946 193.941 494.14 193.41 493.891L193.096 493.739V488.225C191.807 487.253 190.779 485.976 190.106 484.509C189.802 483.588 189.889 474.044 190.106 458.51C190.257 445.055 190.431 429.813 190.106 425.48C189.932 423.01 189.889 421.255 189.846 419.836C189.873 416.344 189.256 412.877 188.026 409.609C185.653 402.199 176.608 352.41 176.023 349.182L171.3 341.057L120.536 330.625L116.841 335.413C116.224 336.984 106.258 362.778 104.513 368.866L103.69 371.693C100.34 382.319 97.9753 393.231 96.6269 404.29C96.027 410.904 96.056 417.56 96.7136 424.169V424.331L96.6377 424.483C93.8088 430.152 91.2988 435.975 89.1196 441.924C85.4038 451.956 72.9891 500.705 71.9816 504.594Z" fill="#263238"/>
<path d="M210.202 289.546C210.202 289.546 211.187 286.296 215.402 287.812C219.616 289.329 226.04 301.43 224.556 307.865C223.071 314.299 219.139 316.531 215.651 316.282C212.162 316.033 207.97 311.829 208.956 311.331C209.942 310.833 210.202 289.546 210.202 289.546Z" fill="white"/>
<path d="M216.15 316.845H215.608C212.423 316.618 208.578 313.259 208.296 311.829C208.253 311.668 208.259 311.497 208.313 311.339C208.367 311.181 208.467 311.043 208.599 310.941C209.141 309.706 209.553 299.079 209.683 289.557V289.405C210.008 288.503 210.662 287.756 211.513 287.314C212.154 287.033 212.845 286.888 213.545 286.888C214.244 286.888 214.935 287.033 215.576 287.314C220.245 288.961 226.615 301.397 225.087 307.995C223.56 314.592 219.584 316.845 216.15 316.845ZM209.379 311.678C209.672 312.577 212.911 315.545 215.684 315.74C218.772 315.979 222.596 313.974 224.036 307.745C225.477 301.516 218.977 289.643 215.218 288.322C214.717 288.098 214.177 287.976 213.628 287.963C213.079 287.95 212.534 288.046 212.023 288.246C211.442 288.543 210.988 289.039 210.744 289.643C210.517 308.244 209.791 311.125 209.379 311.678Z" fill="#263238"/>
<path d="M118.586 286.567C118.586 286.567 116.853 286.567 114.383 286.328C111.913 286.09 108.436 290.282 106.453 292.763C104.471 295.244 102.001 296.728 103.734 301.917C105.467 307.106 110.169 313.834 117.102 314.299C121.02 314.685 124.933 313.518 128 311.049L118.586 286.567Z" fill="white"/>
<path d="M118.38 314.884C117.958 314.884 117.514 314.884 117.07 314.884C110.277 314.397 105.218 308.135 103.225 302.134C101.654 297.443 103.42 295.461 105.121 293.543C105.424 293.197 105.738 292.839 106.031 292.46C108.771 289.037 111.924 285.548 114.437 285.819C116.95 286.09 118.575 286.057 118.586 286.057H118.965L128.639 311.266L128.369 311.515C125.545 313.79 122.004 314.984 118.38 314.884ZM114.166 286.859C111.881 286.859 108.262 291.377 106.886 293.099C106.572 293.489 106.247 293.857 105.922 294.182C104.222 296.1 102.878 297.616 104.243 301.766C105.608 305.915 109.952 313.292 117.145 313.758C120.779 314.083 124.406 313.074 127.35 310.919L118.218 287.087C117.579 287.087 116.16 287.022 114.329 286.837L114.166 286.859Z" fill="#263238"/>
<path d="M150.284 266.764C150.284 266.764 146.319 266.265 137.902 270.978C129.484 275.69 111.415 290.282 110.169 292.763C108.923 295.244 112.401 306.38 116.853 308.363C119.506 309.546 122.499 309.719 125.27 308.85L116.365 335.099C116.365 335.099 126.267 334.601 142.852 337.58C159.438 340.559 176.543 348.965 176.543 348.965C176.543 348.965 177.789 348.716 178.038 345.499C178.211 343.156 178.883 340.876 180.01 338.815C180.757 337.331 190.161 305.384 190.161 305.384C190.161 305.384 208.739 313.563 213.69 313.563C218.641 313.563 220.374 304.647 218.392 297.963C216.409 291.279 212.206 289.297 212.206 289.297C208.425 288.037 204.903 286.107 201.806 283.598C197.094 279.644 183.238 272.949 183.238 272.949C183.238 272.949 163.403 264.543 150.284 266.764Z" fill="#263238"/>
<path d="M176.457 349.529L176.283 349.453C176.121 349.366 159.08 341.035 142.755 338.111C126.429 335.186 116.484 335.641 116.387 335.641H115.596L124.436 309.641C121.817 310.203 119.087 309.922 116.636 308.84C113.386 307.41 111.22 302.047 110.689 300.433C109.735 297.768 108.901 294.096 109.692 292.514C111.014 289.86 129.311 275.181 137.642 270.49C145.539 266.07 149.558 266.157 150.262 266.211C163.381 264.045 182.61 272.104 183.422 272.44C184.018 272.733 197.429 279.211 202.131 283.176C205.174 285.63 208.63 287.522 212.336 288.766C212.596 288.874 216.864 290.932 218.89 297.801C220.385 302.838 219.789 308.937 217.514 311.992C217.089 312.625 216.517 313.146 215.848 313.512C215.178 313.878 214.431 314.077 213.668 314.094C209.086 314.094 193.703 307.518 190.485 306.12C189.164 310.616 181.18 337.634 180.476 339.042C179.38 341.048 178.723 343.263 178.547 345.542C178.287 348.998 176.912 349.442 176.63 349.496L176.457 349.529ZM118.044 334.536C126.406 334.653 134.742 335.49 142.961 337.038C158.365 339.801 174.377 347.33 176.543 348.359C176.782 348.164 177.334 347.503 177.497 345.455C177.67 343.042 178.365 340.695 179.533 338.576C180.118 337.385 187.03 314.104 189.651 305.232L189.825 304.647L190.388 304.896C190.572 304.972 208.902 313.021 213.69 313.021C214.285 313.006 214.867 312.846 215.386 312.555C215.905 312.265 216.345 311.852 216.669 311.353C218.76 308.547 219.28 302.86 217.871 298.115C215.987 291.734 212.011 289.806 211.967 289.784C208.146 288.522 204.586 286.576 201.459 284.043C196.866 280.164 183.151 273.534 183.043 273.459C182.935 273.383 163.262 265.139 150.435 267.316H150.36H150.284C150.208 267.316 146.297 266.959 138.227 271.454C129.668 276.243 111.848 290.759 110.721 293.012C110.299 293.857 110.526 296.62 111.805 300.097C113.235 304.051 115.282 307.041 117.221 307.875C119.744 308.995 122.586 309.168 125.227 308.363L126.31 307.962L117.275 334.546L118.044 334.536Z" fill="#263238"/>
<path d="M192.663 306.543L180.605 303.683L180.865 302.632L187.625 304.235L182.642 300.628L183.281 299.751L192.663 306.543Z" fill="#263238"/>
<path d="M134.411 278.463L133.124 282.487L134.156 282.817L135.443 278.793L134.411 278.463Z" fill="#263238"/>
<path d="M131.886 286.366L124.753 308.663L125.785 308.993L132.918 286.696L131.886 286.366Z" fill="#263238"/>
<defs>
<filter id="filter0_d_2_216" x="0.330469" y="0.736597" width="549.718" height="555.053" filterUnits="userSpaceOnUse" color-interpolation-filters="sRGB">
<feFlood flood-opacity="0" result="BackgroundImageFix"/>
<feColorMatrix in="SourceAlpha" type="matrix" values="0 0 0 0 0 0 0 0 0 0 0 0 0 0 0 0 0 0 127 0" result="hardAlpha"/>
<feOffset dy="4"/>
<feGaussianBlur stdDeviation="10.45"/>
<feComposite in2="hardAlpha" operator="out"/>
<feColorMatrix type="matrix" values="0 0 0 0 0 0 0 0 0 0 0 0 0 0 0 0 0 0 0.25 0"/>
<feBlend mode="normal" in2="BackgroundImageFix" result="effect1_dropShadow_2_216"/>
<feBlend mode="normal" in="SourceGraphic" in2="effect1_dropShadow_2_216" result="shape"/>
</filter>
</defs>
</svg>
