<svg width="45" height="46" viewBox="0 0 45 46" fill="none" xmlns="http://www.w3.org/2000/svg">
<path d="M37.3047 7.93488H8.42969C7.15375 7.93627 5.93047 8.45527 5.02824 9.378C4.12602 10.3007 3.61855 11.5518 3.61719 12.8568V33.9505C3.61855 35.2554 4.12602 36.5065 5.02824 37.4293C5.93047 38.352 7.15375 38.871 8.42969 38.8724H37.3047C38.5806 38.871 39.8039 38.352 40.7061 37.4293C41.6084 36.5065 42.1158 35.2554 42.1172 33.9505V12.8568C42.1158 11.5518 41.6084 10.3007 40.7061 9.378C39.8039 8.45527 38.5806 7.93627 37.3047 7.93488ZM36.0861 16.0762L23.7111 25.9199C23.4698 26.1118 23.1728 26.2159 22.8672 26.2159C22.5615 26.2159 22.2646 26.1118 22.0233 25.9199L9.64828 16.0762C9.50289 15.9639 9.38076 15.8232 9.28901 15.6622C9.19725 15.5012 9.13769 15.3232 9.11379 15.1384C9.08989 14.9537 9.10213 14.766 9.14979 14.5861C9.19745 14.4063 9.27958 14.2379 9.39141 14.0908C9.50325 13.9437 9.64255 13.8208 9.80123 13.7292C9.95991 13.6377 10.1348 13.5793 10.3157 13.5574C10.4967 13.5356 10.6801 13.5507 10.8552 13.602C11.0304 13.6533 11.1938 13.7396 11.3361 13.8561L22.8672 23.0283L34.3983 13.8561C34.6866 13.6334 35.0491 13.5357 35.4073 13.5842C35.7655 13.6326 36.0906 13.8234 36.3124 14.1151C36.5342 14.4068 36.6348 14.7761 36.5924 15.1431C36.5501 15.5101 36.3682 15.8453 36.0861 16.0762Z" fill="#00ABB6"/>
</svg>
