<svg width="46" height="46" viewBox="0 0 46 46" fill="none" xmlns="http://www.w3.org/2000/svg">
<g clip-path="url(#clip0_2_365)">
<path fill-rule="evenodd" clip-rule="evenodd" d="M31.9023 42.403C29.2023 42.3036 21.5504 41.2461 13.5367 33.2343C5.52481 25.2205 4.46918 17.5705 4.36793 14.8686C4.21793 10.7511 7.37168 6.75176 11.0148 5.18988C11.4535 5.00045 11.9339 4.92832 12.4089 4.98059C12.8839 5.03285 13.3372 5.20771 13.7242 5.48801C16.7242 7.67426 18.7942 10.9818 20.5717 13.5824C20.9628 14.1538 21.13 14.849 21.0415 15.5358C20.953 16.2225 20.6149 16.8526 20.0917 17.3061L16.4336 20.023C16.2568 20.1506 16.1324 20.3381 16.0835 20.5505C16.0345 20.7629 16.0643 20.9859 16.1673 21.178C16.9961 22.6836 18.4698 24.9261 20.1573 26.6136C21.8467 28.3011 24.1942 29.8724 25.8048 30.7949C26.0068 30.9082 26.2445 30.9399 26.469 30.8834C26.6936 30.8269 26.888 30.6866 27.0123 30.4911L29.3936 26.8668C29.8313 26.2852 30.4772 25.8956 31.1958 25.7796C31.9144 25.6636 32.65 25.8301 33.2486 26.2443C35.8867 28.0705 38.9654 30.1049 41.2192 32.9905C41.5222 33.3803 41.715 33.8444 41.7773 34.3342C41.8397 34.824 41.7693 35.3216 41.5736 35.7749C40.0042 39.4368 36.0329 42.5549 31.9023 42.403Z" fill="#00ABB6"/>
</g>
<defs>
<clipPath id="clip0_2_365">
<rect width="45" height="45" fill="white" transform="translate(0.867188 0.903625)"/>
</clipPath>
</defs>
</svg>
