<svg width="739" height="769" viewBox="0 0 739 769" fill="none" xmlns="http://www.w3.org/2000/svg">
<path opacity="0.17" fill-rule="evenodd" clip-rule="evenodd" d="M84.4894 174.492L231.455 2.39523C234.708 -1.41408 240.943 0.627445 241.313 5.62305L247.962 95.364C269.976 94.6701 292.492 94.9775 315.511 96.2864C342.901 97.7891 370.722 100.797 398.973 105.309C427.294 109.563 455.068 115.337 482.296 122.633C519.896 132.708 552.747 144.429 580.85 157.795C608.762 170.833 632.748 185.042 652.807 200.422C672.606 215.733 688.678 231.99 701.022 249.194C713.435 266.139 722.683 283.486 728.766 301.236C734.66 318.657 737.751 336.161 738.042 353.748C738.073 371.266 735.865 388.323 731.418 404.919C723.914 432.924 711.643 455.901 694.605 473.848C677.567 491.795 657.578 505.199 634.637 514.06C611.436 522.851 586.451 527.413 559.681 527.744C532.652 528.005 505.524 524.488 478.296 517.193C461.959 512.815 444.864 507.123 427.008 500.115C408.963 492.779 390.823 485.278 372.588 477.612C354.094 469.878 335.79 462.472 317.675 455.394C299.63 448.058 282.18 442.131 265.325 437.615C226.947 427.332 196.815 426.206 174.93 434.239C153.114 442.012 139.253 456.919 133.347 478.96C129.665 492.704 130.02 506.417 134.413 520.101C138.548 533.716 147.636 546.99 161.68 559.925C175.534 572.531 194.637 584.737 218.988 596.542C243.409 608.089 273.901 618.76 310.464 628.557C340.804 636.687 369.944 642.549 397.885 646.145C425.567 649.672 452.499 651.329 478.68 651.119C504.932 650.648 530.787 648.544 556.247 644.804C579.83 641.008 603.46 636.134 627.137 630.184C629.998 629.465 632.937 631.066 633.865 633.866L669.291 740.808C670.308 743.877 668.528 747.169 665.394 747.964C640.465 754.291 614.1 759.275 586.299 762.917C556.153 766.512 525.093 768.334 493.118 768.382C460.954 768.101 427.979 765.658 394.194 761.052C360.339 756.706 326.298 749.947 292.069 740.775C240.206 726.879 194.427 709.471 154.73 688.55C115.103 667.371 82.8798 643.451 58.0618 616.79C33.0539 589.8 16.1591 560.538 7.37749 529.002C-1.59399 497.138 -1.38966 463.702 7.99044 428.695C15.0081 402.505 26.1282 380.193 41.3508 361.759C56.6428 343.067 75.6043 328.832 98.2352 319.053C120.936 309.016 147.236 303.695 177.136 303.091C206.777 302.418 239.49 306.875 275.275 316.464C294.205 321.536 313.505 327.819 333.175 335.313C352.656 342.479 371.808 349.834 390.63 357.379C409.194 364.854 427.015 371.992 444.092 378.791C460.979 385.261 476.165 390.303 489.649 393.916C523.101 402.88 549.523 403.845 568.917 396.813C588.38 389.521 600.544 376.799 605.407 358.648C607.909 349.312 607.947 339.317 605.521 328.662C602.906 317.678 596.123 306.688 585.172 295.694C574.291 284.441 558.62 273.432 538.158 262.669C517.436 251.836 490.091 241.869 456.121 232.766C432.264 226.374 408.544 221.547 384.961 218.285C361.187 214.694 337.914 212.349 315.14 211.249C295.088 210.281 275.552 210.206 256.53 211.022L262.475 291.26C262.821 295.932 257.625 298.944 253.743 296.322L85.6155 182.783C82.8413 180.909 82.3154 177.038 84.4894 174.492Z" fill="url(#paint0_linear_2_377)"/>
<defs>
<linearGradient id="paint0_linear_2_377" x1="478.323" y1="65.2359" x2="296.961" y2="742.086" gradientUnits="userSpaceOnUse">
<stop offset="0.484375" stop-color="#008992"/>
<stop offset="1" stop-color="#52AE9B"/>
</linearGradient>
</defs>
</svg>
