<svg width="2240" height="2240" viewBox="0 0 2240 2240" fill="none" xmlns="http://www.w3.org/2000/svg">
<rect x="70.3139" y="70.3139" width="2099.37" height="2099.37" rx="391.749" fill="url(#paint0_linear_7578_520)"/>
<rect x="70.3139" y="70.3139" width="2099.37" height="2099.37" rx="391.749" stroke="white" stroke-width="140.628"/>
<path fill-rule="evenodd" clip-rule="evenodd" d="M1750.67 864.072L1576.2 498.226C1572.34 490.129 1560.61 490.77 1557.65 499.241L1504.55 651.407C1466.79 640.002 1427.69 630.096 1387.26 621.691C1339.18 611.594 1289.66 603.901 1238.7 598.612C1187.73 592.842 1137 589.957 1086.52 589.957C1016.8 589.957 954.539 595.006 899.728 605.103C845.397 614.719 797.316 628.181 755.486 645.49C714.137 662.799 678.798 683.474 649.469 707.514C620.14 731.074 596.099 756.797 577.348 784.683C559.077 812.089 545.615 840.938 536.96 871.228C528.787 901.519 524.7 932.05 524.7 962.822C524.7 1014.75 535.278 1060.18 556.433 1099.13C577.588 1138.08 605.956 1170.53 641.535 1196.49C677.596 1222.46 718.705 1241.93 764.862 1254.91C811.5 1267.89 860.061 1274.38 910.546 1274.38C940.837 1274.38 973.05 1272.46 1007.19 1268.61C1041.81 1264.29 1076.66 1259.72 1111.76 1254.91C1147.34 1250.1 1182.44 1245.78 1217.06 1241.93C1251.68 1237.6 1284.61 1235.44 1315.86 1235.44C1387.02 1235.44 1439.67 1247.46 1473.81 1271.5C1507.95 1295.06 1525.01 1327.27 1525.01 1368.14C1525.01 1393.62 1518.04 1417.18 1504.1 1438.82C1490.64 1460.45 1468.76 1479.21 1438.47 1495.07C1408.66 1510.46 1369.96 1522.72 1322.36 1531.85C1274.76 1540.51 1217.06 1544.84 1149.27 1544.84C1093.01 1544.84 1039.88 1541.47 989.879 1534.74C940.356 1528.01 892.996 1518.39 847.801 1505.89C802.605 1492.91 758.852 1477.28 716.541 1459.01C677.502 1441.51 638.883 1422.13 600.682 1400.86C596.065 1398.29 590.239 1399.7 587.335 1404.11L476.478 1572.69C473.296 1577.53 474.85 1584.05 479.902 1586.88C520.096 1609.38 563.396 1630.22 609.802 1649.41C660.287 1669.61 713.175 1687.15 768.468 1702.06C824.241 1716.48 882.419 1727.54 943 1735.23C1003.58 1743.41 1065.61 1747.5 1129.07 1747.5C1225.23 1747.5 1312.5 1738.6 1390.87 1720.81C1469.24 1702.54 1536.07 1676.1 1591.37 1641.48C1647.14 1606.38 1689.93 1563.59 1719.74 1513.1C1750.03 1462.14 1765.18 1404.2 1765.18 1339.29C1765.18 1290.73 1756.28 1246.98 1738.49 1208.03C1720.7 1168.61 1694.5 1135.19 1659.88 1107.78C1625.26 1079.9 1582.23 1058.5 1530.78 1043.6C1479.82 1028.69 1421.16 1021.24 1354.81 1021.24C1319.71 1021.24 1283.41 1023.16 1245.91 1027.01C1208.89 1030.37 1172.34 1034.22 1136.28 1038.55C1100.7 1042.88 1066.57 1046.96 1033.87 1050.81C1001.66 1054.17 973.05 1055.86 948.049 1055.86C886.025 1055.86 839.867 1045.28 809.577 1024.12C779.286 1002.49 764.141 974.842 764.141 941.186C764.141 923.877 768.708 906.567 777.844 889.259C787.46 871.469 804.288 855.602 828.328 841.659C852.368 827.235 884.582 815.455 924.97 806.32C965.838 797.184 1017.77 792.617 1080.75 792.617C1124.98 792.617 1168.26 795.261 1210.57 800.55C1253.36 805.358 1294.71 812.089 1334.62 820.744C1369.75 828.364 1403.59 837.289 1436.11 847.518L1388.64 983.57C1385.87 991.493 1393.46 999.112 1401.4 996.376L1744.88 877.891C1750.55 875.936 1753.25 869.484 1750.67 864.072Z" fill="white"/>
<defs>
<linearGradient id="paint0_linear_7578_520" x1="1988" y1="2336.23" x2="2040.5" y2="44.2597" gradientUnits="userSpaceOnUse">
<stop stop-color="#50AF93"/>
<stop offset="0.0989583" stop-color="#4CAA97"/>
<stop offset="0.171875" stop-color="#49A59B"/>
<stop offset="0.171975" stop-color="#49A59B"/>
<stop offset="1" stop-color="#2A77BD"/>
</linearGradient>
</defs>
</svg>
