<svg width="156" height="33" viewBox="0 0 156 33" fill="none" xmlns="http://www.w3.org/2000/svg">
<path d="M133.464 15.8698C133.464 14.6914 133.704 13.5669 134.186 12.4965C134.667 11.4163 135.359 10.4637 136.263 9.63878C137.166 8.81386 138.271 8.1559 139.577 7.66488C140.893 7.17386 142.386 6.92834 144.055 6.92834C145.715 6.92834 147.208 7.17877 148.533 7.67961C149.869 8.17063 150.998 8.84824 151.921 9.71243C152.854 10.5766 153.566 11.593 154.057 12.7617C154.558 13.9303 154.809 15.1824 154.809 16.518C154.809 16.6849 154.804 16.8666 154.794 17.063C154.794 17.2496 154.784 17.4215 154.764 17.5786H138.325C138.512 18.0991 138.811 18.5754 139.224 19.0075C139.646 19.4396 140.171 19.8127 140.8 20.127C141.428 20.4412 142.155 20.6867 142.98 20.8635C143.805 21.0305 144.718 21.1139 145.72 21.1139C146.721 21.1139 147.718 21.0108 148.71 20.8046C149.702 20.5885 150.65 20.3185 151.553 19.9944L153.026 23.3235C152.457 23.5887 151.877 23.8244 151.288 24.0306C150.709 24.227 150.1 24.394 149.461 24.5314C148.833 24.6591 148.17 24.7573 147.473 24.8261C146.785 24.8948 146.059 24.9292 145.293 24.9292C143.338 24.9292 141.625 24.6935 140.152 24.2221C138.679 23.7507 137.446 23.1075 136.454 22.2924C135.462 21.4773 134.716 20.5198 134.215 19.4199C133.714 18.32 133.464 17.1367 133.464 15.8698ZM150.183 14.1758C150.026 13.6946 149.78 13.2478 149.447 12.8353C149.123 12.413 148.715 12.0497 148.224 11.7453C147.733 11.431 147.163 11.1855 146.515 11.0087C145.867 10.832 145.155 10.7436 144.379 10.7436C143.554 10.7436 142.803 10.8369 142.125 11.0235C141.448 11.21 140.854 11.4605 140.343 11.7747C139.832 12.089 139.405 12.4523 139.062 12.8648C138.728 13.2772 138.482 13.7143 138.325 14.1758H150.183Z" fill="#545F68" stroke="#545F68"/>
<path d="M119.145 7.23769H123.505V9.7419C124.468 9.02501 125.484 8.40632 126.555 7.88584C127.625 7.36536 128.69 6.96763 129.751 6.69266L131.033 10.6847C129.353 10.8516 127.875 11.2297 126.599 11.8189C125.332 12.3983 124.301 13.2183 123.505 14.2789V24.6198H119.145V7.23769Z" fill="#545F68" stroke="#545F68"/>
<path d="M106.712 10.5079H102.514V7.23768H106.712V1.83154H111.073V7.23768H115.271V10.5079H111.073V24.6198H106.712V10.5079Z" fill="#545F68" stroke="#545F68"/>
<path d="M80.5654 15.9729C80.5654 14.6963 80.7962 13.508 81.2578 12.4081C81.7291 11.2984 82.4117 10.3409 83.3053 9.53566C84.2088 8.72057 85.3087 8.08224 86.605 7.62068C87.9111 7.15912 89.3989 6.92834 91.0684 6.92834C91.7951 6.92834 92.5267 6.97254 93.2632 7.06092C93.9998 7.1493 94.7068 7.27697 95.3844 7.44392C96.0719 7.60104 96.7151 7.79254 97.3141 8.01841C97.9132 8.23446 98.4337 8.47506 98.8756 8.74021L96.8575 12.0251C95.9049 11.5832 95.0014 11.2591 94.1471 11.0529C93.3025 10.8467 92.4432 10.7436 91.5692 10.7436C90.5675 10.7436 89.669 10.8762 88.8735 11.1413C88.078 11.3966 87.4004 11.76 86.8407 12.2314C86.2907 12.6929 85.8685 13.2429 85.5738 13.8812C85.289 14.5097 85.1467 15.1971 85.1467 15.9435C85.1467 16.6898 85.2989 17.3822 85.6033 18.0205C85.9176 18.649 86.3546 19.194 86.9143 19.6556C87.4839 20.1073 88.1664 20.4658 88.9619 20.7309C89.7672 20.9863 90.6608 21.1139 91.6429 21.1139C92.7231 21.1139 93.7395 20.9617 94.6921 20.6573C95.6545 20.3529 96.5482 19.9453 97.3731 19.4346L99.3912 22.7196C98.8707 23.0338 98.306 23.3284 97.6971 23.6034C97.0883 23.8686 96.4352 24.0993 95.738 24.2957C95.0505 24.4922 94.3238 24.6444 93.5578 24.7524C92.8017 24.8702 92.016 24.9292 91.2009 24.9292C89.5413 24.9292 88.0535 24.7033 86.7376 24.2516C85.4216 23.7998 84.307 23.1762 83.3937 22.3808C82.4804 21.5755 81.7783 20.6278 81.2872 19.5378C80.806 18.4477 80.5654 17.2594 80.5654 15.9729Z" fill="#545F68" stroke="#545F68"/>
<path d="M55.5684 15.8698C55.5684 14.6914 55.809 13.5669 56.2902 12.4965C56.7714 11.4163 57.4637 10.4637 58.3672 9.63878C59.2707 8.81386 60.3755 8.1559 61.6816 7.66488C62.9975 7.17386 64.4902 6.92834 66.1597 6.92834C67.8193 6.92834 69.312 7.17877 70.6378 7.67961C71.9734 8.17063 73.1027 8.84824 74.0258 9.71243C74.9588 10.5766 75.6707 11.593 76.1618 12.7617C76.6626 13.9303 76.913 15.1824 76.913 16.518C76.913 16.6849 76.9081 16.8666 76.8983 17.063C76.8983 17.2496 76.8885 17.4215 76.8688 17.5786H60.4295C60.6161 18.0991 60.9156 18.5754 61.328 19.0075C61.7503 19.4396 62.2757 19.8127 62.9042 20.127C63.5327 20.4412 64.2594 20.6867 65.0843 20.8635C65.9093 21.0305 66.8226 21.1139 67.8242 21.1139C68.8259 21.1139 69.8227 21.0108 70.8146 20.8046C71.8064 20.5885 72.7541 20.3185 73.6576 19.9944L75.1306 23.3235C74.561 23.5887 73.9816 23.8244 73.3924 24.0306C72.813 24.227 72.2041 24.394 71.5658 24.5314C70.9373 24.6591 70.2744 24.7573 69.5772 24.8261C68.8898 24.8948 68.163 24.9292 67.397 24.9292C65.4428 24.9292 63.7291 24.6935 62.2561 24.2221C60.783 23.7507 59.5505 23.1075 58.5587 22.2924C57.5668 21.4773 56.8205 20.5198 56.3196 19.4199C55.8188 18.32 55.5684 17.1367 55.5684 15.8698ZM72.2876 14.1758C72.1305 13.6946 71.885 13.2478 71.5511 12.8353C71.227 12.413 70.8195 12.0497 70.3284 11.7453C69.8374 11.431 69.2678 11.1855 68.6197 11.0087C67.9715 10.832 67.2596 10.7436 66.4838 10.7436C65.6588 10.7436 64.9076 10.8369 64.23 11.0235C63.5524 11.21 62.9582 11.4605 62.4476 11.7747C61.9369 12.089 61.5097 12.4523 61.166 12.8648C60.8321 13.2772 60.5866 13.7143 60.4295 14.1758H72.2876Z" fill="#545F68" stroke="#545F68"/>
<path d="M35.4164 31.72H31.0562V7.23769H35.4164V8.87279C35.7994 8.60764 36.2512 8.35722 36.7716 8.12153C37.2921 7.88584 37.8519 7.67961 38.4509 7.50284C39.05 7.32607 39.6687 7.18859 40.307 7.09038C40.9453 6.98236 41.5836 6.92834 42.222 6.92834C43.695 6.92834 45.0453 7.14439 46.2729 7.57649C47.5103 8.00859 48.5709 8.61746 49.4547 9.40309C50.3385 10.1887 51.026 11.1315 51.517 12.2314C52.0178 13.3214 52.2682 14.5293 52.2682 15.8551C52.2682 17.2398 52.008 18.4919 51.4875 19.6114C50.967 20.7211 50.2452 21.6737 49.3221 22.4692C48.4088 23.2548 47.3188 23.8637 46.0519 24.2957C44.7949 24.718 43.4299 24.9292 41.9568 24.9292C41.3283 24.9292 40.7047 24.8899 40.086 24.8113C39.4772 24.7328 38.8879 24.6247 38.3183 24.4872C37.7586 24.3498 37.2283 24.1877 36.7274 24.0011C36.2364 23.8047 35.7994 23.5936 35.4164 23.3677V31.72ZM35.4164 19.1548C35.8583 19.5083 36.3248 19.8078 36.8158 20.0533C37.3068 20.2988 37.8077 20.5002 38.3183 20.6573C38.829 20.8144 39.3446 20.9323 39.8651 21.0108C40.3855 21.0796 40.8913 21.1139 41.3823 21.1139C42.384 21.1139 43.2727 20.9814 44.0486 20.7162C44.8342 20.4412 45.4922 20.0681 46.0225 19.5967C46.5626 19.1253 46.975 18.5704 47.2598 17.9321C47.5446 17.2938 47.687 16.6015 47.687 15.8551C47.687 15.1579 47.5446 14.4999 47.2598 13.8812C46.9849 13.2625 46.5822 12.7224 46.0519 12.2608C45.5314 11.7895 44.898 11.4212 44.1517 11.156C43.4151 10.8811 42.5853 10.7436 41.6622 10.7436C41.073 10.7436 40.4838 10.8025 39.8945 10.9203C39.3053 11.0284 38.7357 11.1855 38.1858 11.3917C37.6457 11.598 37.135 11.8484 36.6538 12.143C36.1824 12.4376 35.77 12.7666 35.4164 13.1299V19.1548Z" fill="#545F68" stroke="#545F68"/>
<path fill-rule="evenodd" clip-rule="evenodd" d="M28.1061 8.05738L24.555 1.35696C24.1433 0.580285 23.0019 0.674396 22.723 1.508L22.2648 2.8779C22.0851 2.81741 21.9028 2.75834 21.7178 2.70067C20.8045 2.40605 19.8519 2.15563 18.8601 1.9494C17.878 1.74318 16.8665 1.58605 15.8256 1.47802C14.7846 1.36018 13.7485 1.30126 12.7174 1.30126C11.2934 1.30126 10.0217 1.40437 8.90217 1.6106C7.79246 1.80701 6.81042 2.08198 5.95605 2.43552C5.11149 2.78905 4.38969 3.21133 3.79065 3.70235C3.1916 4.18355 2.70058 4.70894 2.31758 5.27852C1.94441 5.83829 1.66944 6.42751 1.49267 7.0462C1.32572 7.66489 1.24225 8.28848 1.24225 8.91699C1.24225 9.97759 1.4583 10.9056 1.8904 11.7011C2.32249 12.4965 2.9019 13.1594 3.62861 13.6897C4.36514 14.22 5.20478 14.6177 6.14754 14.8829C7.10012 15.148 8.09199 15.2806 9.12313 15.2806C9.74182 15.2806 10.3998 15.2413 11.097 15.1628C11.8041 15.0744 12.5161 14.9811 13.233 14.8829C13.9597 14.7847 14.6766 14.6963 15.3836 14.6177C16.0907 14.5294 16.7634 14.4852 17.4017 14.4852C18.8552 14.4852 19.9305 14.7307 20.6277 15.2217C21.325 15.7029 21.6736 16.3609 21.6736 17.1956C21.6736 17.7161 21.5312 18.1973 21.2464 18.6392C20.9715 19.0811 20.5246 19.4641 19.9059 19.7882C19.2971 20.1024 18.5065 20.3529 17.5343 20.5394C16.5621 20.7162 15.3836 20.8046 13.999 20.8046C12.85 20.8046 11.7648 20.7359 10.7435 20.5984C9.732 20.4609 8.76468 20.2645 7.84157 20.0091C6.91845 19.744 6.02479 19.4248 5.16059 19.0517C4.30622 18.6687 3.46166 18.2415 2.62693 17.7701L0.137451 21.5559C1.01147 22.0567 1.95914 22.5183 2.98046 22.9405C4.0116 23.353 5.09185 23.7114 6.2212 24.0159C7.36037 24.3105 8.54864 24.5364 9.78601 24.6935C11.0234 24.8604 12.2902 24.9439 13.5865 24.9439C15.5506 24.9439 17.333 24.7622 18.9337 24.3989C20.5345 24.0257 21.8995 23.4856 23.0288 22.7785C24.168 22.0616 25.042 21.1876 25.6509 20.1565C26.2696 19.1155 26.5789 17.9321 26.5789 16.6064C26.5789 15.6145 26.3972 14.7209 26.0339 13.9254C25.6705 13.1201 25.1353 12.4376 24.4282 11.8778C23.7212 11.3083 22.8422 10.8713 21.7915 10.5668C20.7505 10.2624 19.5524 10.1102 18.1972 10.1102C17.4803 10.1102 16.7389 10.1494 15.9729 10.228C15.2167 10.2968 14.4703 10.3753 13.7338 10.4637C13.0071 10.5521 12.3099 10.6356 11.6421 10.7141C10.9841 10.7829 10.3998 10.8172 9.88912 10.8172C8.62229 10.8172 7.67953 10.6012 7.06084 10.1691C6.44216 9.72717 6.13281 9.1625 6.13281 8.47507C6.13281 8.12153 6.22611 7.768 6.4127 7.41446C6.6091 7.05111 6.95282 6.72704 7.44384 6.44224C7.93486 6.14763 8.59283 5.90703 9.41774 5.72044C10.2525 5.53386 11.3131 5.44056 12.5996 5.44056C13.503 5.44056 14.3869 5.49457 15.2511 5.6026C16.1251 5.7008 16.9696 5.83829 17.7847 6.01506C18.5998 6.19182 19.3806 6.40296 20.1269 6.64847C20.396 6.73344 20.6587 6.8216 20.915 6.91295L20.3365 8.6421C20.0814 9.40476 20.7852 10.1413 21.5586 9.92114L28.1061 8.05738Z" fill="url(#paint0_linear_2_332)"/>
<defs>
<linearGradient id="paint0_linear_2_332" x1="24.9596" y1="25.98" x2="25.4471" y2="1.29837" gradientUnits="userSpaceOnUse">
<stop stop-color="#50AF93"/>
<stop offset="0.0989583" stop-color="#4CAA97"/>
<stop offset="0.171875" stop-color="#49A59B"/>
<stop offset="0.171975" stop-color="#49A59B"/>
<stop offset="1" stop-color="#2A77BD"/>
</linearGradient>
</defs>
</svg>
