<svg width="2001" height="411" viewBox="0 0 2001 411" fill="none" xmlns="http://www.w3.org/2000/svg">
<path d="M1724.93 203.229C1724.93 187.797 1728.04 173.071 1734.26 159.053C1740.49 144.907 1749.44 132.432 1761.12 121.629C1772.8 110.827 1787.09 102.21 1803.98 95.7798C1820.99 89.3495 1840.3 86.1344 1861.88 86.1344C1883.34 86.1344 1902.65 89.4138 1919.79 95.9727C1937.06 102.403 1951.66 111.277 1963.6 122.594C1975.66 133.911 1984.87 147.222 1991.22 162.526C1997.69 177.83 2000.93 194.227 2000.93 211.717C2000.93 213.903 2000.87 216.283 2000.74 218.855C2000.74 221.298 2000.61 223.549 2000.36 225.607H1787.79C1790.2 232.423 1794.07 238.66 1799.41 244.319C1804.87 249.977 1811.66 254.864 1819.79 258.98C1827.92 263.095 1837.31 266.31 1847.98 268.625C1858.65 270.811 1870.46 271.904 1883.41 271.904C1896.36 271.904 1909.25 270.554 1922.07 267.853C1934.9 265.024 1947.15 261.487 1958.84 257.243L1977.88 300.84C1970.52 304.313 1963.03 307.399 1955.41 310.1C1947.92 312.672 1940.04 314.858 1931.79 316.659C1923.66 318.331 1915.09 319.617 1906.07 320.517C1897.19 321.417 1887.79 321.867 1877.88 321.867C1852.61 321.867 1830.46 318.781 1811.41 312.608C1792.36 306.435 1776.42 298.011 1763.6 287.337C1750.77 276.663 1741.12 264.124 1734.65 249.72C1728.17 235.316 1724.93 219.819 1724.93 203.229ZM1941.12 181.045C1939.09 174.743 1935.92 168.892 1931.6 163.49C1927.41 157.96 1922.14 153.202 1915.79 149.215C1909.44 145.1 1902.07 141.885 1893.69 139.57C1885.31 137.255 1876.11 136.097 1866.07 136.097C1855.41 136.097 1845.69 137.319 1836.93 139.763C1828.17 142.206 1820.49 145.486 1813.88 149.601C1807.28 153.716 1801.76 158.475 1797.31 163.876C1792.99 169.278 1789.82 175 1787.79 181.045H1941.12Z" fill="#545F68"/>
<path d="M1539.79 90.1851H1596.17V122.979C1608.62 113.591 1621.76 105.489 1635.6 98.673C1649.44 91.8569 1663.22 86.6484 1676.93 83.0475L1693.51 135.325C1671.79 137.512 1652.68 142.463 1636.17 150.179C1619.79 157.767 1606.46 168.506 1596.17 182.395V317.816H1539.79V90.1851Z" fill="#545F68"/>
<path d="M1379.02 133.011H1324.73V90.1851H1379.02V19.3881H1435.4V90.1851H1489.68V133.011H1435.4V317.816H1379.02V133.011Z" fill="#545F68"/>
<path d="M1040.92 204.58C1040.92 187.861 1043.91 172.3 1049.87 157.896C1055.97 143.364 1064.79 130.825 1076.35 120.279C1088.03 109.605 1102.26 101.245 1119.02 95.2011C1135.91 89.1566 1155.14 86.1344 1176.73 86.1344C1186.13 86.1344 1195.59 86.7131 1205.11 87.8706C1214.64 89.028 1223.78 90.6999 1232.54 92.8862C1241.43 94.9438 1249.75 97.4516 1257.49 100.41C1265.24 103.239 1271.97 106.39 1277.68 109.862L1251.59 152.88C1239.27 147.093 1227.59 142.849 1216.54 140.149C1205.62 137.448 1194.51 136.097 1183.21 136.097C1170.26 136.097 1158.64 137.834 1148.35 141.306C1138.06 144.65 1129.3 149.408 1122.06 155.581C1114.95 161.626 1109.49 168.827 1105.68 177.187C1102 185.417 1100.16 194.42 1100.16 204.194C1100.16 213.968 1102.13 223.034 1106.06 231.394C1110.13 239.624 1115.78 246.762 1123.02 252.806C1130.38 258.722 1139.21 263.416 1149.49 266.889C1159.91 270.232 1171.46 271.904 1184.16 271.904C1198.13 271.904 1211.27 269.911 1223.59 265.924C1236.03 261.937 1247.59 256.6 1258.26 249.913L1284.35 292.931C1277.62 297.047 1270.32 300.905 1262.45 304.506C1254.57 307.978 1246.13 311 1237.11 313.572C1228.22 316.144 1218.83 318.138 1208.92 319.552C1199.14 321.096 1188.99 321.867 1178.45 321.867C1156.99 321.867 1137.75 318.909 1120.73 312.994C1103.72 307.078 1089.3 298.911 1077.49 288.494C1065.68 277.949 1056.6 265.538 1050.26 251.263C1044.03 236.988 1040.92 221.427 1040.92 204.58Z" fill="#545F68"/>
<path d="M717.699 203.229C717.699 187.797 720.81 173.071 727.032 159.053C733.254 144.907 742.207 132.432 753.889 121.629C765.572 110.827 779.858 102.21 796.746 95.7798C813.762 89.3495 833.064 86.1344 854.651 86.1344C876.112 86.1344 895.413 89.4138 912.556 95.9727C929.826 102.403 944.429 111.277 956.366 122.594C968.429 133.911 977.636 147.222 983.985 162.526C990.461 177.83 993.699 194.227 993.699 211.717C993.699 213.903 993.636 216.283 993.509 218.855C993.509 221.298 993.382 223.549 993.128 225.607H780.556C782.969 232.423 786.842 238.66 792.175 244.319C797.635 249.977 804.429 254.864 812.556 258.98C820.683 263.095 830.08 266.31 840.747 268.625C851.413 270.811 863.223 271.904 876.175 271.904C889.128 271.904 902.017 270.554 914.842 267.853C927.667 265.024 939.921 261.487 951.604 257.243L970.652 300.84C963.287 304.313 955.794 307.399 948.175 310.1C940.683 312.672 932.81 314.858 924.556 316.659C916.429 318.331 907.858 319.617 898.842 320.517C889.953 321.417 880.556 321.867 870.651 321.867C845.381 321.867 823.223 318.781 804.175 312.608C785.127 306.435 769.191 298.011 756.365 287.337C743.54 276.663 733.889 264.124 727.413 249.72C720.937 235.316 717.699 219.819 717.699 203.229ZM933.89 181.045C931.858 174.743 928.683 168.892 924.366 163.49C920.175 157.96 914.905 153.202 908.556 149.215C902.207 145.1 894.842 141.885 886.461 139.57C878.08 137.255 868.874 136.097 858.842 136.097C848.175 136.097 838.461 137.319 829.699 139.763C820.937 142.206 813.254 145.486 806.651 149.601C800.048 153.716 794.524 158.475 790.08 163.876C785.762 169.278 782.588 175 780.556 181.045H933.89Z" fill="#545F68"/>
<path d="M457.119 410.798H400.738V90.1855H457.119V111.598C462.071 108.126 467.913 104.846 474.643 101.76C481.373 98.6734 488.611 95.9727 496.357 93.6578C504.103 91.3429 512.103 89.5424 520.357 88.2564C528.611 86.8417 536.865 86.1344 545.119 86.1344C564.167 86.1344 581.627 88.9637 597.5 94.6223C613.5 100.281 627.214 108.254 638.643 118.543C650.072 128.831 658.961 141.177 665.31 155.581C671.786 169.856 675.024 185.675 675.024 203.036C675.024 221.17 671.659 237.567 664.929 252.228C658.199 266.76 648.865 279.235 636.929 289.652C625.119 299.94 611.024 307.914 594.643 313.572C578.389 319.102 560.738 321.867 541.69 321.867C533.563 321.867 525.5 321.353 517.5 320.324C509.627 319.295 502.008 317.881 494.643 316.08C487.405 314.28 480.547 312.158 474.071 309.714C467.722 307.142 462.071 304.377 457.119 301.419V410.798ZM457.119 246.248C462.833 250.877 468.865 254.8 475.214 258.015C481.563 261.23 488.04 263.867 494.643 265.924C501.246 267.982 507.913 269.525 514.643 270.554C521.373 271.454 527.913 271.904 534.262 271.904C547.214 271.904 558.706 270.168 568.738 266.696C578.897 263.095 587.405 258.208 594.262 252.035C601.246 245.862 606.58 238.596 610.262 230.236C613.945 221.877 615.786 212.81 615.786 203.036C615.786 193.905 613.945 185.289 610.262 177.187C606.707 169.085 601.5 162.011 594.643 155.967C587.913 149.794 579.722 144.971 570.072 141.499C560.548 137.898 549.817 136.097 537.881 136.097C530.262 136.097 522.643 136.869 515.024 138.412C507.405 139.827 500.04 141.885 492.928 144.585C485.944 147.286 479.341 150.566 473.119 154.424C467.024 158.282 461.69 162.59 457.119 167.348V246.248Z" fill="#545F68"/>
<path fill-rule="evenodd" clip-rule="evenodd" d="M345.679 88.588L304.913 2.01355C304.148 0.389725 301.797 0.517107 301.212 2.21404L290.197 34.1813C286.863 33.005 283.457 31.8678 279.98 30.7696C268.17 26.9115 255.853 23.632 243.027 20.9313C230.329 18.2306 217.25 16.173 203.789 14.7583C190.329 13.215 176.932 12.4434 163.599 12.4434C145.186 12.4434 128.741 13.7938 114.265 16.4945C99.9159 19.0666 87.2175 22.6675 76.1698 27.2973C65.2492 31.9271 55.9158 37.4571 48.1698 43.8873C40.4237 50.189 34.0745 57.0693 29.1221 64.5284C24.2967 71.8589 20.7411 79.5752 18.4554 87.6773C16.2967 95.7794 15.2173 103.946 15.2173 112.177C15.2173 126.066 18.011 138.219 23.5983 148.636C29.1856 159.053 36.6777 167.734 46.0745 174.679C55.5984 181.623 66.4555 186.832 78.646 190.304C90.9635 193.776 103.789 195.513 117.122 195.513C125.122 195.513 133.63 194.998 142.646 193.969C151.789 192.812 160.995 191.59 170.265 190.304C179.662 189.018 188.932 187.861 198.075 186.832C207.218 185.674 215.916 185.096 224.17 185.096C242.964 185.096 256.869 188.311 265.885 194.741C274.9 201.043 279.408 209.659 279.408 220.591C279.408 227.407 277.567 233.708 273.885 239.496C270.329 245.283 264.551 250.298 256.551 254.542C248.678 258.658 238.456 261.937 225.884 264.381C213.313 266.696 198.075 267.853 180.17 267.853C165.313 267.853 151.281 266.953 138.075 265.152C124.995 263.352 112.487 260.78 100.551 257.436C88.6143 253.964 77.0587 249.784 65.8841 244.897C54.8365 239.881 43.9158 234.287 33.1221 228.114L0.93158 277.691C12.2332 284.25 24.4872 290.294 37.6936 295.825C51.0269 301.226 64.9952 305.92 79.5984 309.907C94.3286 313.765 109.694 316.723 125.694 318.781C141.694 320.967 158.075 322.06 174.837 322.06C200.234 322.06 223.281 319.681 243.98 314.922C264.678 310.035 282.329 302.962 296.932 293.703C311.662 284.314 322.964 272.869 330.837 259.365C338.837 245.733 342.837 230.236 342.837 212.874C342.837 199.885 340.488 188.182 335.789 177.765C331.091 167.22 324.17 158.281 315.028 150.951C305.885 143.492 294.52 137.769 280.932 133.782C267.472 129.795 251.98 127.802 234.456 127.802C225.186 127.802 215.599 128.317 205.694 129.345C195.916 130.246 186.265 131.274 176.742 132.432C167.345 133.589 158.329 134.682 149.694 135.711C141.186 136.612 133.63 137.062 127.027 137.062C110.646 137.062 98.4556 134.232 90.4556 128.574C82.4556 122.786 78.4556 115.392 78.4556 106.389C78.4556 101.76 79.6619 97.1298 82.0746 92.5C84.6143 87.7416 89.0588 83.4977 95.408 79.7681C101.757 75.91 110.265 72.7592 120.932 70.3157C131.726 67.8722 145.44 66.6504 162.075 66.6504C173.757 66.6504 185.186 67.3577 196.361 68.7724C207.662 70.0584 218.583 71.8589 229.123 74.1738C239.662 76.4887 249.758 79.2537 259.408 82.4688C263.753 83.8583 267.969 85.3128 272.056 86.8326L262.637 114.168C262.092 115.748 263.61 117.259 265.187 116.708L345.679 88.588Z" fill="url(#paint0_linear_7598_106731)"/>
<defs>
<linearGradient id="paint0_linear_7598_106731" x1="306.895" y1="335.858" x2="313.909" y2="7.18916" gradientUnits="userSpaceOnUse">
<stop stop-color="#50AF93"/>
<stop offset="0.0989583" stop-color="#4CAA97"/>
<stop offset="0.171875" stop-color="#49A59B"/>
<stop offset="0.171975" stop-color="#49A59B"/>
<stop offset="1" stop-color="#2A77BD"/>
</linearGradient>
</defs>
</svg>
