<svg width="357" height="429" viewBox="0 0 357 429" fill="none" xmlns="http://www.w3.org/2000/svg">
<path fill-rule="evenodd" clip-rule="evenodd" d="M104.202 349.082C129.311 373.257 155.592 398.56 178.773 428.338C201.954 398.56 228.235 373.257 253.344 349.082C307.718 296.732 356.596 249.673 356.596 173.919C356.596 78.7402 276.613 0.950134 178.773 0.950134C80.9332 0.950134 0.950195 78.7402 0.950195 173.919C0.950195 249.673 49.828 296.732 104.202 349.082ZM64.1221 173.915C64.1221 112.509 115.459 62.565 178.612 62.565C241.681 62.565 293.101 112.509 293.101 173.915C293.101 235.322 241.764 285.266 178.612 285.266C115.459 285.266 64.1221 235.322 64.1221 173.915Z" fill="#E9ECEF" fill-opacity="0.6"/>
</svg>
