<svg width="2221" height="1938" viewBox="0 0 2221 1938" fill="none" xmlns="http://www.w3.org/2000/svg">
<path d="M56.5001 594.981C84.2303 629.372 75.5 617 235.839 743.5C323.5 843.012 321.331 876.415 353.992 936.541C386.653 996.667 430.448 1046.77 485.378 1086.86C541.05 1126.94 604.516 1157 675.776 1177.04C747.779 1197.09 822.75 1207.11 900.691 1207.11C947.456 1207.11 997.189 1204.14 1049.89 1198.2C1103.34 1191.52 1157.15 1184.47 1211.34 1177.04C1266.27 1169.62 1320.46 1162.94 1373.9 1157C1427.35 1150.32 1478.19 1146.98 1526.44 1146.98C1636.3 1146.98 1717.58 1165.54 1770.29 1202.65C1822.99 1239.03 1849.34 1288.76 1849.34 1351.85C1849.34 1391.2 1838.58 1427.57 1817.05 1460.97C1796.27 1494.37 1762.49 1523.32 1715.73 1547.82C1669.71 1571.57 1609.95 1590.5 1536.46 1604.6C1462.98 1617.97 1373.9 1624.65 1269.24 1624.65C1182.39 1624.65 1100.37 1619.45 1023.17 1609.06C946.713 1598.67 873.597 1583.82 803.822 1564.52C734.046 1544.48 666.498 1520.35 601.176 1492.15C540.906 1465.13 481.282 1435.2 422.306 1402.37C415.178 1398.4 406.183 1400.57 401.701 1407.39L230.553 1667.65C225.641 1675.12 228.039 1685.19 235.839 1689.56C297.893 1724.29 364.742 1756.47 436.387 1786.1C514.327 1817.27 595.98 1844.37 681.343 1867.38C767.449 1889.65 857.267 1906.72 950.796 1918.59C1044.32 1931.21 1140.08 1937.52 1238.06 1937.52C1386.52 1937.52 1521.25 1923.79 1642.24 1896.33C1763.24 1868.12 1866.41 1827.29 1951.78 1773.85C2037.88 1719.66 2103.95 1653.6 2149.97 1575.66C2196.73 1496.97 2220.12 1407.53 2220.12 1307.32C2220.12 1232.34 2206.38 1164.8 2178.92 1104.67C2151.45 1043.8 2111 992.213 2057.55 949.902C2004.11 906.849 1937.67 873.817 1858.25 850.806C1779.57 827.795 1689.01 816.289 1586.57 816.289C1532.38 816.289 1476.34 819.259 1418.44 825.197C1361.28 830.393 1304.87 836.331 1249.2 843.012C1194.27 849.693 1141.56 856.002 1091.09 861.941C1041.36 867.137 997.189 869.735 958.59 869.735C862.834 869.735 791.574 853.404 744.81 820.743C698.045 787.34 556.5 536 401.701 444.5C266 336 -149.5 339.5 56.5001 594.981Z" fill="#F0F2FB"/>
</svg>
