<svg width="2988" height="2186" viewBox="0 0 2988 2186" fill="none" xmlns="http://www.w3.org/2000/svg">
<path d="M2970 193.5C2963 351 2848.01 593.296 2799.02 683.507C2750.03 773.718 2684.35 848.893 2601.96 909.034C2518.45 969.175 2423.26 1014.28 2316.38 1044.35C2208.38 1074.42 2095.93 1089.46 1979.02 1089.46C1908.88 1089.46 1834.28 1085 1755.23 1076.09C1675.07 1066.07 1594.35 1055.49 1513.08 1044.35C1430.69 1033.21 1349.41 1023.19 1269.25 1014.28C1189.08 1004.26 1112.82 999.245 1040.45 999.245C875.669 999.245 753.754 1027.09 674.705 1082.77C595.655 1137.35 556.13 1211.96 556.13 1306.63C556.13 1365.66 572.274 1420.23 604.562 1470.35C635.737 1520.46 686.395 1563.9 756.538 1600.65C825.567 1636.29 915.194 1664.69 1025.42 1685.85C1135.64 1705.9 1269.25 1715.92 1426.23 1715.92C1556.5 1715.92 1679.53 1708.12 1795.32 1692.53C1909.99 1676.94 2019.66 1654.67 2124.32 1625.71C2228.98 1595.64 2330.29 1559.44 2428.27 1517.12C2518.67 1476.59 2608.1 1431.68 2696.56 1382.42C2707.25 1376.46 2720.74 1379.72 2727.46 1389.95L2984.17 1780.45C2991.54 1791.65 2987.94 1806.76 2976.24 1813.31C2883.17 1865.43 2782.9 1913.71 2675.44 1958.15C2558.53 2004.93 2436.06 2045.58 2308.03 2080.1C2178.87 2113.51 2044.16 2139.13 1903.87 2156.95C1763.58 2175.88 1619.96 2185.35 1472.99 2185.35C1250.32 2185.35 1048.24 2164.75 866.762 2123.54C685.282 2081.22 530.522 2019.96 402.485 1939.78C273.333 1858.47 174.243 1759.35 105.214 1642.41C35.0713 1524.36 -0.000244141 1390.16 -0.000244141 1239.81C-0.000244141 1127.32 20.5969 1025.97 61.7917 935.763C102.987 844.439 163.666 767.035 243.829 703.554C323.991 638.958 423.639 589.398 542.77 554.873C660.787 520.348 796.619 503.085 950.265 503.085C1031.54 503.085 1115.6 507.54 1202.44 516.45C1288.17 524.246 1372.79 533.155 1456.29 543.179C1538.68 553.202 1617.73 562.669 1693.44 571.579C1768.04 579.375 1834.28 583.273 1892.18 583.273C2035.8 583.273 2142.69 558.771 2212.83 509.768C2675.44 56.4999 2913.5 -198 2970 193.5Z" fill="#F0F2FB"/>
</svg>
