<svg width="2482" height="2631" viewBox="0 0 2482 2631" fill="none" xmlns="http://www.w3.org/2000/svg">
<path fill-rule="evenodd" clip-rule="evenodd" d="M446.731 477.81L1018.08 5.18908C1030.73 -5.27221 1049.91 4.5868 1048.4 20.777L1021.43 311.617C1093.42 321.129 1166.51 334.114 1240.69 350.573C1328.99 369.983 1417.87 394.44 1507.34 423.944C1597.17 452.656 1684.4 485.946 1769.03 523.814C1885.9 576.108 1986.43 631.14 2070.62 688.91C2154.37 745.526 2224.71 803.799 2281.63 863.728C2337.76 923.296 2381.24 983.908 2412.08 1045.56C2443.29 1106.43 2463.98 1166.89 2474.15 1226.96C2483.89 1285.87 2484.47 1343.56 2475.89 1400.02C2466.5 1456.11 2450.08 1509.54 2426.62 1560.3C2387.04 1645.96 2334.67 1712.98 2269.52 1761.35C2204.37 1809.72 2132.08 1841.98 2052.64 1858.12C1972.4 1873.9 1888.64 1875.19 1801.37 1861.98C1713.29 1848.41 1626.94 1822.69 1542.31 1784.82C1491.53 1762.1 1438.99 1734.77 1384.7 1702.82C1329.97 1669.71 1275.01 1636.03 1219.84 1601.77C1163.86 1567.15 1108.32 1533.69 1053.22 1501.37C998.489 1468.27 944.927 1440 892.537 1416.55C773.248 1363.18 675.829 1343.51 600.278 1357.56C525.093 1370.82 471.924 1411.16 440.771 1478.57C421.346 1520.61 415.074 1564.7 421.955 1610.85C428.031 1656.64 450.41 1703.98 489.093 1752.87C527.337 1800.61 582.874 1849.87 655.705 1900.65C728.902 1950.63 822.324 2001.04 935.97 2051.89C1030.27 2094.09 1121.9 2128.39 1210.86 2154.79C1299 2180.84 1385.73 2200.5 1471.02 2213.78C1556.68 2226.27 1641.94 2233.31 1726.79 2234.91C1805.57 2235.32 1885.09 2232.31 1965.34 2225.88C1975.04 2225.11 1983.74 2231.8 1985.24 2241.26L2042.57 2602.5C2044.21 2612.87 2036.64 2622.46 2026.01 2623.34C1941.48 2630.3 1853.01 2632.21 1760.59 2629.05C1660.56 2624.49 1558.53 2613.77 1454.48 2596.88C1349.98 2578.84 1244.03 2553.44 1136.61 2520.69C1028.82 2488.73 921.732 2448.95 815.339 2401.34C654.139 2329.21 514.63 2249.08 396.813 2160.95C279.362 2072.03 187.485 1978.27 121.184 1879.69C54.4428 1779.96 15.3276 1677.27 3.83849 1571.64C-8.08972 1464.84 10.6851 1357.91 60.1634 1250.84C97.1805 1170.73 145.443 1105.23 204.952 1054.33C264.828 1002.64 334.227 967.174 413.15 947.933C492.44 927.899 580.886 924.883 678.49 938.886C775.288 952.528 879.301 984.234 990.529 1034C1049.37 1060.33 1108.75 1090.73 1168.69 1125.21C1228.19 1158.53 1286.51 1192.28 1343.66 1226.47C1400.01 1260.3 1454.12 1292.65 1505.99 1323.52C1557.43 1353.23 1604.11 1377.47 1646.02 1396.22C1749.99 1442.74 1835.43 1459.92 1902.34 1447.74C1969.61 1434.77 2016.07 1400.53 2041.72 1345.01C2054.92 1316.46 2060.46 1284.48 2058.34 1249.07C2055.78 1212.51 2039.66 1173.72 2009.99 1132.68C1980.69 1090.86 1935.66 1047.26 1874.92 1001.9C1813.38 956.174 1729.81 909.689 1624.22 862.444C1550.07 829.264 1475.52 801.168 1400.56 778.155C1325.16 753.988 1250.71 734.076 1177.21 718.418C1112.5 704.632 1048.98 693.976 986.658 686.451L962.537 946.492C961.133 961.634 942.598 968.508 931.386 958.044L445.904 504.95C437.893 497.473 438.279 484.801 446.731 477.81Z" fill="url(#paint0_linear_2_31)"/>
<defs>
<linearGradient id="paint0_linear_2_31" x1="-48.7492" y1="2122.02" x2="857.105" y2="-28.2831" gradientUnits="userSpaceOnUse">
<stop stop-color="#50AF93"/>
<stop offset="0.0989583" stop-color="#4CAA97"/>
<stop offset="0.171875" stop-color="#49A59B"/>
<stop offset="0.171975" stop-color="#49A59B"/>
<stop offset="1" stop-color="#2A77BD"/>
</linearGradient>
</defs>
</svg>
