<svg width="74" height="74" viewBox="0 0 74 74" fill="none" xmlns="http://www.w3.org/2000/svg">
<circle cx="37" cy="37" r="37" fill="#4CA997"/>
<path d="M34.5 52.5C34.5 53.8807 35.6193 55 37 55C38.3807 55 39.5 53.8807 39.5 52.5H34.5ZM38.7678 19.2322C37.7915 18.2559 36.2085 18.2559 35.2322 19.2322L19.3223 35.1421C18.346 36.1184 18.346 37.7014 19.3223 38.6777C20.2986 39.654 21.8816 39.654 22.8579 38.6777L37 24.5355L51.1421 38.6777C52.1184 39.654 53.7014 39.654 54.6777 38.6777C55.654 37.7014 55.654 36.1184 54.6777 35.1421L38.7678 19.2322ZM39.5 52.5V21H34.5V52.5H39.5Z" fill="white"/>
</svg>
