<svg width="32" height="32" viewBox="0 0 32 32" fill="none" xmlns="http://www.w3.org/2000/svg">
<rect width="32" height="32" rx="7.38462" fill="url(#paint0_linear_541_230)"/>
<g clip-path="url(#clip0_541_230)">
<path d="M14.3333 16.8334C14.7936 16.8334 15.1667 16.4603 15.1667 16.0001C15.1667 15.5399 14.7936 15.1667 14.3333 15.1667C13.8731 15.1667 13.5 15.5399 13.5 16.0001C13.5 16.4603 13.8731 16.8334 14.3333 16.8334Z" fill="white"/>
<path d="M18.4997 16.0001C18.4997 16.4603 18.1266 16.8334 17.6663 16.8334C17.2061 16.8334 16.833 16.4603 16.833 16.0001C16.833 15.5399 17.2061 15.1667 17.6663 15.1667C18.1266 15.1667 18.4997 15.5399 18.4997 16.0001Z" fill="white"/>
<path d="M12.9108 18.7443C13.2334 18.4217 13.7548 18.4189 14.0809 18.736C14.2041 18.8459 14.3509 18.9315 14.4977 19.0049C14.8125 19.1623 15.3107 19.3335 16 19.3335C16.6894 19.3335 17.1876 19.1623 17.5024 19.0049C17.6492 18.9315 17.796 18.8459 17.9192 18.736C18.2453 18.4189 18.7666 18.4217 19.0893 18.7443C19.4147 19.0698 19.4147 19.5974 19.0893 19.9229C19.0253 19.9867 18.9602 20.0431 18.8438 20.1305C18.7042 20.2351 18.5056 20.3666 18.2477 20.4956C17.7291 20.7549 16.9774 21.0002 16 21.0002C15.0227 21.0002 14.2709 20.7549 13.7524 20.4956C13.4944 20.3666 13.2958 20.2351 13.1563 20.1305C13.0403 20.0435 12.9753 19.987 12.9114 19.9235C12.5859 19.598 12.5853 19.0698 12.9108 18.7443Z" fill="white"/>
<path fill-rule="evenodd" clip-rule="evenodd" d="M16.9413 8.33655C17.0792 8.58097 17.1706 8.93168 16.9977 9.39268C16.6706 9.35366 16.3376 9.33357 16 9.33357C12.3315 9.33357 9.21671 11.704 8.10365 14.9967C6.8966 15.2885 6 16.3757 6 17.6724C6 18.9705 6.89858 20.0586 8.10765 20.3489C9.22416 23.6355 12.3359 26.0002 16 26.0002C19.6641 26.0002 22.7758 23.6355 23.8923 20.3489C25.1014 20.0586 26 18.9705 26 17.6724C26 16.3757 25.1034 15.2885 23.8963 14.9967C23.0622 12.5293 21.1041 10.5797 18.6312 9.75747C18.8742 8.94344 18.7594 8.16753 18.3932 7.51798C17.8856 6.61774 16.8992 6.00024 16 6.00024C15.2226 6.00024 14.6348 6.29437 14.2492 6.58375C14.0577 6.72746 13.9132 6.87181 13.814 6.98362C13.7641 7.03984 13.7247 7.08883 13.6959 7.1268C13.4032 7.51188 13.4516 8.08145 13.872 8.36089C14.3182 8.6575 14.7487 8.44135 15.0606 8.08979C15.1 8.04535 15.1635 7.98137 15.2497 7.91674C15.4192 7.78946 15.6647 7.66691 16 7.66691C16.2135 7.66691 16.6854 7.88267 16.9413 8.33655ZM22.6098 18.9428L23.5033 18.7283C23.9802 18.6138 24.3333 18.1822 24.3333 17.6724C24.3333 17.163 23.9811 16.7319 23.5048 16.6168L22.6117 16.401L22.3174 15.5305C21.4263 12.8943 18.9322 11.0002 16 11.0002C13.0678 11.0002 10.5737 12.8943 9.68255 15.5305L9.38829 16.401L8.49514 16.6168C8.01892 16.7319 7.66667 17.163 7.66667 17.6724C7.66667 18.1822 8.01972 18.6138 8.4967 18.7283L9.39018 18.9428L9.68574 19.8128C10.5796 22.444 13.0713 24.3335 16 24.3335C18.9287 24.3335 21.4203 22.444 22.3143 19.8128L22.6098 18.9428Z" fill="white"/>
</g>
<defs>
<linearGradient id="paint0_linear_541_230" x1="16" y1="0" x2="16" y2="32" gradientUnits="userSpaceOnUse">
<stop stop-color="#E387AA"/>
<stop offset="1" stop-color="#DD5484"/>
</linearGradient>
<clipPath id="clip0_541_230">
<rect width="20" height="20" fill="white" transform="translate(6 6)"/>
</clipPath>
</defs>
</svg>
