<svg width="32" height="32" viewBox="0 0 32 32" fill="none" xmlns="http://www.w3.org/2000/svg">
<rect width="32" height="32" rx="7.38462" fill="url(#paint0_linear_540_166)"/>
<g clip-path="url(#clip0_540_166)">
<path d="M12.2194 7.90974C11.535 6.98001 10.6084 6.46802 9.61031 6.46802C8.61223 6.46802 7.68563 6.98005 7.00121 7.90974C6.35559 8.78677 6 9.9436 6 11.1672C6 12.3906 6.35559 13.5473 7.00113 14.4243C7.30578 14.8382 7.65855 15.1687 8.0441 15.4087V23.9654C8.0441 24.3844 8.20738 24.7778 8.50242 25.072C8.79785 25.3684 9.19129 25.5317 9.61031 25.5317C10.4739 25.5317 11.1765 24.8291 11.1765 23.9655V15.4088C11.562 15.1688 11.9148 14.8382 12.2195 14.4244C12.865 13.5472 13.2205 12.3905 13.2205 11.1671C13.2206 9.9436 12.865 8.78677 12.2194 7.90974ZM10.0304 23.9654C10.0304 24.1971 9.84195 24.3855 9.61035 24.3855C9.4982 24.3855 9.39305 24.3419 9.31293 24.2615C9.23383 24.1827 9.19027 24.0776 9.19027 23.9654V15.8344C9.32859 15.8548 9.46859 15.8663 9.61031 15.8663C9.75203 15.8663 9.89203 15.8549 10.0304 15.8344L10.0304 23.9654ZM11.2964 13.7449C10.8335 14.3738 10.2347 14.7202 9.61031 14.7202C8.9859 14.7202 8.38711 14.3738 7.92418 13.7449C7.42246 13.0633 7.14613 12.1479 7.14613 11.1672C7.14613 10.1863 7.42246 9.27075 7.92418 8.58923C8.38703 7.9604 8.9859 7.61415 9.61031 7.61415C10.2347 7.61415 10.8336 7.9604 11.2964 8.58923C11.7982 9.27079 12.0745 10.1863 12.0745 11.1672C12.0745 12.1479 11.7982 13.0633 11.2964 13.7449Z" fill="white"/>
<path d="M17.2849 6.46851C15.6917 6.46851 14.3955 7.76444 14.3955 9.35733V16.2725C14.3955 16.9957 14.8221 17.621 15.4368 17.9105V23.966C15.4368 24.8296 16.1393 25.5321 17.0029 25.5321C17.8665 25.5321 18.5691 24.8296 18.5691 23.966V17.5092V7.75276C18.5692 7.0446 17.9931 6.46851 17.2849 6.46851ZM17.423 23.9659C17.423 24.1976 17.2346 24.386 17.003 24.386C16.7714 24.386 16.583 24.1975 16.583 23.9659V18.0823H17.4231V23.9659H17.423ZM17.423 16.9361H16.2053C15.8394 16.9361 15.5417 16.6384 15.5417 16.2725V9.35733C15.5417 8.39644 16.3237 7.61464 17.285 7.61464C17.3611 7.61464 17.4231 7.67659 17.4231 7.75276V16.9361H17.423Z" fill="white"/>
<path d="M25.4273 8.6364C25.1108 8.6364 24.8543 8.89296 24.8543 9.20944V12.1034H23.8228V7.04155C23.8228 6.72507 23.5662 6.46851 23.2497 6.46851C22.9332 6.46851 22.6767 6.72507 22.6767 7.04155V12.1034H21.6452V7.04155C21.6452 6.72507 21.3886 6.46851 21.0721 6.46851C20.7556 6.46851 20.499 6.72507 20.499 7.04155V12.6765V13.861C20.499 14.6744 20.986 15.3758 21.6836 15.6902V23.9659C21.6836 24.8295 22.3861 25.5321 23.2497 25.5321C24.1133 25.5321 24.8159 24.8295 24.8159 23.9659V15.6902C25.5134 15.3758 26.0004 14.6744 26.0004 13.861V12.6765V9.20944C26.0004 8.89296 25.7438 8.6364 25.4273 8.6364ZM23.6697 23.9659C23.6697 24.1975 23.4813 24.3859 23.2497 24.3859C23.0181 24.3859 22.8296 24.1975 22.8296 23.9659V15.8667H23.6698V23.9659H23.6697ZM24.8543 13.861C24.8543 14.335 24.4686 14.7206 23.9946 14.7206H22.5047C22.0307 14.7206 21.6451 14.335 21.6451 13.861V13.2496H24.8543V13.861Z" fill="white"/>
<path d="M25.4275 6.46851C25.111 6.46851 24.8545 6.72507 24.8545 7.04155V7.49026C24.8545 7.80679 25.1111 8.06335 25.4275 8.06335C25.744 8.06335 26.0006 7.80679 26.0006 7.4903V7.04159C26.0006 6.72507 25.744 6.46851 25.4275 6.46851Z" fill="white"/>
</g>
<defs>
<linearGradient id="paint0_linear_540_166" x1="16" y1="0" x2="16" y2="32" gradientUnits="userSpaceOnUse">
<stop stop-color="#ABCC6D"/>
<stop offset="1" stop-color="#7CBB5A"/>
</linearGradient>
<clipPath id="clip0_540_166">
<rect width="20" height="20" fill="white" transform="translate(6 6)"/>
</clipPath>
</defs>
</svg>
