<svg width="32" height="32" viewBox="0 0 32 32" fill="none" xmlns="http://www.w3.org/2000/svg">
<rect width="32" height="32" rx="7.38462" fill="url(#paint0_linear_540_141)"/>
<g clip-path="url(#clip0_540_141)">
<path d="M25.7859 15.7697C25.6505 15.6585 25.4728 15.615 25.3021 15.6514L23.2515 16.0888V15.963C24.232 15.0035 24.8427 13.6589 24.8427 12.1725C24.8427 9.2648 22.5066 6.89917 19.6351 6.89917C17.5098 6.89917 15.6781 8.19523 14.8695 10.0476C14.6403 9.6789 14.3616 9.33959 14.0375 9.04036C13.1514 8.22228 12.0025 7.77179 10.8026 7.77179C8.15441 7.77179 6 9.95333 6 12.6349C6 14.0573 6.60629 15.3389 7.57074 16.229V19.7114C7.57074 20.035 7.82984 20.2973 8.14937 20.2973C8.4689 20.2973 8.728 20.035 8.728 19.7114V17.0204C9.35632 17.3265 10.06 17.4981 10.8026 17.4981C11.1221 17.4981 11.3812 17.2358 11.3812 16.9122C11.3812 16.5886 11.1221 16.3263 10.8026 16.3263C8.79257 16.3263 7.15726 14.6703 7.15726 12.635C7.15726 10.5996 8.79257 8.94365 10.8026 8.94365C12.6821 8.94365 14.2382 10.3661 14.4285 12.2547C14.472 15.1246 16.7907 17.4458 19.6351 17.4458C20.524 17.4458 21.3614 17.219 22.0943 16.8197V20.7758V22.7671H18.7672H12.0551H8.728V22.3002C8.728 21.9766 8.4689 21.7143 8.14937 21.7143C7.82984 21.7143 7.57074 21.9766 7.57074 22.3002V23.353C7.57074 23.6766 7.82984 23.9389 8.14937 23.9389H11.4765V25.4141C11.4765 25.7377 11.7356 26 12.0551 26H18.7672C19.0867 26 19.3458 25.7377 19.3458 25.4141V23.9389H22.6729C22.9924 23.9389 23.2515 23.6766 23.2515 23.353V21.498L25.3021 21.9354C25.3417 21.9439 25.3816 21.948 25.4214 21.948C25.5529 21.948 25.6819 21.9026 25.7859 21.8171C25.9214 21.7059 26 21.5387 26 21.3621V16.2248C26 16.0482 25.9213 15.881 25.7859 15.7697ZM18.1885 24.8281H12.6337V23.9389H18.1885V24.8281H18.1885ZM15.5847 12.1725C15.5847 9.91097 17.4017 8.07107 19.6351 8.07107C21.8685 8.07107 23.6855 9.91097 23.6855 12.1725C23.6855 14.4341 21.8685 16.274 19.6351 16.274C17.4017 16.274 15.5847 14.4341 15.5847 12.1725ZM24.8427 20.6399L23.2515 20.3004V17.2864L24.8427 16.947V20.6399Z" fill="white"/>
<path d="M18.7663 21.147C18.4467 21.147 18.1876 20.8847 18.1876 20.5611V19.0859H12.6328V20.5611C12.6328 20.8847 12.3737 21.147 12.0542 21.147C11.7347 21.147 11.4756 20.8847 11.4756 20.5611V18.5C11.4756 18.1764 11.7347 17.9141 12.0542 17.9141H18.7663C19.0858 17.9141 19.3449 18.1764 19.3449 18.5V20.5611C19.3449 20.8847 19.0859 21.147 18.7663 21.147Z" fill="white"/>
</g>
<defs>
<linearGradient id="paint0_linear_540_141" x1="16" y1="0" x2="16" y2="32" gradientUnits="userSpaceOnUse">
<stop stop-color="#F1C15C"/>
<stop offset="1" stop-color="#EDAC1A"/>
</linearGradient>
<clipPath id="clip0_540_141">
<rect width="22" height="20" fill="white" transform="translate(5 6)"/>
</clipPath>
</defs>
</svg>
