<svg width="32" height="32" viewBox="0 0 32 32" fill="none" xmlns="http://www.w3.org/2000/svg">
<rect width="32" height="32" rx="7.38462" fill="url(#paint0_linear_541_215)"/>
<path d="M8.5 13.2578C8.5 12.0299 8.5 11.4159 8.8272 11.0578C8.94337 10.9306 9.08456 10.8289 9.24191 10.7589C9.68511 10.5617 10.2676 10.7559 11.4325 11.1442C12.3219 11.4406 12.7666 11.5889 13.2159 11.5735C13.3809 11.5679 13.545 11.5459 13.7057 11.5079C14.1433 11.4045 14.5332 11.1445 15.3133 10.6245L16.4652 9.85648C17.4645 9.19036 17.9641 8.8573 18.5376 8.7805C19.1111 8.7037 19.6807 8.89357 20.8199 9.27332L21.7906 9.59686C22.6156 9.87187 23.0281 10.0094 23.2641 10.3367C23.5 10.6641 23.5 11.0989 23.5 11.9686V18.7422C23.5 19.9702 23.5 20.5842 23.1728 20.9422C23.0567 21.0694 22.9154 21.1712 22.7581 21.2412C22.3149 21.4383 21.7324 21.2442 20.5675 20.8558C19.6781 20.5594 19.2334 20.4112 18.7841 20.4265C18.6191 20.4322 18.455 20.4541 18.2943 20.4921C17.8567 20.5955 17.4668 20.8555 16.6867 21.3756L15.5347 22.1435C14.5355 22.8097 14.0359 23.1427 13.4624 23.2195C12.889 23.2963 12.3193 23.1064 11.1801 22.7267L10.2094 22.4032C9.38441 22.1282 8.97189 21.9907 8.73595 21.6632C8.5 21.3359 8.5 20.9011 8.5 20.0314V13.2578Z" stroke="white" stroke-width="1.25"/>
<path d="M13.5 11.5322V23.0833" stroke="white" stroke-width="1.25"/>
<path d="M18.5 8.5V20.1667" stroke="white" stroke-width="1.25"/>
<defs>
<linearGradient id="paint0_linear_541_215" x1="16" y1="0" x2="16" y2="32" gradientUnits="userSpaceOnUse">
<stop stop-color="#73C6DC"/>
<stop offset="1" stop-color="#00A8D0"/>
</linearGradient>
</defs>
</svg>
